<?xml version="1.0" encoding="UTF-8"?>
<svg version="1.1" xmlns="http://www.w3.org/2000/svg" width="683" height="683">
<path d="M0 0 C1.15822266 0.26006836 1.15822266 0.26006836 2.33984375 0.52539062 C21.38903372 4.91194721 40.36236173 14.03467255 55 27 C56.17547577 28.01618545 57.35264093 29.03041909 58.53125 30.04296875 C59.13388672 30.56141357 59.73652344 31.0798584 60.35742188 31.61401367 C60.96134766 32.13326416 61.56527344 32.65251465 62.1875 33.1875 C62.78369141 33.70094971 63.37988281 34.21439941 63.99414062 34.7434082 C72.31345998 41.88168959 80.61656888 46.88395263 90.55078125 51.45825195 C122.75157694 66.41265814 153.44213034 90.13832691 173 120 C173.45036621 120.6811084 173.90073242 121.3622168 174.36474609 122.06396484 C192.35072484 149.55529132 202.96214634 179.60090308 208 212 C208.12455566 212.80034668 208.24911133 213.60069336 208.37744141 214.42529297 C222.05954854 305.57853115 186.92098273 398.5792735 131.51513672 504.45556641 C128.6533194 509.26153806 125.9994254 514.18659508 123.36889648 519.12231445 C123.00997314 519.78320068 122.6510498 520.44408691 122.28125 521.125 C121.92933594 521.77339844 121.57742188 522.42179688 121.21484375 523.08984375 C120 525 120 525 118.31640625 526.81640625 C115.72292553 529.6333615 113.98593818 531.64625355 114.02696228 535.59568787 C115.7915382 545.50513076 118.08440829 555.25966445 120.47265625 565.03515625 C120.91949535 566.88079019 121.36589147 568.72653142 121.81187439 570.57237244 C122.74754663 574.44024162 123.68667051 578.30724905 124.62866211 582.17358398 C125.80735501 587.01144883 126.98044676 591.85064599 128.15119362 596.69043922 C133.83501565 620.19628791 133.83501565 620.19628791 139.69091797 643.65966797 C140.01007565 644.92135441 140.01007565 644.92135441 140.33568096 646.20852947 C141.33480706 650.15678905 142.33972494 654.10337233 143.35646057 658.0471344 C143.70978413 659.43688462 144.06290037 660.82668757 144.41577148 662.21655273 C144.72320786 663.412556 145.03064423 664.60855927 145.34739685 665.84080505 C145.93617624 668.69103472 146.21864932 671.10496734 146 674 C145 675 145 675 142.77514648 675.11352539 C141.81680908 675.10828857 140.85847168 675.10305176 139.87109375 675.09765625 C138.93966553 675.09515869 138.0082373 675.09266113 137.04858398 675.09008789 C135.26109741 675.07643188 135.26109741 675.07643188 133.4375 675.0625 C131.39721868 675.05101181 129.3569353 675.03988555 127.31665039 675.02905273 C125.54443359 675.01936849 123.7722168 675.00968424 122 675 C116.02334851 653.70158725 110.84936343 632.21895458 105.71948242 610.7043457 C104.78109643 606.76986579 103.83762604 602.83666198 102.8894043 598.90454102 C89.80087649 544.62037836 89.80087649 544.62037836 89 526 C88.07058594 525.95101562 87.14117188 525.90203125 86.18359375 525.8515625 C70.31934605 524.89209809 70.31934605 524.89209809 65.625 521.0625 C62.61568462 517.24298433 62.67483416 513.71490466 63 509 C64.82356564 504.77700589 66.87748696 502.95335181 71 501 C73.88168242 500.73146647 76.50300583 500.6214912 79.375 500.6875 C80.1592334 500.69587891 80.9434668 500.70425781 81.75146484 500.71289062 C89.26253087 500.86441506 96.59270373 501.77637584 104 503 C104.24540527 502.47994385 104.49081055 501.9598877 104.74365234 501.42407227 C106.38186856 498.26319997 108.24707555 495.25135053 110.1015625 492.21484375 C114.78811599 484.46550902 119.14204299 476.56698489 123.375 468.5625 C123.92392914 467.52677353 123.92392914 467.52677353 124.48394775 466.47012329 C131.15216872 453.86079831 137.36248633 441.10721928 143 428 C143.43441406 426.99888184 143.86882813 425.99776367 144.31640625 424.96630859 C165.08656898 376.74229009 184.01514729 322.37155639 184.203125 269.46875 C184.20882507 268.19761353 184.21452515 266.92647705 184.22039795 265.61682129 C184.22979762 262.93754521 184.2367199 260.25837968 184.24023438 257.57910156 C184.24460363 254.87388508 184.25845172 252.1689903 184.28125 249.46386719 C184.44649209 229.42680932 183.4270649 210.86104072 177.8125 191.5625 C177.51206787 190.51392822 177.21163574 189.46535645 176.90209961 188.38500977 C173.93234033 178.30524794 170.28045407 168.5924684 166 159 C165.68450195 158.29053223 165.36900391 157.58106445 165.04394531 156.85009766 C153.5840631 131.54929035 135.2204842 110.43445841 113 94 C112.4519873 93.59168945 111.90397461 93.18337891 111.33935547 92.76269531 C101.80622656 85.76543027 91.42191004 80.40553684 80.89379883 75.0847168 C60.1578371 64.60088834 60.1578371 64.60088834 52.25 57.5 C51.70327637 57.02570557 51.15655273 56.55141113 50.59326172 56.06274414 C48.34199244 54.10397311 46.12287557 52.1133701 43.9296875 50.08984375 C12.44206488 21.2602672 -32.00328089 15.40432293 -73 17 C-128.96835646 19.49200674 -180.72068241 34.31520234 -233.875 51.0625 C-235.0852182 51.44354889 -236.2954364 51.82459778 -237.54232788 52.2171936 C-244.56687052 54.43122073 -251.58579017 56.66194454 -258.59872437 58.91247559 C-260.88050265 59.64205174 -263.16391982 60.36652048 -265.44888306 61.08605957 C-268.74472536 62.12451731 -272.03485089 63.17952202 -275.32421875 64.23828125 C-276.3024057 64.54242447 -277.28059265 64.84656769 -278.28842163 65.15992737 C-292.07901461 69.65487357 -300.56038155 80.40476679 -307 93 C-315.45265102 110.70095578 -320.97900643 132.48705312 -317.64550781 152.08398438 C-315.65898669 163.89426063 -320.77097641 176.1266759 -324.3125 187.25 C-324.7128238 188.52387479 -325.11272096 189.79788373 -325.51220703 191.07202148 C-327.72612691 198.09445311 -330.01035224 205.08954582 -332.375 212.0625 C-337.19241333 226.28487686 -339.18836128 239.14679184 -339.25 254.125 C-339.270625 255.35476563 -339.29125 256.58453125 -339.3125 257.8515625 C-339.36271583 269.80292941 -337.88027485 280.88308201 -331.8125 291.3125 C-326.20092073 301.87874247 -326.20092073 301.87874247 -328 308 C-331.49623324 317.22467692 -337.34381269 325.25966204 -342.87841797 333.35107422 C-347.0879536 338.78554043 -347.0879536 338.78554043 -349 345 C-326.75997557 354.54693732 -303.56519417 360.70063336 -280 366 C-279.06285156 366.21672363 -278.12570312 366.43344727 -277.16015625 366.65673828 C-257.55382462 371.16398332 -237.9315623 372.16832373 -217.875 372.25 C-216.77005692 372.2580365 -216.77005692 372.2580365 -215.64279175 372.26623535 C-188.33430323 372.41720576 -160.34479363 365.80219471 -139.3515625 347.34375 C-135.17751896 343.18357372 -131.52637068 338.71533857 -128 334 C-127.43023437 333.24460937 -126.86046875 332.48921875 -126.2734375 331.7109375 C-121.7672 325.49617393 -117.8377708 318.91923635 -113.90673828 312.33178711 C-107.83554319 302.22369546 -107.83554319 302.22369546 -103 299 C-99.22311096 298.31656294 -95.52813111 298.14892905 -92.11328125 300.05078125 C-89.33774353 302.32900713 -87.21819983 304.24141871 -86.76611328 307.88500977 C-86.57528022 313.93310156 -87.84399418 317.7667767 -90.875 322.9375 C-91.27702637 323.66348389 -91.67905273 324.38946777 -92.09326172 325.13745117 C-94.19906273 328.92391366 -96.38674729 332.66108784 -98.578125 336.3984375 C-104.86491456 347.22728832 -109.31963896 358.03754694 -113 370 C-113.59941406 371.87558594 -113.59941406 371.87558594 -114.2109375 373.7890625 C-120.5400854 395.25106025 -121.21723153 418.33184715 -121.1875 440.5625 C-121.18689575 441.39838654 -121.1862915 442.23427307 -121.18566895 443.0954895 C-121.70955431 476.2367186 -121.70955431 476.2367186 -109 506 C-108.49726563 506.73734375 -107.99453125 507.4746875 -107.4765625 508.234375 C-103.46730214 511.09271204 -99.17730079 510.55931122 -94.375 510.5625 C-76.81972337 510.64609656 -76.81972337 510.64609656 -70.4375 516.25 C-68.63560887 519.69709607 -68 522.0964005 -68 526 C-70.696049 532.41916428 -75.9340208 534.39992364 -82 537 C-85.81273105 538.29081175 -89.67409923 539.33826109 -93.5625 540.375 C-127.46618772 549.91860641 -163.94212261 570.94212261 -189 596 C-188.32195312 595.86722656 -187.64390625 595.73445312 -186.9453125 595.59765625 C-169.71624002 592.32842782 -169.71624002 592.32842782 -165.125 594.125 C-159.483019 599.10321853 -157.38450266 604.60987471 -154.91796875 611.5390625 C-154.54070145 612.57453217 -154.16343414 613.61000183 -153.7747345 614.67684937 C-152.5699692 617.98970918 -151.37847578 621.30716108 -150.1875 624.625 C-149.39867638 626.80240594 -148.60897099 628.97949264 -147.81835938 631.15625 C-146.65239004 634.36747504 -145.48846183 637.5793438 -144.33200073 640.79400635 C-142.54557417 645.75933829 -140.74027141 650.71464418 -138.86572266 655.64746094 C-138.37269402 656.95244034 -138.37269402 656.95244034 -137.8697052 658.28378296 C-137.26049371 659.89061384 -136.64481322 661.49501394 -136.02128601 663.09634399 C-134.61201323 666.82515234 -133.51990039 669.99200429 -134 674 C-135 675 -135 675 -137.01171875 675.1328125 C-142.49510599 675.11680261 -147.92541038 674.89970331 -153.39453125 674.4921875 C-154.6369458 674.40050293 -155.87936035 674.30881836 -157.15942383 674.21435547 C-158.09681396 674.14361816 -159.0342041 674.07288086 -160 674 C-162.71285979 666.93682 -165.41797779 659.87071134 -168.11767578 652.80249023 C-169.03743368 650.397182 -169.95897668 647.99255558 -170.88232422 645.58862305 C-172.20747734 642.1376738 -173.52623901 638.68434163 -174.84375 635.23046875 C-175.25935181 634.15226364 -175.67495361 633.07405853 -176.10314941 631.96318054 C-176.4835437 630.96236954 -176.86393799 629.96155853 -177.25585938 628.93041992 C-177.59339233 628.04883713 -177.93092529 627.16725433 -178.27868652 626.25895691 C-179 624 -179 624 -179 621 C-180.08442886 621.28290138 -180.08442886 621.28290138 -181.19076538 621.57151794 C-188.53782927 623.45311189 -195.89569967 625.02825947 -203.3515625 626.41015625 C-205.0599379 626.72961464 -205.0599379 626.72961464 -206.80282593 627.05552673 C-209.1974559 627.50192017 -211.59245115 627.94635826 -213.98779297 628.38891602 C-217.59616304 629.05715961 -221.20237851 629.73625217 -224.80859375 630.41601562 C-263.90768781 637.71253351 -299.47192903 638.62389891 -334 616 C-337.50747359 613.50696625 -340.77653939 610.84812616 -344 608 C-345.19109375 606.97132813 -345.19109375 606.97132813 -346.40625 605.921875 C-348.98041177 603.65726433 -351.49679992 601.34278637 -354 599 C-354.93714844 598.12859375 -355.87429688 597.2571875 -356.83984375 596.359375 C-374.67492348 579.39019061 -387.6610803 558.18895501 -398 536 C-398.2985791 535.36416992 -398.5971582 534.72833984 -398.90478516 534.07324219 C-412.61499766 504.6205677 -421.82228099 472.86429841 -421.41162109 440.25683594 C-421.37451226 437.20995306 -421.37060777 434.16427576 -421.37109375 431.1171875 C-421.36127871 429.14582294 -421.34962881 427.17446645 -421.3359375 425.203125 C-421.33371185 424.30926086 -421.33148621 423.41539673 -421.32919312 422.4944458 C-421.11485355 408.1741267 -415.44600247 397.88004687 -407.8125 386.0625 C-407.21663086 385.13228027 -406.62076172 384.20206055 -406.00683594 383.24365234 C-400.62660133 374.88433642 -395.10491532 366.62023613 -389.56903076 358.36361694 C-382.51246411 347.84941893 -382.51246411 347.84941893 -375.87451172 337.06835938 C-373.32012918 332.81662025 -370.43818973 328.98552534 -367.33984375 325.109375 C-358.79577734 315.20724364 -358.79577734 315.20724364 -354.97558594 303.37744141 C-356.23681728 298.37590238 -358.98148239 294.25472798 -361.79882812 289.98974609 C-371.07351978 274.62618167 -367.4916556 245.95091817 -364.046875 229.12890625 C-363.70373763 227.75114136 -363.35376471 226.3750745 -363 225 C-362.75926758 224.01040283 -362.51853516 223.02080566 -362.27050781 222.0012207 C-359.26811968 210.13163772 -355.24786188 198.62700558 -351.25 187.0625 C-350.54510365 185.01122891 -349.84067324 182.95979764 -349.13671875 180.90820312 C-347.42983818 175.93694551 -345.71724834 170.96768514 -344 166 C-344.62390625 165.71511719 -345.2478125 165.43023437 -345.890625 165.13671875 C-348.81708048 163.55968441 -349.65562606 162.02484138 -351 159 C-351.71344952 152.5789543 -349.80555988 148.61111976 -347 143 C-346.74918318 140.79402076 -346.52526149 138.58497421 -346.3125 136.375 C-343.02312133 107.32897415 -332.85000909 81.45120318 -313 60 C-312.46149414 59.40171387 -311.92298828 58.80342773 -311.36816406 58.18701172 C-309.74713029 56.39384557 -308.09836934 54.63126133 -306.4375 52.875 C-305.95643799 52.34253662 -305.47537598 51.81007324 -304.97973633 51.26147461 C-300.37916693 46.55037647 -295.19299402 44.9238143 -289 43 C-287.71668768 42.58817625 -286.43374897 42.17518705 -285.15112305 41.76123047 C-280.6498455 40.31690664 -276.13754639 38.90863249 -271.625 37.5 C-268.21415216 36.43188307 -264.8040877 35.36129429 -261.39453125 34.2890625 C-260.52863876 34.01675812 -259.66274628 33.74445374 -258.77061462 33.46389771 C-253.00528012 31.6456482 -247.2541009 29.78784967 -241.51171875 27.8984375 C-202.35340338 15.01821442 -162.83883018 3.22193794 -122 -3 C-120.70529785 -3.19754883 -119.4105957 -3.39509766 -118.07666016 -3.59863281 C-78.84552586 -9.44151079 -38.70038044 -9.05577892 0 0 Z " fill="#F2F2F2" transform="translate(447,7)"/>
<path d="M0 0 C15.31937339 11.97517631 23.7582974 27.44334863 26.43359375 46.90234375 C28.32093503 74.59544757 18.83558848 97.88334898 1.54296875 119.06640625 C-8.42181344 131.29703421 -16.59638693 144.30727991 -24.56640625 157.90234375 C-38.18277454 181.00890811 -38.18277454 181.00890811 -48.56640625 185.90234375 C-49.21867187 186.21945312 -49.8709375 186.5365625 -50.54296875 186.86328125 C-59.5192749 190.52776578 -70.03214802 190.28091052 -79.00390625 186.83984375 C-89.94727497 181.63291831 -97.21774693 173.09374642 -101.56640625 161.90234375 C-103.20759127 156.97878868 -103.16048297 152.03489031 -102.56640625 146.90234375 C-100.56640625 143.58984375 -100.56640625 143.58984375 -97.56640625 141.90234375 C-94.64167785 141.54905973 -92.3265089 141.88546383 -89.56640625 142.90234375 C-85.89529264 145.85962971 -84.99727697 149.48052834 -83.62890625 153.83984375 C-81.51122736 160.52120274 -79.56018246 164.17516516 -73.31640625 167.77734375 C-66.60984833 169.78931113 -61.07676586 169.95016939 -54.70092773 166.59106445 C-50.4476235 163.2260747 -48.01959528 158.32044473 -45.38442993 153.66326904 C-43.93311279 151.1005209 -42.43427019 148.56675294 -40.93782043 146.03018188 C-40.18941292 144.7605205 -39.44329539 143.4895064 -38.69950867 142.21713257 C-30.98879283 129.03554264 -22.15405728 116.87492417 -12.703125 104.8984375 C-1.16089189 90.25642691 4.65476853 78.99093024 4.89355469 60.34057617 C4.91998112 58.77255406 4.96070474 57.20469948 5.01660156 55.63745117 C5.42173305 44.10462692 4.0950504 35.60451166 -2.56640625 25.90234375 C-5.4707962 22.79671075 -8.34655808 20.14085276 -11.87890625 17.77734375 C-12.57628906 17.30039062 -13.27367187 16.8234375 -13.9921875 16.33203125 C-24.01871302 10.76342982 -36.6743541 9.43912302 -47.80322266 12.52197266 C-59.03582603 16.80401483 -67.20812738 24.2219906 -72.56640625 34.90234375 C-74.05766786 38.81216994 -75.33703586 42.78413853 -76.52539062 46.7956543 C-76.75033203 47.54242432 -76.97527344 48.28919434 -77.20703125 49.05859375 C-77.39813477 49.72697266 -77.58923828 50.39535156 -77.78613281 51.08398438 C-78.70694055 53.2298467 -79.79346366 54.3991661 -81.56640625 55.90234375 C-84.22602753 56.81436994 -86.76206991 57.10588429 -89.56640625 56.90234375 C-92.04654135 55.05814072 -93.19781788 53.63952048 -94.56640625 50.90234375 C-96.16835416 38.75042463 -91.4611472 26.4174742 -84.625 16.5234375 C-64.56536589 -9.01738695 -28.35474046 -18.79159022 0 0 Z " fill="#F2F2F2" transform="translate(489.56640625,277.09765625)"/>
<path d="M0 0 C2.15121934 4.21280454 2.47114735 7.32329214 1.5 11.9375 C-0.21848072 15.40256189 -2.33418639 17.71841955 -5.5 19.9375 C-10.5619083 21.34488843 -15.5971399 21.65104222 -20.8125 21.9375 C-22.18970771 22.04227873 -23.56667058 22.15032929 -24.94335938 22.26171875 C-46.93429126 23.95732168 -46.93429126 23.95732168 -53.5 19.9375 C-56.51891813 15.65258395 -57.06451279 12.11220054 -56.5 6.9375 C-54.66836248 2.69581311 -52.59501696 0.96287325 -48.5 -1.0625 C-45.76977926 -1.56402662 -43.18784763 -1.93518016 -40.4375 -2.1875 C-39.68597656 -2.26532715 -38.93445313 -2.3431543 -38.16015625 -2.42333984 C-35.94112563 -2.64912432 -33.72103936 -2.85755981 -31.5 -3.0625 C-30.35660156 -3.1759375 -29.21320313 -3.289375 -28.03515625 -3.40625 C-6.54281056 -5.39781871 -6.54281056 -5.39781871 0 0 Z " fill="#F2F2F2" transform="translate(461.5,514.0625)"/>
<path d="M0 0 C3.55392566 1.93782473 5.76262656 4.64393985 8 8 C8.8094954 12.24985082 7.82760222 14.68004255 5.5625 18.1875 C-0.19032125 26.21999401 -6.6145795 33.69100549 -13.25 41 C-13.74516113 41.55204102 -14.24032227 42.10408203 -14.75048828 42.67285156 C-21.21841169 49.6951684 -21.21841169 49.6951684 -26.28125 50.25 C-30.24919356 49.80290777 -32.61975322 49.25349786 -36 47 C-38.72345658 42.91481513 -39.71265995 39.90432654 -39 35 C-35.09698724 25.429394 -26.63799788 17.99399577 -19.58398438 10.66943359 C-17.02854437 7.97613847 -14.62137784 5.16256846 -12.234375 2.3203125 C-9.0473218 -1.08862415 -4.30982552 -0.65914979 0 0 Z " fill="#F2F2F2" transform="translate(410,232)"/>
<path d="M0 0 C3.51578585 1.37574229 4.71719707 2.59464913 6.875 5.6875 C8.31005703 9.91294569 8.51959 12.7948327 7 17 C2.36634836 22.32702117 -4.29996763 25.9177832 -10.25 29.5625 C-11.12785156 30.11357422 -12.00570312 30.66464844 -12.91015625 31.23242188 C-30.72863453 42.22874486 -30.72863453 42.22874486 -39.12109375 40.65234375 C-41.88158843 39.69391836 -43.32849213 38.36796948 -45 36 C-46.21666102 32.35001694 -46.75501773 28.78201543 -46 25 C-43.18854409 20.66939555 -39.52409622 18.00871966 -35.25 15.25 C-34.60329346 14.82533447 -33.95658691 14.40066895 -33.2902832 13.96313477 C-10.24559564 -0.9588599 -10.24559564 -0.9588599 0 0 Z " fill="#F2F2F2" transform="translate(555,115)"/>
<path d="M0 0 C3.0625 2.4375 3.0625 2.4375 5 5 C5.495 5.495 5.495 5.495 6 6 C6.73258168 9.80442985 6.86565988 13.42547902 4.96484375 16.8828125 C3.1016898 19.08428852 1.10193441 21.02228567 -1 23 C-2.1397075 24.11028245 -3.27899488 25.22099623 -4.41796875 26.33203125 C-22.24540938 43.51906194 -22.24540938 43.51906194 -30.8125 46.1875 C-35.25665233 45.92607927 -38.16517942 44.44415304 -41.6328125 41.71484375 C-44.04297681 38.69180909 -43.6505034 35.56092684 -43.5234375 31.83203125 C-42.59699429 26.81955867 -39.67558615 24.32730726 -36 21 C-35.10410156 20.13503906 -34.20820313 19.27007812 -33.28515625 18.37890625 C-12.18085476 -1.78116272 -12.18085476 -1.78116272 0 0 Z " fill="#F2F2F2" transform="translate(479,168)"/>
</svg>
