<?xml version="1.0" encoding="UTF-8"?>
<svg version="1.1" xmlns="http://www.w3.org/2000/svg" width="512" height="512">
<path d="M0 0 C2.57077673 1.28687093 4.44912745 2.4199288 6.6875 4.125 C7.99130278 5.05385846 9.2974398 5.97944615 10.60546875 6.90234375 C11.65806885 7.65427002 11.65806885 7.65427002 12.73193359 8.42138672 C16.89566766 11.31941734 21.2066662 13.98701351 25.5 16.6875 C33.14262123 21.5256712 40.74431322 26.42124227 48.3125 31.375 C56.40758003 36.67253084 64.53359773 41.9184567 72.6875 47.125 C82.72793219 53.5363044 92.72866766 60.00565603 102.70947266 66.50927734 C108.45061826 70.24573387 114.20595842 73.96031851 119.95849609 77.67919922 C121.95897117 78.9734554 123.95819997 80.26961316 125.95703125 81.56640625 C134.38879821 87.03421713 142.8446435 92.4632361 151.3125 97.875 C162.24316117 104.86365842 173.14692789 111.89139036 184 119 C185.11930908 119.73186523 185.11930908 119.73186523 186.26123047 120.47851562 C188.36462267 121.85623052 190.46429893 123.23939552 192.5625 124.625 C193.48313232 125.22803955 193.48313232 125.22803955 194.42236328 125.84326172 C200.37725603 129.79785573 200.37725603 129.79785573 202 132 C202.33448124 135.12999058 202.33448124 135.12999058 202.27760315 139.07313538 C202.27154979 139.79803789 202.26549643 140.52294041 202.25925964 141.26980966 C202.23570707 143.70637126 202.19094368 146.14210158 202.14672852 148.57836914 C202.12628104 150.32296545 202.10740854 152.06758084 202.08999634 153.81221008 C202.05083155 157.57568454 202.00394642 161.33895962 201.95221138 165.10228157 C201.87377681 171.06805137 201.83411394 177.03367575 201.80393982 182.99986267 C201.79868697 184.00762774 201.79343413 185.01539281 201.7880221 186.05369622 C201.77737776 188.11511751 201.76683561 190.17653933 201.75639331 192.23796165 C201.68471615 206.1271185 201.58921111 220.01475612 201.37963867 233.90258789 C201.23857915 243.26948333 201.16246868 252.6344981 201.15938514 262.00248617 C201.15520808 266.95486019 201.11909383 271.90216249 201.00335884 276.85328865 C199.5284722 300.52878763 199.5284722 300.52878763 209.42401791 320.92008877 C212.49111014 323.69790081 215.69985005 326.1308287 219.09664726 328.48847771 C222.48707997 331.18094481 223.74970494 334.39025924 224.3984375 338.5625 C224.33988113 344.65236228 223.68488341 349.18579881 219.296875 353.78515625 C217.69762314 355.99790021 217.69762314 355.99790021 218.37890625 358.91015625 C219.65433028 362.30707766 220.84271479 365.07014494 223 368 C226.08576075 369.38371115 228.851841 369.91386728 232.18359375 370.4453125 C236.09140141 371.21495007 237.70086883 372.81088257 240 376 C242.79745293 380.68655846 243.45577943 384.59885319 243.43359375 389.9609375 C243.4388356 390.710336 243.44407745 391.4597345 243.44947815 392.23184204 C243.45587283 393.81014778 243.45459456 395.38850134 243.44604492 396.96679688 C243.4375477 399.3615555 243.4663069 401.75391476 243.49804688 404.1484375 C243.56436706 418.49139614 243.56436706 418.49139614 239 425 C235.31611727 428.33303676 232.71637126 429.04695331 227.9375 429.4375 C225.30653122 429.70336559 225.30653122 429.70336559 223 431 C220.59425633 435.13102087 219.23202499 439.39611713 218 444 C218.804375 444.928125 219.60875 445.85625 220.4375 446.8125 C223.42670958 450.26158798 224.17896486 453.22386161 224.3125 457.75 C224.34988281 458.56984375 224.38726562 459.3896875 224.42578125 460.234375 C223.08199154 468.96284397 215.64480328 474.83779674 209.6875 480.75 C208.75280965 481.70399074 207.8185615 482.65841495 206.88476562 483.61328125 C201.53066326 488.96357828 197.38256307 493.03511172 189.77734375 494.3984375 C184.3501029 494.32930067 180.28860458 493.2028489 176.33203125 489.39453125 C175.89246094 488.93433594 175.45289063 488.47414063 175 488 C174.41992188 488.20496094 173.83984375 488.40992188 173.2421875 488.62109375 C168.8378016 490.14009813 164.64322223 491.4047151 160 492 C160.0825 493.155 160.165 494.31 160.25 495.5 C160.2247242 500.25184969 159.08266147 504.32243895 156 508 C150.51534021 511.76469166 146.57477842 512.59799022 139.99609375 512.53125 C139.15458267 512.5350769 138.31307159 512.53890381 137.44606018 512.54284668 C135.67699987 512.54555466 133.90789875 512.53827187 132.13891602 512.52148438 C129.44130813 512.50003029 126.74635485 512.52133629 124.04882812 512.546875 C122.32291083 512.54423205 120.59699518 512.53910774 118.87109375 512.53125 C118.07094345 512.53934692 117.27079315 512.54744385 116.44639587 512.55578613 C111.1729069 512.46803891 108.20569644 511.44733116 104 508 C99.06556181 502.66547223 98.86279275 499.13477678 99 492 C98.13375 491.896875 97.2675 491.79375 96.375 491.6875 C93 491 93 491 89.875 489.3125 C88.92625 488.879375 87.9775 488.44625 87 488 C84.98673724 488.75610951 84.98673724 488.75610951 83 490 C77.5567838 493.13327991 73.34393807 495.04209206 67 494 C59.38465923 491.00001727 54.430321 486.03145432 48.75 480.25 C47.86570312 479.38117188 46.98140625 478.51234375 46.0703125 477.6171875 C35 466.47998489 35 466.47998489 35 459 C34.40904738 459.0018986 33.81809475 459.0037972 33.20923448 459.00575334 C-1.7960649 459.11758324 -36.8013336 459.20340212 -71.80677436 459.25532665 C-76.00757644 459.26158037 -80.20837815 459.26805196 -84.40917969 459.2746582 C-85.24550258 459.27596976 -86.08182548 459.27728131 -86.94349149 459.2786326 C-100.49468488 459.30040396 -114.04577248 459.33983496 -127.59690306 459.38576398 C-141.4960683 459.43248057 -155.39517804 459.46028522 -169.29441857 459.47044247 C-177.8747619 459.47731163 -186.45480625 459.49902618 -195.03505757 459.53958233 C-200.9145838 459.56596155 -206.79395489 459.574012 -212.67353603 459.56750689 C-216.06858353 459.56429638 -219.46310771 459.56930289 -222.85806274 459.59602737 C-226.53549793 459.6207709 -230.21163621 459.61497193 -233.88909912 459.60127258 C-234.96691328 459.61583679 -236.04472744 459.630401 -237.15520263 459.64540654 C-244.33125269 459.57275503 -244.33125269 459.57275503 -247.69833755 456.68898296 C-249.47505147 453.0186355 -249.07858838 450.88291816 -248 447 C-246.7878418 445.30737305 -246.7878418 445.30737305 -245 444 C-242.45629883 443.65942383 -242.45629883 443.65942383 -239.45703125 443.70703125 C-238.38388672 443.71669922 -237.31074219 443.72636719 -236.20507812 443.73632812 C-235.08552734 443.76146484 -233.96597656 443.78660156 -232.8125 443.8125 C-231.68134766 443.82603516 -230.55019531 443.83957031 -229.38476562 443.85351562 C-226.58936683 443.88890042 -223.79492108 443.93827052 -221 444 C-221.00276538 443.39039303 -221.00553076 442.78078606 -221.00837994 442.15270615 C-221.07462333 427.32191271 -221.12427255 412.49113355 -221.15543652 397.66022873 C-221.17090764 390.48811277 -221.19200173 383.31609555 -221.22631836 376.14404297 C-221.25621334 369.89311986 -221.27557322 363.64226825 -221.28226548 357.39127564 C-221.28617763 354.0811601 -221.29694738 350.77129691 -221.31719017 347.46123505 C-221.33889068 343.76667529 -221.34196995 340.07254267 -221.34057617 336.37792969 C-221.351362 335.27957291 -221.36214783 334.18121613 -221.3732605 333.04957581 C-221.36913651 332.04279282 -221.36501251 331.03600983 -221.36076355 329.99871826 C-221.36352893 329.12485851 -221.36629431 328.25099876 -221.36914349 327.35065842 C-220.91346895 324.44898136 -220.03678898 323.09693304 -218 321 C-214.57109774 320.12718851 -212.10740423 319.67077171 -208.6875 320.6875 C-206.61291348 322.30106729 -205.99184979 323.57041905 -205 326 C-204.75390434 328.33504105 -204.75390434 328.33504105 -204.75949097 330.96075439 C-204.75674164 331.95912323 -204.75399231 332.95749207 -204.75115967 333.9861145 C-204.75835022 335.07512054 -204.76554077 336.16412659 -204.77294922 337.28613281 C-204.77265717 338.43763824 -204.77236511 339.58914368 -204.77206421 340.77554321 C-204.77345847 344.58481357 -204.78902447 348.39388877 -204.8046875 352.203125 C-204.80841728 354.84299615 -204.81126442 357.48286868 -204.81326294 360.1227417 C-204.81947708 366.3629356 -204.83588698 372.60305936 -204.85596192 378.84322238 C-204.87832299 385.94836958 -204.88931487 393.05352015 -204.89935279 400.15869379 C-204.92025328 414.77250384 -204.9569287 429.38623798 -205 444 C-193.78 444 -182.56 444 -171 444 C-171.01450105 413.11123623 -171.05237187 382.22264229 -171.12685562 351.33396964 C-171.13562259 347.68895545 -171.14417235 344.04394079 -171.15258789 340.39892578 C-171.15426695 339.67325563 -171.15594602 338.94758549 -171.15767596 338.19992533 C-171.18436049 326.44324204 -171.19344208 314.6866075 -171.19604143 302.92989704 C-171.1990987 290.87031708 -171.2210191 278.81087829 -171.26052457 266.75136209 C-171.28217657 259.97602391 -171.29504866 253.20090253 -171.28615379 246.42552948 C-171.27864114 240.05282226 -171.29432341 233.68059978 -171.32806015 227.30798149 C-171.33632703 224.96501787 -171.33600416 222.62200634 -171.32659721 220.27904701 C-171.31504852 217.08753269 -171.33398274 213.89762646 -171.36076355 210.70623779 C-171.35009029 209.77238872 -171.33941703 208.83853965 -171.32842034 207.87639213 C-171.3320602 202.63993638 -171.3320602 202.63993638 -174.42813587 198.57890701 C-175.70120862 197.79734804 -175.70120862 197.79734804 -177 197 C-180.74724809 190.78185907 -180.44986313 184.61199713 -180.375 177.5 C-180.38660156 176.39785156 -180.39820313 175.29570312 -180.41015625 174.16015625 C-180.3854143 167.29014103 -180.16015901 161.67039302 -175.5 156.2578125 C-171.06984157 152.91211994 -168.18415025 151.87601848 -162.70249653 151.86577892 C-161.59722058 151.86132108 -160.49194462 151.85686324 -159.35317546 151.85227031 C-158.13394033 151.85245467 -156.91470521 151.85263903 -155.65852356 151.85282898 C-153.72141629 151.84731395 -153.72141629 151.84731395 -151.74517554 151.8416875 C-148.15309805 151.8316632 -144.56103727 151.82795002 -140.96894777 151.82529819 C-137.09763845 151.82139641 -133.22634237 151.81181798 -129.3550415 151.80308533 C-120.00207849 151.78331729 -110.64911438 151.77325425 -101.29613569 151.76435754 C-96.89248317 151.75997517 -92.48883185 151.75460823 -88.08518028 151.74936867 C-73.44782288 151.73235601 -58.81046624 151.71786162 -44.17310047 151.71061993 C-40.37410799 151.70871001 -36.57511551 151.70678968 -32.77612305 151.70483398 C-31.3597782 151.70410837 -31.3597782 151.70410837 -29.91482034 151.7033681 C-14.61734329 151.69506699 0.68005559 151.66972887 15.97749849 151.63725331 C31.680286 151.60418879 47.38303376 151.58617171 63.08585626 151.58297569 C71.90353607 151.58081002 80.72110189 151.57205311 89.53874779 151.54651451 C97.04798729 151.52481581 104.5570851 151.51675298 112.06635239 151.52648129 C115.89725419 151.53102844 119.72786359 151.52911598 123.55872536 151.50971985 C127.71389142 151.48886357 131.86840804 151.49906553 136.02360535 151.51225281 C137.83572763 151.49579894 137.83572763 151.49579894 139.68445843 151.47901267 C146.59267273 151.53201979 151.14549982 152.23717055 157 156 C162.34078349 162.20138367 161.56317359 169.20181965 161.4375 177.0625 C161.44458984 178.31611328 161.45167969 179.56972656 161.45898438 180.86132812 C161.38473462 191.60469692 161.38473462 191.60469692 158 197 C157.15184723 197.5450116 156.30369446 198.09002319 155.42984009 198.65155029 C152.56727998 201.41822554 152.39371405 203.10081327 152.31124878 207.0045166 C152.32407394 208.20074646 152.32407394 208.20074646 152.3371582 209.42114258 C152.32679031 210.26879684 152.31642242 211.11645111 152.30574036 211.98979187 C152.27863813 214.79186442 152.28834071 217.59237477 152.30078125 220.39453125 C152.29487245 222.34503109 152.28762578 224.2955273 152.27909851 226.24601746 C152.26721106 230.33583453 152.27393528 234.42510769 152.29321289 238.51489258 C152.31606016 243.74752579 152.28936965 248.97853088 152.24815083 254.2110033 C152.22252669 258.24064608 152.22516596 262.269902 152.23604393 266.29959679 C152.23752791 268.22804934 152.22987201 270.15653194 152.21279335 272.08490944 C152.1927474 274.78782162 152.21127466 277.48789094 152.23950195 280.19067383 C152.22578552 280.98208771 152.21206909 281.77350159 152.19793701 282.58889771 C152.31069414 288.01250458 153.77362139 290.66407191 157.61658001 294.48548412 C160.87513423 298.05282603 160.07383833 302.49586162 160 307 C160.86625 307.103125 161.7325 307.20625 162.625 307.3125 C166 308 166 308 169.125 309.625 C171.77934682 311.16446891 171.77934682 311.16446891 174.0625 310.9375 C176.20019602 309.99168605 176.20019602 309.99168605 178.5 308 C180.91067569 306.07145944 182.08519923 305.59284084 185 305 C185.58563136 283.76470713 186.02561947 262.53075557 186.2953043 241.28900909 C186.42389478 231.4241296 186.59894379 221.56428303 186.88598633 211.70263672 C187.13625227 203.10034079 187.29668992 194.50168859 187.35221237 185.89585352 C187.38465344 181.34231125 187.45999481 176.79918428 187.64325142 172.24900818 C189.03382465 153.64350166 189.03382465 153.64350166 182.58802414 136.95236206 C176.73108817 131.80681174 170.23595198 128.47380923 163.11063957 125.41725159 C158.4010853 123.27151175 154.25120207 120.42601713 150 117.5 C148.38415626 116.44126337 146.7659508 115.38611505 145.14453125 114.3359375 C144.31904785 113.79936523 143.49356445 113.26279297 142.64306641 112.70996094 C137.67157754 109.49360143 132.67818618 106.31145527 127.6875 103.125 C118.64733323 97.35209741 109.647217 91.52174218 100.67138672 85.64941406 C92.52930979 80.32934665 84.33988611 75.08526327 76.14257812 69.85083008 C67.16044388 64.11201025 58.22079014 58.30979712 49.29052734 52.49072266 C45.63558544 50.11201073 41.97439132 47.74299493 38.3125 45.375 C37.27706055 44.70537231 37.27706055 44.70537231 36.22070312 44.0222168 C34.83939311 43.1290108 33.4580456 42.23586278 32.07666016 41.34277344 C28.55051684 39.06276071 25.02531172 36.78129823 21.5 34.5 C20.10547312 33.59764949 18.71094186 32.69530576 17.31640625 31.79296875 C10.2109375 27.1953125 3.10546875 22.59765625 -4 18 C-11.86990041 22.18164187 -19.49477099 26.67136535 -27.0625 31.375 C-28.19707616 32.07712917 -29.33184637 32.77894486 -30.46679688 33.48046875 C-32.81471062 34.93206762 -35.16180055 36.38498458 -37.50830078 37.83886719 C-42.99776063 41.23852781 -48.49962349 44.61804277 -54 48 C-56.16672261 49.33324242 -58.33338915 50.66657596 -60.5 52 C-151.5 108 -151.5 108 -154.75488281 110.00292969 C-156.90536299 111.32635189 -159.05575471 112.64991784 -161.20605469 113.97363281 C-166.26491598 117.08760543 -171.32464092 120.20014636 -176.38757324 123.30749512 C-178.7689892 124.76920064 -181.14989446 126.23173689 -183.53076172 127.69433594 C-185.20360508 128.72151212 -186.87718285 129.74749197 -188.55078125 130.7734375 C-194.64768129 134.50867486 -194.64768129 134.50867486 -200.609375 138.453125 C-203 140 -203 140 -205 140 C-204.99815641 140.80029507 -204.99631283 141.60059013 -204.99441338 142.42513657 C-204.95026724 161.88753929 -204.91715946 181.34993203 -204.89637566 200.81237411 C-204.88605793 210.22421821 -204.8719881 219.6360289 -204.84912109 229.04785156 C-204.82920243 237.2500696 -204.81628718 245.45226346 -204.81182301 253.65450501 C-204.80921305 257.99853906 -204.80306818 262.34250391 -204.78853989 266.68651581 C-204.77498004 270.77401772 -204.77077412 274.86142183 -204.77378464 278.94894409 C-204.77323376 280.45017274 -204.76924679 281.95140461 -204.76158905 283.45261383 C-204.75165337 285.50059146 -204.75521922 287.54862138 -204.75949097 289.59661865 C-204.75764738 290.74332912 -204.75580379 291.8900396 -204.75390434 293.07149887 C-204.99654117 295.95884048 -205.43756019 297.59019315 -207 300 C-209.67633026 302.0815902 -211.11753668 301.99587591 -214.5625 301.875 C-218 301 -218 301 -219.69061375 299.36240292 C-221.43552429 296.21422434 -221.38039504 293.92187883 -221.38768005 290.32655334 C-221.39306559 289.65696089 -221.39845113 288.98736843 -221.40399987 288.29748529 C-221.41830135 286.0549885 -221.41117068 283.81308019 -221.40405273 281.57055664 C-221.40975519 279.96233139 -221.41671897 278.35411019 -221.42485046 276.74589539 C-221.44281106 272.37810899 -221.44160804 268.01052317 -221.43590808 263.64271092 C-221.43282035 259.99699021 -221.43890406 256.35130825 -221.44494683 252.70559305 C-221.45900003 244.10520966 -221.45742422 235.50492558 -221.44604492 226.90454102 C-221.43456312 218.0305654 -221.44863854 209.15689197 -221.4754414 200.28295618 C-221.49758958 192.66500438 -221.50423776 185.0471475 -221.49836498 177.42916578 C-221.49499205 172.87887712 -221.49743268 168.32878219 -221.51461601 163.77852058 C-221.53006905 159.49959231 -221.52614808 155.22111208 -221.50731087 150.94220161 C-221.50362038 149.37205593 -221.50674688 147.80187718 -221.51719666 146.23176193 C-221.53037795 144.08746681 -221.51888701 141.94466128 -221.50120544 139.8004303 C-221.50099616 138.60084214 -221.50078688 137.40125399 -221.50057125 136.16531467 C-220.89947044 132.36431091 -219.64986768 130.73637463 -217 128 C-214.82788086 126.42944336 -214.82788086 126.42944336 -212.46484375 125.08984375 C-211.58320557 124.58138916 -210.70156738 124.07293457 -209.79321289 123.54907227 C-208.85082764 123.01725342 -207.90844238 122.48543457 -206.9375 121.9375 C-204.93351617 120.7810333 -202.93093399 119.62213469 -200.9296875 118.4609375 C-199.92776367 117.88053711 -198.92583984 117.30013672 -197.89355469 116.70214844 C-193.72271769 114.24863211 -189.63829111 111.66995562 -185.5625 109.0625 C-178.69754142 104.68270563 -171.77778429 100.40594474 -164.8125 96.1875 C-156.83490411 91.35415305 -148.90079962 86.45788002 -141 81.5 C-132.18488647 75.96983109 -123.32397263 70.52186173 -114.42700195 65.12451172 C-107.29817081 60.7976201 -100.19963319 56.42411449 -93.11328125 52.02807617 C-86.1887319 47.73312702 -79.25296084 43.45668625 -72.3125 39.1875 C-71.22235596 38.51678467 -70.13221191 37.84606934 -69.0090332 37.1550293 C-63.47740202 33.75222938 -57.94448894 30.35152932 -52.41015625 26.953125 C-50.78811279 25.95599487 -50.78811279 25.95599487 -49.13330078 24.9387207 C-46.97301745 23.611893 -44.81124742 22.28748263 -42.64794922 20.96557617 C-37.16284059 17.60477021 -31.72722731 14.18780859 -26.34765625 10.66015625 C-24.73238037 9.61323608 -24.73238037 9.61323608 -23.08447266 8.54516602 C-21.04567031 7.22018174 -19.01718206 5.87913359 -17.00146484 4.51928711 C-11.36674765 0.87849166 -6.78361857 -1.60151784 0 0 Z M-164 168 C-164 173.94 -164 179.88 -164 186 C-162.21736755 186.00808685 -160.43473511 186.01617371 -158.5980835 186.02450562 C-141.82285762 186.10189012 -125.04771278 186.18949156 -108.27259445 186.28752708 C-99.64773078 186.3376685 -91.0228767 186.38411124 -82.39794922 186.421875 C-74.88126979 186.45479571 -67.36466436 186.49462736 -59.84806657 186.54279006 C-55.86735998 186.56805428 -51.88670248 186.58983578 -47.90593719 186.60334396 C-44.15981684 186.61616504 -40.41386482 186.63821987 -36.66783714 186.66738319 C-35.29241187 186.67645862 -33.91695948 186.68214913 -32.54150581 186.68421364 C-30.6642493 186.68753624 -28.78703047 186.70418991 -26.90985107 186.7215271 C-25.85900707 186.72705786 -24.80816307 186.73258862 -23.72547531 186.73828697 C-20.95805069 187.00402817 -19.31438212 187.48600369 -17 189 C-15.47508002 192.04983996 -15.76437452 194.6423369 -16 198 C-17.17038441 199.69773579 -17.17038441 199.69773579 -19 201 C-21.49310589 201.38476086 -21.49310589 201.38476086 -24.52384949 201.39872742 C-25.66991008 201.41125644 -26.81597067 201.42378546 -27.99676037 201.43669415 C-29.26006333 201.43526818 -30.5233663 201.43384222 -31.82495117 201.43237305 C-33.18699954 201.44147593 -34.54903968 201.45188828 -35.91106892 201.46350574 C-39.56154664 201.49102033 -43.21186616 201.50059037 -46.86243439 201.50647736 C-50.28683354 201.51470865 -53.71104314 201.53907758 -57.13537598 201.56213379 C-67.15266976 201.62015859 -77.17010022 201.65224072 -87.1875 201.6875 C-109.565625 201.790625 -131.94375 201.89375 -155 202 C-155 281.86 -155 361.72 -155 444 C-144.11 444 -133.22 444 -122 444 C-121.9906543 441.20893799 -121.98130859 438.41787598 -121.97167969 435.54223633 C-121.93791709 426.32201583 -121.88237214 417.10201932 -121.81609726 407.88197803 C-121.77658304 402.29166805 -121.74441382 396.70151651 -121.72900391 391.11108398 C-121.71386345 385.71628386 -121.67946402 380.32191925 -121.63169098 374.92731285 C-121.61685028 372.86887077 -121.60895745 370.81036652 -121.60811615 368.75187111 C-121.60575286 365.86902015 -121.57872442 362.987379 -121.54589844 360.10473633 C-121.55344398 358.82727287 -121.55344398 358.82727287 -121.56114197 357.52400208 C-121.49003592 353.48956395 -121.30459848 351.4796922 -119.09088135 347.99345398 C-116.07838328 345.12132722 -114.42058943 344.86896368 -110.36669922 344.79467773 C-109.40585419 344.77473251 -108.44500916 344.75478729 -107.45504761 344.73423767 C-106.41542877 344.71752518 -105.37580994 344.70081268 -104.3046875 344.68359375 C-103.24210724 344.66281265 -102.17952698 344.64203156 -101.08474731 344.62062073 C-97.68156562 344.55509739 -94.27830511 344.49622727 -90.875 344.4375 C-88.57160634 344.39431743 -86.26822074 344.35070323 -83.96484375 344.30664062 C-78.30997979 344.19941318 -72.65503697 344.09765198 -67 344 C-66.99857498 342.84599197 -66.99714996 341.69198395 -66.99568176 340.50300598 C-66.97901445 329.6291391 -66.93624884 318.75564657 -66.86790943 307.88197803 C-66.83361426 302.29162541 -66.80852548 296.7015468 -66.80444336 291.11108398 C-66.8001659 285.71622317 -66.77174855 280.32198077 -66.72656822 274.92731285 C-66.71357562 272.86886891 -66.70929175 270.81035102 -66.71384621 268.75187111 C-66.71873958 265.86881305 -66.69271572 262.98757119 -66.65942383 260.10473633 C-66.66804947 259.25309402 -66.67667511 258.40145172 -66.68556213 257.52400208 C-66.60112946 253.16420604 -66.40979385 251.50991513 -63.58378601 247.99345398 C-60.27174673 245.43813483 -58.74495715 244.87485231 -54.65507507 244.85955811 C-53.28607559 244.85099289 -53.28607559 244.85099289 -51.88941956 244.84225464 C-50.88523483 244.84113678 -49.88105011 244.84001892 -48.84643555 244.83886719 C-47.79103577 244.83390228 -46.73563599 244.82893738 -45.64825439 244.82382202 C-42.14440263 244.80917452 -38.64059615 244.80239394 -35.13671875 244.796875 C-32.70774839 244.79112551 -30.27877806 244.78536776 -27.84980774 244.77960205 C-22.75118803 244.76908458 -17.65258412 244.76324685 -12.55395508 244.75976562 C-6.01672495 244.75428052 0.52029694 244.73025507 7.05746174 244.70179367 C12.07686475 244.68318089 17.09621748 244.6779624 22.11565208 244.67642975 C24.52582118 244.67339943 26.93598932 244.66535822 29.34612465 244.65224457 C32.71699538 244.6352135 36.0873558 244.63705742 39.45825195 244.64355469 C40.45636398 244.6343399 41.45447601 244.62512512 42.48283386 244.6156311 C51.20863871 244.66838757 51.20863871 244.66838757 55 248 C57.25168009 251.17154364 57.26983458 254.04709718 57.31884766 257.87011719 C57.34865219 259.64150055 57.34865219 259.64150055 57.37905884 261.44866943 C57.39638565 263.35353119 57.39638565 263.35353119 57.4140625 265.296875 C57.44311172 267.25273529 57.44311172 267.25273529 57.4727478 269.24810791 C57.52401083 272.70693936 57.56366744 276.16580966 57.60089111 279.62481689 C57.64096753 283.15752732 57.69204322 286.69007693 57.7421875 290.22265625 C57.83887755 297.14831991 57.92330435 304.07408685 58 311 C58.928125 310.360625 59.85625 309.72125 60.8125 309.0625 C65.49201622 306.03457774 69.50941419 305.4072663 75 306 C78.13476567 307.24207696 80.31345777 308.23107271 82.5625 310.75 C83.036875 311.1625 83.51125 311.575 84 312 C86.35906099 311.69050905 86.35906099 311.69050905 89 311 C89.85980469 310.79503906 90.71960938 310.59007812 91.60546875 310.37890625 C94.37943118 309.50181374 96.59934087 308.65667107 99 307 C100.06357603 304.44829289 100.36532157 302.21502262 100.66015625 299.47265625 C101.15510219 295.87149786 102.66875956 293.73088165 105 291 C110 288 110 288 136 287 C136 258.95 136 230.9 136 202 C126.79480469 201.96261719 117.58960938 201.92523438 108.10546875 201.88671875 C102.28579203 201.85645518 96.4661355 201.82544067 90.64648438 201.79101562 C81.40228068 201.73647384 72.15813312 201.68506371 62.91381836 201.65356445 C56.18195255 201.63061207 49.45023335 201.59724524 42.71848375 201.55129844 C39.15305635 201.52732868 35.58777447 201.50862464 32.0222683 201.50238609 C28.04487519 201.49523195 24.0678474 201.4648297 20.09057617 201.43237305 C18.90446747 201.43380814 17.71835876 201.43524323 16.49630737 201.4367218 C15.41517166 201.42418365 14.33403595 201.41164551 13.22013855 201.39872742 C12.27898791 201.39411845 11.33783728 201.38950949 10.36816692 201.38476086 C8 201 8 201 6.20108509 199.68992329 C4.16066163 196.81905331 4.58370718 194.389813 5 191 C7.06035187 188.30523231 8.25314225 187.14496887 11.61615372 186.49219131 C13.11498911 186.48666056 13.11498911 186.48666056 14.644104 186.48101807 C15.79392761 186.46710526 16.94375122 186.45319244 18.12841797 186.43885803 C20.01439697 186.44640358 20.01439697 186.44640358 21.93847656 186.45410156 C23.27896321 186.44536533 24.61943943 186.43487936 25.9598999 186.42277527 C29.59599359 186.39490005 33.23174729 186.3915109 36.86793232 186.39249516 C40.66901082 186.38936732 44.46993588 186.36375187 48.27093506 186.34051514 C55.46732436 186.29994153 62.66362302 186.27961128 69.86010909 186.26654124 C78.05359767 186.25067576 86.2469319 186.2122621 94.44033098 186.17194796 C111.29351186 186.08953042 128.14665884 186.03624977 145 186 C145 180.06 145 174.12 145 168 C43.03 168 -58.94 168 -164 168 Z M-52 260 C-52 287.72 -52 315.44 -52 344 C-23.29 344 5.42 344 35 344 C35.66 340.7 36.32 337.4 37 334 C37.8561792 333.12263184 38.7123584 332.24526367 39.59448242 331.34130859 C44.09357707 326.58949296 42.59908117 318.66856751 42.48828125 312.5390625 C42.47894695 311.02307301 42.47183375 309.50706836 42.46684265 307.99105835 C42.44782083 304.01554162 42.39876353 300.04094929 42.34332275 296.0657959 C42.29202504 292.00362653 42.2693063 287.94130668 42.24414062 283.87890625 C42.19063808 275.91880091 42.10274355 267.95962222 42 260 C33.42 260 24.84 260 16 260 C15.97421875 262.20300781 15.9484375 264.40601563 15.921875 266.67578125 C15.88345603 268.81059521 15.83829586 270.94516748 15.79248047 273.07983398 C15.76426459 274.56278942 15.74305298 276.04589543 15.72900391 277.52905273 C15.7075808 279.66207997 15.66094218 281.79329606 15.609375 283.92578125 C15.58842773 285.20880127 15.56748047 286.49182129 15.54589844 287.8137207 C15 291 15 291 13.40136719 292.91723633 C10.15201656 294.38235122 7.53087654 294.38881261 3.96875 294.3984375 C3.29581909 294.40130768 2.62288818 294.40417786 1.92956543 294.40713501 C0.51081498 294.40917096 -0.90796384 294.40367382 -2.32666016 294.39111328 C-4.493154 294.37505076 -6.65778264 294.39097554 -8.82421875 294.41015625 C-10.20573327 294.40817373 -11.58724663 294.40432987 -12.96875 294.3984375 C-14.22107422 294.39505371 -15.47339844 294.39166992 -16.76367188 294.38818359 C-20.20838131 293.97500556 -21.60000656 293.45847704 -24 291 C-25.1007076 287.6978772 -25.20627072 285.05916721 -25.31640625 281.58203125 C-25.35830078 280.32841797 -25.40019531 279.07480469 -25.44335938 277.78320312 C-25.48267578 276.47287109 -25.52199219 275.16253906 -25.5625 273.8125 C-25.60570992 272.47720022 -25.649325 271.14191348 -25.69335938 269.80664062 C-25.79956434 266.53788766 -25.90029785 263.26895777 -26 260 C-34.58 260 -43.16 260 -52 260 Z M-10 260 C-10 266.27 -10 272.54 -10 279 C-6.7 279 -3.4 279 0 279 C0 272.73 0 266.46 0 260 C-3.3 260 -6.6 260 -10 260 Z M115 303 C114.67 307.29 114.34 311.58 114 316 C111.34646472 319.98030293 108.17090394 320.54855809 103.8125 321.9375 C99.38061319 323.36354511 95.21052135 324.75836851 91.1953125 327.1484375 C88.03214098 328.98137552 85.75036889 329.75686448 82.06640625 329.60546875 C77.87479326 328.37730237 74.95793386 325.08380338 72 322 C68.63664406 323.45745424 66.45465995 325.31117854 63.890625 327.9140625 C62.75947266 329.05488281 62.75947266 329.05488281 61.60546875 330.21875 C60.43951172 331.40984375 60.43951172 331.40984375 59.25 332.625 C58.45722656 333.42679687 57.66445313 334.22859375 56.84765625 335.0546875 C54.89385507 337.03202846 52.94487897 339.01388909 51 341 C51.95729916 342.12588014 52.91587895 343.2506715 53.875 344.375 C54.40867187 345.00148438 54.94234375 345.62796875 55.4921875 346.2734375 C56.61432007 347.55836651 57.79371975 348.79371975 59 350 C59.57419236 355.55052616 58.25922879 359.41208991 55.75 364.25 C53.02768326 369.74125085 50.72784611 375.18334995 48.82421875 381.0234375 C48 383 48 383 46 384 C42.62671248 384.31583446 39.25265635 384.51133762 35.87109375 384.71875 C33.10540179 384.68299798 33.10540179 384.68299798 32 386 C31.90016942 387.98757028 31.86919247 389.9786752 31.8671875 391.96875 C31.86589844 393.17917969 31.86460937 394.38960938 31.86328125 395.63671875 C31.86714844 396.91160156 31.87101562 398.18648438 31.875 399.5 C31.87113281 400.77488281 31.86726563 402.04976563 31.86328125 403.36328125 C31.86457031 404.57371094 31.86585938 405.78414063 31.8671875 407.03125 C31.86831543 408.15080078 31.86944336 409.27035156 31.87060547 410.42382812 C31.70783632 412.93141802 31.70783632 412.93141802 33 414 C36.29777168 414.2452888 39.59458409 414.38425077 42.8984375 414.5234375 C46 415 46 415 47.73046875 416.05859375 C49.68667874 419.05009026 50.77343423 422.33267928 51.9375 425.6875 C53.5246894 430.13232427 55.07698388 434.42443538 57.375 438.5625 C59.27747965 442.58697617 59.86115071 444.61596004 59 449 C56.91609806 451.93194144 54.5633506 454.48242351 52 457 C53.4264578 460.2586636 55.16704162 462.4024854 57.6953125 464.890625 C58.41074219 465.59960938 59.12617188 466.30859375 59.86328125 467.0390625 C60.98283203 468.13347656 60.98283203 468.13347656 62.125 469.25 C62.87910156 469.99507812 63.63320313 470.74015625 64.41015625 471.5078125 C66.26900772 473.3431342 68.13237005 475.1736191 70 477 C72.85401712 475.69216346 74.44596771 474.58376347 76.8125 472.375 C80.72462394 469.46008413 82.21083352 469.55148285 87 470 C89.55355752 470.99243065 91.83779112 471.99888457 94.25 473.25 C99.74125085 475.97231674 105.18334995 478.27215389 111.0234375 480.17578125 C113 481 113 481 114 483 C114.31583446 486.37328752 114.51133762 489.74734365 114.71875 493.12890625 C114.68299798 495.89459821 114.68299798 495.89459821 116 497 C117.98757028 497.09983058 119.9786752 497.13080753 121.96875 497.1328125 C123.78439453 497.13474609 123.78439453 497.13474609 125.63671875 497.13671875 C126.91160156 497.13285156 128.18648438 497.12898437 129.5 497.125 C130.77488281 497.12886719 132.04976563 497.13273438 133.36328125 497.13671875 C134.57371094 497.13542969 135.78414063 497.13414062 137.03125 497.1328125 C138.15080078 497.13168457 139.27035156 497.13055664 140.42382812 497.12939453 C142.93141802 497.29216368 142.93141802 497.29216368 144 496 C144.21035905 493.87887958 144.36850101 491.75246581 144.5 489.625 C144.71580047 486.14907092 144.8975492 483.3073524 146 480 C147.9765625 479.296875 147.9765625 479.296875 150.625 478.75 C156.39657749 477.35608116 161.37838299 475.08293122 166.60791016 472.33691406 C170.91931224 470.17134844 174.1982217 469.38279029 179 470 C181.328125 471.53125 181.328125 471.53125 183.25 473.5 C185.12844852 475.4482944 185.12844852 475.4482944 187 477 C190.04655988 477.31913114 190.04655988 477.31913114 191.99291992 475.34765625 C192.73131104 474.59355469 193.46970215 473.83945312 194.23046875 473.0625 C195.03291016 472.25039063 195.83535156 471.43828125 196.66210938 470.6015625 C197.91217773 469.31378906 197.91217773 469.31378906 199.1875 468 C200.03248047 467.14148438 200.87746094 466.28296875 201.74804688 465.3984375 C203.83888298 463.2721635 205.92241983 461.13921536 208 459 C206.23600779 455.31320874 204.10530348 452.86707672 201.2421875 449.9765625 C199.4469392 447.11997244 199.59688778 445.33076562 200 442 C201.42578125 438.703125 201.42578125 438.703125 203.3125 435.25 C205.96327058 430.27286771 208.00223066 425.49051971 209.296875 419.98828125 C210.17902972 417.49374374 210.79691827 416.49938339 213 415 C217.64464479 414.29167815 222.3098079 414.21514643 227 414 C227.02465881 410.03069011 227.04284023 406.06140966 227.05493164 402.09204102 C227.05997057 400.74079614 227.06680177 399.38955674 227.07543945 398.03833008 C227.08752419 396.09979566 227.09269828 394.161222 227.09765625 392.22265625 C227.10289307 391.05484619 227.10812988 389.88703613 227.11352539 388.68383789 C227.30661495 386.08108449 227.30661495 386.08108449 226 385 C222.70222832 384.7547112 219.40541591 384.61574923 216.1015625 384.4765625 C212.68127158 383.95102662 212.1099757 383.57472319 210 381 C209.17211914 379.20996094 209.17211914 379.20996094 208.53515625 377.234375 C208.29216797 376.50863281 208.04917969 375.78289062 207.79882812 375.03515625 C207.55583984 374.28105469 207.31285156 373.52695312 207.0625 372.75 C205.21602592 367.04633613 203.04879119 362.16493528 200 357 C199.3125 354.0625 199.3125 354.0625 200 351 C201.70280783 348.82395525 203.50343675 346.87160416 205.46875 344.9296875 C207.41439739 342.88834412 207.41439739 342.88834412 207 339 C205.33973252 336.78664476 205.33973252 336.78664476 203.0625 334.671875 C201.84433594 333.47304688 201.84433594 333.47304688 200.6015625 332.25 C199.31378906 331.0125 199.31378906 331.0125 198 329.75 C196.71222656 328.48929687 196.71222656 328.48929687 195.3984375 327.203125 C193.27429428 325.12618496 191.14139163 323.05912777 189 321 C188.52949219 321.40992188 188.05898438 321.81984375 187.57421875 322.2421875 C186.64029297 323.05042969 186.64029297 323.05042969 185.6875 323.875 C185.07261719 324.40867187 184.45773437 324.94234375 183.82421875 325.4921875 C179.65578944 328.93761301 177.37874289 329.46868714 172 329 C169.44644248 328.00756935 167.16220888 327.00111543 164.75 325.75 C159.25874915 323.02768326 153.81665005 320.72784611 147.9765625 318.82421875 C146 318 146 318 145 316 C144.67 311.71 144.34 307.42 144 303 C134.43 303 124.86 303 115 303 Z M-106 360 C-106 387.72 -106 415.44 -106 444 C-75.31 444 -44.62 444 -13 444 C-13 416.28 -13 388.56 -13 360 C-21.25 360 -29.5 360 -38 360 C-38.07347656 362.83658203 -38.07347656 362.83658203 -38.1484375 365.73046875 C-38.22347725 368.2161604 -38.29902456 370.70183677 -38.375 373.1875 C-38.4059375 374.43337891 -38.436875 375.67925781 -38.46875 376.96289062 C-38.50742188 378.16494141 -38.54609375 379.36699219 -38.5859375 380.60546875 C-38.63306885 382.26292114 -38.63306885 382.26292114 -38.68115234 383.95385742 C-39.00480274 387.04588342 -39.56408047 389.24917897 -41 392 C-45.8633494 395.24223293 -51.56016558 394.33301482 -57.2512207 394.31567383 C-59.42645464 394.31251603 -61.60032502 394.33597082 -63.77539062 394.36132812 C-65.16145662 394.3636015 -66.54752627 394.36430444 -67.93359375 394.36328125 C-69.19228271 394.36626221 -70.45097168 394.36924316 -71.74780273 394.37231445 C-75.22403228 393.97435258 -76.62366462 393.53239536 -79 391 C-80.33356311 387.72383092 -80.2007382 384.20621465 -80.31640625 380.703125 C-80.35830078 379.49785156 -80.40019531 378.29257812 -80.44335938 377.05078125 C-80.48267578 375.79652344 -80.52199219 374.54226563 -80.5625 373.25 C-80.60568359 371.98027344 -80.64886719 370.71054687 -80.69335938 369.40234375 C-80.79939655 366.2683562 -80.90019848 363.13419232 -81 360 C-89.25 360 -97.5 360 -106 360 Z M-65 360 C-65 366.27 -65 372.54 -65 379 C-61.37 379 -57.74 379 -54 379 C-54 372.73 -54 366.46 -54 360 C-57.63 360 -61.26 360 -65 360 Z M3 360 C3 387.72 3 415.44 3 444 C15.87 444 28.74 444 42 444 C40.35 439.38 38.7 434.76 37 430 C35.329375 429.79375 33.65875 429.5875 31.9375 429.375 C26.43617146 428.36122425 22.26922924 426.69892133 19 422 C16.7149729 415.19520814 16.66198011 408.74879521 16.68432617 401.66674805 C16.6874873 399.57092283 16.66397396 397.47651089 16.63867188 395.38085938 C16.59759054 386.83110766 16.66157162 379.83919264 22.5 373.125 C26.68783379 369.96818113 31.92697303 369.60479147 37 369 C37.99 366.03 38.98 363.06 40 360 C27.79 360 15.58 360 3 360 Z " fill="#F2F2F2" transform="translate(259,0)"/>
<path d="M0 0 C9.04813192 9.09592135 14.22651039 20.39932738 14.53125 33.23046875 C14.40981274 45.17179891 10.27220872 56.50306631 2.25390625 65.4140625 C-6.83570696 74.10918978 -18.06811407 79.04512948 -30.59375 79.54296875 C-42.34329086 79.25150727 -54.4236859 75.0563299 -63.125 67.01171875 C-73.03850484 56.35002487 -76.89698506 44.68081761 -76.78125 30.23046875 C-75.99835185 17.80404278 -70.36077467 7.77291387 -61.36328125 -0.64453125 C-57.73277818 -3.6324188 -54.0698962 -5.86260145 -49.78125 -7.76953125 C-49.10191406 -8.07503906 -48.42257812 -8.38054687 -47.72265625 -8.6953125 C-31.60853162 -15.32314933 -12.97982476 -11.2309198 0 0 Z M-53.46875 15.04296875 C-58.76864912 21.39582796 -60.9662484 27.99187338 -60.78125 36.23046875 C-59.44392575 44.69586109 -55.32191482 52.74020292 -48.53125 58.10546875 C-41.60107309 62.53648894 -33.51713887 64.29515715 -25.4453125 62.796875 C-17.16503221 60.74591327 -10.59257199 56.38147262 -5.84375 49.23046875 C-1.79139048 41.95019527 -0.46197424 34.55254711 -2.46875 26.45703125 C-5.42946746 17.45151565 -9.16974271 12.38997847 -17.53125 7.85546875 C-30.92877494 1.68599121 -43.35175049 4.12504012 -53.46875 15.04296875 Z " fill="#F2F2F2" transform="translate(419.78125,365.76953125)"/>
<path d="M0 0 C0.69371201 0.00091644 1.38742401 0.00183289 2.10215759 0.0027771 C3.56207157 0.00879465 5.02197426 0.02448529 6.48168945 0.04931641 C8.71156458 0.08588373 10.93977776 0.09033503 13.16992188 0.08984375 C25.21124914 0.17305511 25.21124914 0.17305511 28.65234375 2.4609375 C30.73393395 5.13726776 30.64821966 6.57847418 30.52734375 10.0234375 C29.65234375 13.4609375 29.65234375 13.4609375 28.078125 15.14868164 C24.74721685 16.9505769 21.65997139 16.90979842 17.96484375 16.89453125 C16.85556519 16.90239403 16.85556519 16.90239403 15.72387695 16.91041565 C14.16391249 16.91682497 12.60389962 16.91551292 11.04394531 16.90698242 C8.65993144 16.89846461 6.27830898 16.92725642 3.89453125 16.95898438 C2.3763028 16.9605964 0.85807012 16.96001883 -0.66015625 16.95703125 C-1.37067139 16.96826523 -2.08118652 16.97949921 -2.81323242 16.99107361 C-6.25698696 16.94267504 -8.04118179 16.69984375 -10.79272461 14.55493164 C-12.46922639 12.29722151 -12.91558466 11.24028419 -12.91015625 8.4609375 C-12.93207031 7.8009375 -12.95398438 7.1409375 -12.9765625 6.4609375 C-11.07523012 0.41446435 -5.49821346 -0.0350533 0 0 Z " fill="#F2F2F2" transform="translate(245.34765625,104.5390625)"/>
<path d="M0 0 C0.69371201 0.00091644 1.38742401 0.00183289 2.10215759 0.0027771 C3.56207157 0.00879465 5.02197426 0.02448529 6.48168945 0.04931641 C8.71156458 0.08588373 10.93977776 0.09033503 13.16992188 0.08984375 C25.21124914 0.17305511 25.21124914 0.17305511 28.65234375 2.4609375 C30.73393395 5.13726776 30.64821966 6.57847418 30.52734375 10.0234375 C29.65234375 13.4609375 29.65234375 13.4609375 28.078125 15.14868164 C24.74721685 16.9505769 21.65997139 16.90979842 17.96484375 16.89453125 C16.85556519 16.90239403 16.85556519 16.90239403 15.72387695 16.91041565 C14.16391249 16.91682497 12.60389962 16.91551292 11.04394531 16.90698242 C8.65993144 16.89846461 6.27830898 16.92725642 3.89453125 16.95898438 C2.3763028 16.9605964 0.85807012 16.96001883 -0.66015625 16.95703125 C-1.37067139 16.96826523 -2.08118652 16.97949921 -2.81323242 16.99107361 C-6.25698696 16.94267504 -8.04118179 16.69984375 -10.79272461 14.55493164 C-12.46922639 12.29722151 -12.91558466 11.24028419 -12.91015625 8.4609375 C-12.93207031 7.8009375 -12.95398438 7.1409375 -12.9765625 6.4609375 C-11.07523012 0.41446435 -5.49821346 -0.0350533 0 0 Z " fill="#F2F2F2" transform="translate(245.34765625,74.5390625)"/>
</svg>
