<?xml version="1.0" encoding="UTF-8"?>
<svg version="1.1" xmlns="http://www.w3.org/2000/svg" width="512" height="512">
<path d="M0 0 C89.76 0 179.52 0 272 0 C272 31.68 272 63.36 272 96 C182.24 96 92.48 96 0 96 C0 64.32 0 32.64 0 0 Z M160 16 C159.92578398 23.86537618 159.87136563 31.73054802 159.83520508 39.59619141 C159.82182449 42.27149721 159.79966615 44.94632149 159.77368164 47.62158203 C159.73724916 51.46913751 159.72026172 55.31636586 159.70703125 59.1640625 C159.69154739 60.35802643 159.67606354 61.55199036 159.66011047 62.78213501 C159.52479946 70.88300162 159.52479946 70.88300162 163 78 C166.55303782 80.07915475 169.67602003 80.23875914 173.73828125 80.1953125 C174.80498047 80.18886719 175.87167969 80.18242188 176.97070312 80.17578125 C178.07349609 80.15902344 179.17628906 80.14226562 180.3125 80.125 C181.43462891 80.11597656 182.55675781 80.10695313 183.71289062 80.09765625 C186.47535217 80.07414594 189.2377036 80.03827662 192 80 C192 74.72 192 69.44 192 64 C186.72 64 181.44 64 176 64 C176 48.16 176 32.32 176 16 C170.72 16 165.44 16 160 16 Z M208 16 C207.92578398 23.86537618 207.87136563 31.73054802 207.83520508 39.59619141 C207.82182449 42.27149721 207.79966615 44.94632149 207.77368164 47.62158203 C207.73724916 51.46913751 207.72026172 55.31636586 207.70703125 59.1640625 C207.69154739 60.35802643 207.67606354 61.55199036 207.66011047 62.78213501 C207.52479946 70.88300162 207.52479946 70.88300162 211 78 C214.55303782 80.07915475 217.67602003 80.23875914 221.73828125 80.1953125 C222.80498047 80.18886719 223.87167969 80.18242188 224.97070312 80.17578125 C226.07349609 80.15902344 227.17628906 80.14226562 228.3125 80.125 C229.43462891 80.11597656 230.55675781 80.10695313 231.71289062 80.09765625 C234.47535217 80.07414594 237.2377036 80.03827662 240 80 C240 74.72 240 69.44 240 64 C234.72 64 229.44 64 224 64 C224 48.16 224 32.32 224 16 C218.72 16 213.44 16 208 16 Z M34.6875 18.8125 C31.97037115 22.33470406 31.87679529 25.17390369 31.88647461 29.48120117 C31.88655014 30.60213669 31.88662567 31.7230722 31.88670349 32.87797546 C31.89186478 34.08742325 31.89702606 35.29687103 31.90234375 36.54296875 C31.9037587 37.78170242 31.90517365 39.0204361 31.90663147 40.29670715 C31.91128398 43.58631537 31.9202661 46.8758746 31.93133545 50.16546631 C31.94157371 53.52371623 31.94613426 56.88197333 31.95117188 60.24023438 C31.96220855 66.8268446 31.9794771 73.41341278 32 80 C37.28 80 42.56 80 48 80 C48.33 73.07 48.66 66.14 49 59 C50.32 60.32 51.64 61.64 53 63 C56 63.66666667 56 63.66666667 59 63 C60.32 61.68 61.64 60.36 63 59 C63.33 65.93 63.66 72.86 64 80 C69.28 80 74.56 80 80 80 C80.07421602 72.13462382 80.12863437 64.26945198 80.16479492 56.40380859 C80.17817551 53.72850279 80.20033385 51.05367851 80.22631836 48.37841797 C80.26275084 44.53086249 80.27973828 40.68363414 80.29296875 36.8359375 C80.30845261 35.64197357 80.32393646 34.44800964 80.33988953 33.21786499 C80.40111966 25.17077353 80.40111966 25.17077353 77 18 C74.15916359 16.57958179 72.14522722 16.68547728 69 17 C64.88602956 20.22288778 62.97200771 24.52462108 60.75 29.125 C60.38648438 29.85332031 60.02296875 30.58164062 59.6484375 31.33203125 C57.69184601 34.9919849 57.69184601 34.9919849 57 39 C56.34 39 55.68 39 55 39 C54.92652344 38.34515625 54.85304688 37.6903125 54.77734375 37.015625 C53.70484448 32.85497457 51.69325015 29.45797209 49.5625 25.75 C49.15451172 25.0178125 48.74652344 24.285625 48.32617188 23.53125 C46.33070174 19.60389479 46.33070174 19.60389479 43 17 C39.31987667 16.5999866 37.6510711 16.48970103 34.6875 18.8125 Z M100.18359375 27.30859375 C95.59777236 33.86192927 95.85539176 41.65825727 95.90234375 49.3359375 C95.9037587 50.21528961 95.90517365 51.09464172 95.90663147 52.00064087 C95.91220123 54.79212942 95.9247481 57.58353594 95.9375 60.375 C95.94251891 62.27473842 95.94708113 64.1744781 95.95117188 66.07421875 C95.96216075 70.71617714 95.97940443 75.35807469 96 80 C101.28 80 106.56 80 112 80 C112 74.72 112 69.44 112 64 C117.28 64 122.56 64 128 64 C128 69.28 128 74.56 128 80 C133.28 80 138.56 80 144 80 C144.0497499 74.46819339 144.08588418 68.93651948 144.10986328 63.40454102 C144.11986873 61.52593718 144.13347733 59.64734871 144.15087891 57.76879883 C144.1753688 55.05546252 144.1865379 52.34233362 144.1953125 49.62890625 C144.20563507 48.80040665 144.21595764 47.97190704 144.22659302 47.11830139 C144.22814076 38.92014709 143.34712743 31.50326309 138 25 C132.40972962 19.44966012 127.74934992 16.72663347 119.6875 16.5625 C110.67851746 16.72519043 105.67681848 20.41601096 100.18359375 27.30859375 Z " fill="#F7F7F7" transform="translate(200,24)"/>
<path d="M0 0 C89.76 0 179.52 0 272 0 C272 68.64 272 137.28 272 208 C208.64 208 145.28 208 80 208 C80 202.72 80 197.44 80 192 C81.18553467 191.98018066 82.37106934 191.96036133 83.5925293 191.93994141 C88.00029367 191.86374211 92.4077341 191.77504677 96.81518555 191.68261719 C98.72104486 191.64438661 100.62697487 191.60952345 102.53295898 191.578125 C105.27613553 191.53234578 108.01882788 191.4743727 110.76171875 191.4140625 C112.03543587 191.39673569 112.03543587 191.39673569 113.33488464 191.37905884 C119.44001869 191.28521933 119.44001869 191.28521933 125 189 C126.96319485 185.14581928 127.25264362 181.92670749 127.25878906 177.63671875 C127.26824554 175.73950073 127.26824554 175.73950073 127.27789307 173.80395508 C127.27431304 172.43180196 127.27021102 171.05965012 127.265625 169.6875 C127.26697336 168.27172784 127.26891533 166.85595613 127.27142334 165.44018555 C127.27436654 162.47798235 127.27010292 159.51590005 127.26074219 156.55371094 C127.24934804 152.76413854 127.25591183 148.97484949 127.26788712 145.18528748 C127.27512748 142.2632841 127.27280781 139.34134747 127.26763153 136.41934204 C127.26630105 135.0223487 127.26792161 133.62534921 127.27259064 132.22836304 C127.27769141 130.27333702 127.26853359 128.31828964 127.25878906 126.36328125 C127.25719788 125.25251221 127.25560669 124.14174316 127.25396729 122.99731445 C126.9930733 119.91825128 126.39869301 117.74594019 125 115 C120.6953993 112.2951895 115.69136416 112.65299716 110.76171875 112.5859375 C109.88095169 112.56657135 109.00018463 112.5472052 108.09272766 112.5272522 C105.29108234 112.46767149 102.48939544 112.42115735 99.6875 112.375 C97.78318562 112.33680041 95.87888815 112.29774753 93.97460938 112.2578125 C89.31654428 112.16198767 84.65839832 112.0778774 80 112 C80 106.72 80 101.44 80 96 C81.778302 95.970271 81.778302 95.970271 83.5925293 95.93994141 C88.00029367 95.86374211 92.4077341 95.77504677 96.81518555 95.68261719 C98.72104486 95.64438661 100.62697487 95.60952345 102.53295898 95.578125 C105.27613553 95.53234578 108.01882788 95.4743727 110.76171875 95.4140625 C111.61086349 95.40251129 112.46000824 95.39096008 113.33488464 95.37905884 C119.44001869 95.28521933 119.44001869 95.28521933 125 93 C126.96319485 89.14581928 127.25264362 85.92670749 127.25878906 81.63671875 C127.26824554 79.73950073 127.26824554 79.73950073 127.27789307 77.80395508 C127.27431304 76.43180196 127.27021102 75.05965012 127.265625 73.6875 C127.26697336 72.27172784 127.26891533 70.85595613 127.27142334 69.44018555 C127.27436654 66.47798235 127.27010292 63.51590005 127.26074219 60.55371094 C127.24934804 56.76413854 127.25591183 52.97484949 127.26788712 49.18528748 C127.27512748 46.2632841 127.27280781 43.34134747 127.26763153 40.41934204 C127.26630105 39.0223487 127.26792161 37.62534921 127.27259064 36.22836304 C127.27769141 34.27333702 127.26853359 32.31828964 127.25878906 30.36328125 C127.25719788 29.25251221 127.25560669 28.14174316 127.25396729 26.99731445 C126.98640166 23.83951277 126.59603447 21.74224256 125 19 C121.53306993 17.27813053 118.68918453 16.74569121 114.84306335 16.7215271 C113.82649155 16.71036362 112.80991974 16.69920013 111.76254272 16.68769836 C110.65843048 16.68553818 109.55431824 16.68337799 108.41674805 16.68115234 C107.24558945 16.67110672 106.07443085 16.6610611 104.86778259 16.65071106 C100.99909961 16.61983566 97.13048597 16.60283151 93.26171875 16.5859375 C90.57842497 16.56722936 87.89514782 16.54775262 85.21186829 16.5272522 C78.87261028 16.48050607 72.53333542 16.44374187 66.19399339 16.41057932 C58.97509624 16.37232843 51.75628882 16.32292607 44.53746736 16.27259517 C29.69171144 16.16933733 14.84589761 16.08045254 0 16 C0 10.72 0 5.44 0 0 Z M146 19 C143.8078311 22.69838431 143.74297087 26.10886328 143.7253418 30.34741211 C143.71580978 31.60899643 143.70627777 32.87058075 143.69645691 34.1703949 C143.69671836 35.53937813 143.6976555 36.90836138 143.69921875 38.27734375 C143.69532834 39.69072088 143.69099296 41.10409684 143.68623352 42.51747131 C143.67878521 45.47547196 143.6790525 48.43335321 143.68432617 51.39135742 C143.6901198 55.17195568 143.67318616 58.95206387 143.6499815 62.73258114 C143.63521176 65.65034313 143.63437682 68.56798796 143.63749123 71.48578072 C143.63697967 72.87916599 143.63177302 74.2725581 143.62167931 75.66590691 C143.60927034 77.61829732 143.61807 79.57078719 143.62768555 81.52319336 C143.62705612 82.63174179 143.6264267 83.74029022 143.6257782 84.88243103 C144.06804841 88.56689803 144.96078663 90.89974666 147 94 C151.29433137 96.76718296 156.34022546 96.28873438 161.28491211 96.2746582 C162.67606483 96.2823246 162.67606483 96.2823246 164.09532166 96.29014587 C167.15606163 96.30402728 170.21657607 96.30308623 173.27734375 96.30078125 C175.40816837 96.30466886 177.53899222 96.30900366 179.66981506 96.31376648 C184.13431308 96.32122549 188.59873201 96.32093962 193.06323242 96.31567383 C198.78085923 96.30987842 204.49816218 96.32681363 210.21573544 96.3500185 C214.61582834 96.36475858 219.01584328 96.36562718 223.4159565 96.36250877 C225.52385665 96.3630218 227.63176119 96.36825613 229.73963737 96.37832069 C232.68853614 96.39067343 235.6368045 96.38390028 238.58569336 96.37231445 C239.45393738 96.37995819 240.3221814 96.38760193 241.21673584 96.39547729 C246.16765579 96.35253946 249.81847807 95.94949488 254 93 C256.1921689 89.30161569 256.25702913 85.89113672 256.2746582 81.65258789 C256.28419022 80.39100357 256.29372223 79.12941925 256.30354309 77.8296051 C256.30328164 76.46062187 256.3023445 75.09163862 256.30078125 73.72265625 C256.30467166 72.30927912 256.30900704 70.89590316 256.31376648 69.48252869 C256.32121479 66.52452804 256.3209475 63.56664679 256.31567383 60.60864258 C256.3098802 56.82804432 256.32681384 53.04793613 256.3500185 49.26741886 C256.36478824 46.34965687 256.36562318 43.43201204 256.36250877 40.51421928 C256.36302033 39.12083401 256.36822698 37.7274419 256.37832069 36.33409309 C256.39072966 34.38170268 256.38193 32.42921281 256.37231445 30.47680664 C256.37294388 29.36825821 256.3735733 28.25970978 256.3742218 27.11756897 C255.93195159 23.43310197 255.03921337 21.10025334 253 18 C248.70566863 15.23281704 243.65977454 15.71126562 238.71508789 15.7253418 C237.32393517 15.7176754 237.32393517 15.7176754 235.90467834 15.70985413 C232.84393837 15.69597272 229.78342393 15.69691377 226.72265625 15.69921875 C224.59183163 15.69533114 222.46100778 15.69099634 220.33018494 15.68623352 C215.86568692 15.67877451 211.40126799 15.67906038 206.93676758 15.68432617 C201.21914077 15.69012158 195.50183782 15.67318637 189.78426456 15.6499815 C185.38417166 15.63524142 180.98415672 15.63437282 176.5840435 15.63749123 C174.47614335 15.6369782 172.36823881 15.63174387 170.26036263 15.62167931 C167.31146386 15.60932657 164.3631955 15.61609972 161.41430664 15.62768555 C160.11194061 15.61621994 160.11194061 15.61621994 158.78326416 15.60452271 C153.83234421 15.64746054 150.18152193 16.05050512 146 19 Z M146 115 C143.8078311 118.69838431 143.74297087 122.10886328 143.7253418 126.34741211 C143.71580978 127.60899643 143.70627777 128.87058075 143.69645691 130.1703949 C143.69671836 131.53937813 143.6976555 132.90836138 143.69921875 134.27734375 C143.69532834 135.69072088 143.69099296 137.10409684 143.68623352 138.51747131 C143.67878521 141.47547196 143.6790525 144.43335321 143.68432617 147.39135742 C143.6901198 151.17195568 143.67318616 154.95206387 143.6499815 158.73258114 C143.63521176 161.65034313 143.63437682 164.56798796 143.63749123 167.48578072 C143.63697967 168.87916599 143.63177302 170.2725581 143.62167931 171.66590691 C143.60927034 173.61829732 143.61807 175.57078719 143.62768555 177.52319336 C143.62705612 178.63174179 143.6264267 179.74029022 143.6257782 180.88243103 C144.06804841 184.56689803 144.96078663 186.89974666 147 190 C151.29433137 192.76718296 156.34022546 192.28873438 161.28491211 192.2746582 C162.67606483 192.2823246 162.67606483 192.2823246 164.09532166 192.29014587 C167.15606163 192.30402728 170.21657607 192.30308623 173.27734375 192.30078125 C175.40816837 192.30466886 177.53899222 192.30900366 179.66981506 192.31376648 C184.13431308 192.32122549 188.59873201 192.32093962 193.06323242 192.31567383 C198.78085923 192.30987842 204.49816218 192.32681363 210.21573544 192.3500185 C214.61582834 192.36475858 219.01584328 192.36562718 223.4159565 192.36250877 C225.52385665 192.3630218 227.63176119 192.36825613 229.73963737 192.37832069 C232.68853614 192.39067343 235.6368045 192.38390028 238.58569336 192.37231445 C239.45393738 192.37995819 240.3221814 192.38760193 241.21673584 192.39547729 C246.16765579 192.35253946 249.81847807 191.94949488 254 189 C256.1921689 185.30161569 256.25702913 181.89113672 256.2746582 177.65258789 C256.28419022 176.39100357 256.29372223 175.12941925 256.30354309 173.8296051 C256.30328164 172.46062187 256.3023445 171.09163862 256.30078125 169.72265625 C256.30467166 168.30927912 256.30900704 166.89590316 256.31376648 165.48252869 C256.32121479 162.52452804 256.3209475 159.56664679 256.31567383 156.60864258 C256.3098802 152.82804432 256.32681384 149.04793613 256.3500185 145.26741886 C256.36478824 142.34965687 256.36562318 139.43201204 256.36250877 136.51421928 C256.36302033 135.12083401 256.36822698 133.7274419 256.37832069 132.33409309 C256.39072966 130.38170268 256.38193 128.42921281 256.37231445 126.47680664 C256.37294388 125.36825821 256.3735733 124.25970978 256.3742218 123.11756897 C255.93195159 119.43310197 255.03921337 117.10025334 253 114 C248.70566863 111.23281704 243.65977454 111.71126562 238.71508789 111.7253418 C237.32393517 111.7176754 237.32393517 111.7176754 235.90467834 111.70985413 C232.84393837 111.69597272 229.78342393 111.69691377 226.72265625 111.69921875 C224.59183163 111.69533114 222.46100778 111.69099634 220.33018494 111.68623352 C215.86568692 111.67877451 211.40126799 111.67906038 206.93676758 111.68432617 C201.21914077 111.69012158 195.50183782 111.67318637 189.78426456 111.6499815 C185.38417166 111.63524142 180.98415672 111.63437282 176.5840435 111.63749123 C174.47614335 111.6369782 172.36823881 111.63174387 170.26036263 111.62167931 C167.31146386 111.60932657 164.3631955 111.61609972 161.41430664 111.62768555 C160.11194061 111.61621994 160.11194061 111.61621994 158.78326416 111.60452271 C153.83234421 111.64746054 150.18152193 112.05050512 146 115 Z " fill="#F7F7F7" transform="translate(200,136)"/>
<path d="M0 0 C63.36 0 126.72 0 192 0 C192 31.68 192 63.36 192 96 C160.32 96 128.64 96 96 96 C95.67 82.8 95.34 69.6 95 56 C92.79891273 42.79347638 89.62935028 32.25315238 78.57421875 24.2421875 C68.19685255 17.72287095 56.79132723 16.18970204 44.83203125 18.65234375 C35.17660801 21.8254236 27.07296935 28.15323638 22 37 C17.73843213 46.34266802 16.88659979 55.40480212 16.68359375 65.53125 C16.66281265 66.40777222 16.64203156 67.28429443 16.62062073 68.18737793 C16.55579117 70.95818042 16.49655342 73.72906901 16.4375 76.5 C16.39425127 78.39063352 16.35063507 80.28125868 16.30664062 82.171875 C16.20017915 86.78116416 16.09872881 91.39053899 16 96 C10.72 96 5.44 96 0 96 C0 64.32 0 32.64 0 0 Z " fill="#F7F7F7" transform="translate(280,360)"/>
<path d="M0 0 C73.92 0 147.84 0 224 0 C224 31.68 224 63.36 224 96 C205.52 96 187.04 96 168 96 C167.95101562 90.86050781 167.90203125 85.72101563 167.8515625 80.42578125 C167.81617156 77.16729817 167.78020897 73.90884148 167.7421875 70.65039062 C167.68191014 65.47993776 167.6237354 60.30952177 167.578125 55.13891602 C167.54121496 50.96964902 167.49483954 46.80058437 167.44193649 42.63149071 C167.42342291 41.04194887 167.40830375 39.45236371 167.39665604 37.86275673 C167.37974141 35.63396163 167.3506945 33.40562686 167.31884766 31.17700195 C167.29886215 29.27504814 167.29886215 29.27504814 167.2784729 27.33467102 C167.00265958 24.03184803 166.69105233 21.84739994 165 19 C160.66696176 16.25154106 155.66044421 16.71817305 150.69921875 16.74121094 C149.77017731 16.7377063 148.84113586 16.73420166 147.88394165 16.73059082 C144.8183847 16.7218011 141.75305923 16.72761298 138.6875 16.734375 C136.55428015 16.73302756 134.4210606 16.73108636 132.2878418 16.72857666 C127.81914341 16.72562913 123.35052502 16.72991116 118.88183594 16.73925781 C113.15520357 16.75065207 107.42875867 16.74409062 101.70213318 16.73211288 C97.29779652 16.7248843 92.89350426 16.72718682 88.48916626 16.73236847 C86.3776548 16.7337022 84.26613931 16.73206693 82.15463257 16.72740936 C79.2032402 16.72232781 76.25215105 16.73007744 73.30078125 16.74121094 C72.42894196 16.73716248 71.55710266 16.73311401 70.65884399 16.72894287 C64.55468456 16.71656491 64.55468456 16.71656491 59 19 C56.67751538 22.91060788 56.72814087 26.70526028 56.68115234 31.17700195 C56.66608391 32.23148277 56.66608391 32.23148277 56.65071106 33.30726624 C56.61996192 35.61759669 56.60286728 37.92781171 56.5859375 40.23828125 C56.56721916 41.84540291 56.54764525 43.45251481 56.5272522 45.05961609 C56.47599519 49.27961465 56.43633516 53.49964505 56.39910889 57.7197876 C56.35197602 62.7885398 56.29040581 67.85713481 56.23126221 72.92575836 C56.14312833 80.61710856 56.07330817 88.30842984 56 96 C37.52 96 19.04 96 0 96 C0 64.32 0 32.64 0 0 Z " fill="#F7F7F7" transform="translate(40,360)"/>
<path d="M0 0 C153.12 0 306.24 0 464 0 C464 5.28 464 10.56 464 16 C310.88 16 157.76 16 0 16 C0 10.72 0 5.44 0 0 Z " fill="#F7F7F7" transform="translate(24,472)"/>
<path d="M0 0 C21.12 0 42.24 0 64 0 C64 21.12 64 42.24 64 64 C42.88 64 21.76 64 0 64 C0 42.88 0 21.76 0 0 Z " fill="#F7F7F7" transform="translate(200,280)"/>
<path d="M0 0 C21.12 0 42.24 0 64 0 C64 21.12 64 42.24 64 64 C42.88 64 21.76 64 0 64 C0 42.88 0 21.76 0 0 Z " fill="#F7F7F7" transform="translate(120,280)"/>
<path d="M0 0 C21.12 0 42.24 0 64 0 C64 21.12 64 42.24 64 64 C42.88 64 21.76 64 0 64 C0 42.88 0 21.76 0 0 Z " fill="#F7F7F7" transform="translate(40,280)"/>
<path d="M0 0 C21.12 0 42.24 0 64 0 C64 21.12 64 42.24 64 64 C42.88 64 21.76 64 0 64 C0 42.88 0 21.76 0 0 Z " fill="#F7F7F7" transform="translate(200,200)"/>
<path d="M0 0 C21.12 0 42.24 0 64 0 C64 21.12 64 42.24 64 64 C42.88 64 21.76 64 0 64 C0 42.88 0 21.76 0 0 Z " fill="#F7F7F7" transform="translate(120,200)"/>
<path d="M0 0 C21.12 0 42.24 0 64 0 C64 21.12 64 42.24 64 64 C42.88 64 21.76 64 0 64 C0 42.88 0 21.76 0 0 Z " fill="#F7F7F7" transform="translate(40,200)"/>
<path d="M0 0 C73.92 0 147.84 0 224 0 C224 5.28 224 10.56 224 16 C150.08 16 76.16 16 0 16 C0 10.72 0 5.44 0 0 Z " fill="#F7F7F7" transform="translate(40,168)"/>
<path d="M0 0 C5.9436678 3.59176484 10.30873636 8.97668205 12.5625 15.5 C12.80300903 17.88557434 12.80300903 17.88557434 12.78955078 20.38208008 C12.78930908 21.33570435 12.78906738 22.28932861 12.78881836 23.27185059 C12.77347046 24.75570251 12.77347046 24.75570251 12.7578125 26.26953125 C12.75579834 27.1884314 12.75378418 28.10733154 12.75170898 29.05407715 C12.7412763 32.4736025 12.71335374 35.89305647 12.6875 39.3125 C12.64625 46.964375 12.605 54.61625 12.5625 62.5 C-3.2775 62.5 -19.1175 62.5 -35.4375 62.5 C-35.52 54.91 -35.6025 47.32 -35.6875 39.5 C-35.72391602 37.11910156 -35.76033203 34.73820312 -35.79785156 32.28515625 C-35.80954459 30.37761331 -35.81973496 28.47006032 -35.828125 26.5625 C-35.84858887 25.58861328 -35.86905273 24.61472656 -35.89013672 23.61132812 C-35.89388586 16.21802588 -34.3913484 10.87079321 -29.47265625 5.2578125 C-28.82167969 4.71898437 -28.17070312 4.18015625 -27.5 3.625 C-26.85160156 3.07070313 -26.20320313 2.51640625 -25.53515625 1.9453125 C-18.47077988 -2.92213491 -7.84396301 -3.47595223 0 0 Z " fill="#F7F7F7" transform="translate(347.4375,393.5)"/>
<path d="M0 0 C10.56 0 21.12 0 32 0 C32 21.12 32 42.24 32 64 C21.44 64 10.88 64 0 64 C0 42.88 0 21.76 0 0 Z " fill="#F7F7F7" transform="translate(160,392)"/>
<path d="M0 0 C10.56 0 21.12 0 32 0 C32 21.12 32 42.24 32 64 C21.44 64 10.88 64 0 64 C0 42.88 0 21.76 0 0 Z " fill="#F7F7F7" transform="translate(112,392)"/>
<path d="M0 0 C10.56 0 21.12 0 32 0 C32 15.84 32 31.68 32 48 C21.44 48 10.88 48 0 48 C0 32.16 0 16.32 0 0 Z " fill="#F7F7F7" transform="translate(408,264)"/>
<path d="M0 0 C10.56 0 21.12 0 32 0 C32 15.84 32 31.68 32 48 C21.44 48 10.88 48 0 48 C0 32.16 0 16.32 0 0 Z " fill="#F7F7F7" transform="translate(360,264)"/>
<path d="M0 0 C10.56 0 21.12 0 32 0 C32 15.84 32 31.68 32 48 C21.44 48 10.88 48 0 48 C0 32.16 0 16.32 0 0 Z " fill="#F7F7F7" transform="translate(280,264)"/>
<path d="M0 0 C10.56 0 21.12 0 32 0 C32 15.84 32 31.68 32 48 C21.44 48 10.88 48 0 48 C0 32.16 0 16.32 0 0 Z " fill="#F7F7F7" transform="translate(408,168)"/>
<path d="M0 0 C10.56 0 21.12 0 32 0 C32 15.84 32 31.68 32 48 C21.44 48 10.88 48 0 48 C0 32.16 0 16.32 0 0 Z " fill="#F7F7F7" transform="translate(360,168)"/>
<path d="M0 0 C10.56 0 21.12 0 32 0 C32 15.84 32 31.68 32 48 C21.44 48 10.88 48 0 48 C0 32.16 0 16.32 0 0 Z " fill="#F7F7F7" transform="translate(280,168)"/>
<path d="M0 0 C0.66 -0.0103125 1.32 -0.020625 2 -0.03125 C4.98174986 0.76077731 6.16411059 2.04673186 8 4.5 C8.52667809 8.56595488 8.17906875 12.38141883 8 16.5 C2.72 16.5 -2.56 16.5 -8 16.5 C-8.49309091 5.15890909 -8.49309091 5.15890909 -6.234375 2.140625 C-3.87710195 0.40976018 -2.87529794 -0.04492653 0 0 Z " fill="#F7F7F7" transform="translate(320,55.5)"/>
</svg>
