<?xml version="1.0" encoding="UTF-8"?>
<svg version="1.1" xmlns="http://www.w3.org/2000/svg" width="512" height="512">
<path d="M0 0 C1.50292321 1.13589918 2.98136883 2.30470624 4.4375 3.5 C5.91863281 4.66402344 5.91863281 4.66402344 7.4296875 5.8515625 C17.06008203 13.94371608 23.37638945 26.6814639 24.71533203 39.07080078 C25.77071486 53.94402802 24.18440098 67.08986698 15.4375 79.5 C16.87947958 82.80027875 18.66569177 84.97555514 21.20864868 87.51165771 C21.99391434 88.2996727 22.77917999 89.08768768 23.58824158 89.89958191 C24.45066971 90.75481949 25.31309784 91.61005707 26.20166016 92.49121094 C27.10903427 93.39887711 28.01640839 94.30654327 28.95127869 95.24171448 C31.43629203 97.72730138 33.92742124 100.20667578 36.41969347 102.68498135 C39.02445014 105.27723116 41.62353998 107.87515004 44.22323608 110.47247314 C49.14553215 115.38855432 54.07290403 120.29951523 59.00211942 125.2086575 C64.61422601 130.7984054 70.22065115 136.39383688 75.82660604 141.98975325 C87.35726028 153.49950528 98.89502914 165.00209796 110.4375 176.5 C113.43292684 175.31834602 116.29241018 174.09246717 119.125 172.5625 C127.23517073 168.5009185 135.09011854 166.93656633 144.125 167 C145.08180664 167.00572021 146.03861328 167.01144043 147.02441406 167.01733398 C159.95049759 167.33950978 170.36198986 171.22932037 180.4375 179.5 C181.42492187 180.27601563 182.41234375 181.05203125 183.4296875 181.8515625 C193.06008203 189.94371608 199.37638945 202.6814639 200.71533203 215.07080078 C201.91523716 231.98074196 199.43907236 246.09766079 188.4375 259.5 C187.27347656 260.98113281 187.27347656 260.98113281 186.0859375 262.4921875 C177.99378392 272.12258203 165.2560361 278.43888945 152.86669922 279.77783203 C137.29446809 280.88281518 124.91069137 278.47149629 111.4375 270.5 C110.11298828 271.93279297 110.11298828 271.93279297 108.76171875 273.39453125 C102.23213717 280.43602179 95.63089428 287.35443083 88.80078125 294.10546875 C86.83437754 296.09787449 84.9936526 298.11462465 83.1875 300.25 C79.66118409 304.3925653 75.79988621 308.17491801 71.9375 312 C67.57218008 316.32328 63.33136027 320.64676846 59.37109375 325.34765625 C55.92792913 329.18035061 52.20935033 332.7464681 48.54833984 336.36962891 C45.58856268 339.31048872 42.69038637 342.24397644 40 345.4375 C37.70440813 348.10578157 35.34189778 350.64214516 32.828125 353.10546875 C32.16095459 353.76490479 31.49378418 354.42434082 30.80639648 355.10375977 C29.46430778 356.42290406 28.11765535 357.73742584 26.76586914 359.04663086 C23.10572023 362.63914709 20.10328772 366.11326071 17.4375 370.5 C18.035625 371.61375 18.63375 372.7275 19.25 373.875 C23.33463387 382.12266244 25.00195832 390.00667744 24.9375 399.1875 C24.93177979 400.14430664 24.92605957 401.10111328 24.92016602 402.08691406 C24.59799022 415.01299759 20.70817963 425.42448986 12.4375 435.5 C11.27347656 436.98113281 11.27347656 436.98113281 10.0859375 438.4921875 C2.00997261 448.10331603 -10.79025093 454.52350382 -23.18164062 455.76171875 C-34.1495432 456.44960114 -44.46053651 456.24511215 -54.5625 451.5 C-55.25730469 451.22285156 -55.95210937 450.94570313 -56.66796875 450.66015625 C-69.37863444 445.15473818 -78.36410162 434.31864541 -84.1953125 422.0703125 C-88.51613787 410.78678567 -87.94871035 402.38958271 -88.5625 389.5 C-112.3225 377.62 -136.0825 365.74 -160.5625 353.5 C-162.2125 355.15 -163.8625 356.8 -165.5625 358.5 C-177.95577 369.61777217 -190.58644774 376.12088867 -207.4375 375.9375 C-208.40059082 375.93137695 -209.36368164 375.92525391 -210.35595703 375.91894531 C-217.68176647 375.75826449 -223.88646092 374.63588088 -230.5625 371.5 C-231.25730469 371.22285156 -231.95210937 370.94570313 -232.66796875 370.66015625 C-245.42984533 365.13255701 -254.23752518 354.30188085 -260.23046875 342.10546875 C-265.87219155 327.77201613 -265.69432638 311.02692359 -260.12109375 296.70703125 C-257.76986129 291.86903164 -254.96949759 287.65047375 -251.5625 283.5 C-250.39847656 282.01886719 -250.39847656 282.01886719 -249.2109375 280.5078125 C-241.13814433 270.90045861 -228.3449351 264.48356504 -215.95947266 263.23828125 C-204.58561445 262.52005831 -194.16565082 263.01866833 -183.5625 267.5 C-183.16985962 266.42830566 -183.16985962 266.42830566 -182.76928711 265.33496094 C-181.50714426 262.36995937 -180.0019052 259.84631058 -178.25390625 257.140625 C-177.59374512 256.11493408 -176.93358398 255.08924316 -176.25341797 254.0324707 C-175.55104004 252.94925537 -174.84866211 251.86604004 -174.125 250.75 C-173.40449367 249.62694183 -172.68460831 248.50348504 -171.96533203 247.37963867 C-168.70785296 242.30022865 -165.41756479 237.25072754 -161.98828125 232.28515625 C-161.20698853 231.13708496 -161.20698853 231.13708496 -160.40991211 229.96582031 C-159.45295757 228.56632785 -158.47926703 227.17808289 -157.48657227 225.80371094 C-155.48449321 222.85634403 -154.46755746 221.17544835 -154.97265625 217.58203125 C-157.03977095 213.5747745 -159.26097299 209.71401155 -161.625 205.875 C-162.13579102 205.03340332 -162.64658203 204.19180664 -163.17285156 203.32470703 C-164.96255722 200.3789084 -166.76167692 197.43901539 -168.5625 194.5 C-171.26173995 190.09458389 -173.95814904 185.68747247 -176.64938354 181.27716064 C-177.80417574 179.38861349 -178.96452968 177.50356374 -180.12524414 175.61865234 C-180.83892747 174.45163377 -181.55239792 173.28448497 -182.265625 172.1171875 C-183.21937012 170.56427002 -183.21937012 170.56427002 -184.19238281 168.97998047 C-185.5625 166.5 -185.5625 166.5 -185.5625 164.5 C-186.10132813 164.7165625 -186.64015625 164.933125 -187.1953125 165.15625 C-200.65503751 169.7131475 -217.66604936 169.55774359 -230.5625 163.5 C-231.25730469 163.22285156 -231.95210937 162.94570312 -232.66796875 162.66015625 C-245.42984533 157.13255701 -254.23752518 146.30188085 -260.23046875 134.10546875 C-265.87219155 119.77201613 -265.69432638 103.02692359 -260.12109375 88.70703125 C-257.76986129 83.86903164 -254.96949759 79.65047375 -251.5625 75.5 C-250.78648437 74.51257813 -250.01046875 73.52515625 -249.2109375 72.5078125 C-241.11878392 62.87741797 -228.3810361 56.56111055 -215.99169922 55.22216797 C-198.99371758 54.01601562 -185.0811274 56.56243378 -171.5625 67.5 C-170.53125 68.2425 -169.5 68.985 -168.4375 69.75 C-165.65909623 72.40760361 -163.61779834 75.05477818 -161.3828125 78.171875 C-160.66625488 79.16799805 -159.94969727 80.16412109 -159.21142578 81.19042969 C-158.66728027 81.95258789 -158.12313477 82.71474609 -157.5625 83.5 C-145.25865498 79.33181513 -133.00265493 75.05194994 -120.8125 70.5625 C-119.89017075 70.22307877 -118.96784149 69.88365753 -118.01756287 69.53395081 C-113.3723107 67.82286975 -108.72978719 66.10474118 -104.09008789 64.37866211 C-102.36348908 63.74060069 -100.63684714 63.10265594 -98.91015625 62.46484375 C-97.7117511 62.01546448 -97.7117511 62.01546448 -96.48913574 61.55700684 C-93.38908682 60.41563212 -90.893953 59.5 -87.5625 59.5 C-87.58868408 58.88181396 -87.61486816 58.26362793 -87.6418457 57.62670898 C-88.2921865 39.88639997 -87.27899596 25.77327368 -75.5625 11.5 C-74.78648437 10.51257813 -74.01046875 9.52515625 -73.2109375 8.5078125 C-55.75628726 -12.2647997 -21.83894221 -14.78577273 0 0 Z M-90.19799805 77.36425781 C-91.32985031 77.77178284 -92.46170258 78.17930786 -93.62785339 78.59918213 C-95.45755424 79.26938385 -95.45755424 79.26938385 -97.32421875 79.953125 C-98.59714673 80.41483315 -99.87024633 80.8760684 -101.14350891 81.33685303 C-103.81384825 82.30475457 -106.48257404 83.27694071 -109.15014648 84.25244141 C-112.54565615 85.49398563 -115.94413542 86.72713341 -119.34378338 87.95729446 C-121.97608827 88.91043854 -124.60713929 89.86700415 -127.23780251 90.82466888 C-129.0921995 91.49942584 -130.94729845 92.17225266 -132.80241394 92.84503174 C-139.16810163 95.17546853 -145.42025781 97.62834789 -151.5625 100.5 C-151.59025513 101.19339478 -151.61801025 101.88678955 -151.64660645 102.60119629 C-151.7604364 105.42180474 -151.88032644 108.24213364 -152 111.0625 C-152.03931641 112.05314453 -152.07863281 113.04378906 -152.11914062 114.06445312 C-152.16103516 115.03447266 -152.20292969 116.00449219 -152.24609375 117.00390625 C-152.28275146 117.88892822 -152.31940918 118.7739502 -152.35717773 119.68579102 C-152.5970123 122.97303596 -153.0963777 126.23714389 -153.5625 129.5 C-139.0425 136.76 -124.5225 144.02 -109.5625 151.5 C-106.78236041 148.02482551 -104.31836096 144.73067987 -101.91015625 141.02734375 C-101.22219971 139.97216553 -100.53424316 138.9169873 -99.82543945 137.82983398 C-99.09191149 136.69908722 -98.35843271 135.56830855 -97.625 134.4375 C-96.86636207 133.27206541 -96.10748917 132.10678374 -95.34838867 130.94165039 C-93.44280066 128.01540944 -91.54021031 125.0872353 -89.63891602 122.15820312 C-87.43362612 118.7609863 -85.22628054 115.36510441 -83.01928711 111.96899414 C-81.96194255 110.34113879 -80.90539823 108.71276323 -79.84985352 107.08374023 C-76.46250295 101.86093549 -73.02664461 96.67217625 -69.5625 91.5 C-71.34979439 87.79353707 -73.51423179 84.58300013 -75.9375 81.25 C-76.32421875 80.69570312 -76.7109375 80.14140625 -77.109375 79.5703125 C-78.38440895 77.77162273 -78.38440895 77.77162273 -80.5625 75.5 C-84.47615142 75.5 -86.57906501 76.05038805 -90.19799805 77.36425781 Z M-2.28125 95.328125 C-11.46963083 101.40995803 -21.06268505 102.9598191 -31.875 103 C-33.23431641 103.00918457 -33.23431641 103.00918457 -34.62109375 103.01855469 C-40.27166198 102.91353319 -45.11263444 101.97604316 -50.45776367 100.13867188 C-52.67437313 99.35481455 -52.67437313 99.35481455 -55.5625 99.5 C-57.08777113 101.59487446 -58.38690821 103.64312697 -59.6875 105.875 C-60.57376629 107.34429599 -61.46333853 108.81160083 -62.35546875 110.27734375 C-62.8561084 111.10089355 -63.35674805 111.92444336 -63.87255859 112.77294922 C-67.1482294 118.05888434 -70.58440036 123.24137927 -74 128.4375 C-75.4666772 130.67282896 -76.93251051 132.90871009 -78.3984375 135.14453125 C-79.10323242 136.21912598 -79.80802734 137.2937207 -80.53417969 138.40087891 C-84.90648388 145.08143131 -89.2355771 151.78999861 -93.5625 158.5 C-90.69339152 160.75145318 -87.78643615 162.60715572 -84.5625 164.3125 C-83.716875 164.77269531 -82.87125 165.23289062 -82 165.70703125 C-79.65122586 166.70747194 -79.65122586 166.70747194 -77.5625 166.01171875 C-75.28936039 164.29354487 -73.66628511 162.27071951 -71.89746094 160.05126953 C-64.21812216 151.12761946 -51.46785992 145.46242161 -39.99169922 144.22216797 C-23.0226967 143.01807193 -9.04626531 145.54137619 4.4375 156.5 C5.25992188 157.11101562 6.08234375 157.72203125 6.9296875 158.3515625 C17.11815025 167.07999632 22.76423571 180.60506219 23.9921875 193.73754883 C24.07710449 194.63137772 24.16202148 195.5252066 24.24951172 196.44612122 C24.31154785 197.12390121 24.37358398 197.80168121 24.4375 198.5 C31.10412895 199.46338804 37.77125852 200.42325519 44.4387207 201.38085938 C46.69924965 201.70592585 48.95966966 202.03175103 51.2199707 202.35839844 C64.27513324 204.2444977 77.32509296 206.05832768 90.4375 207.5 C90.79223389 206.70424561 91.14696777 205.90849121 91.51245117 205.08862305 C95.16232014 196.90107914 95.16232014 196.90107914 97.23046875 193.88671875 C97.82794922 192.70529297 97.82794922 192.70529297 98.4375 191.5 C97.21521562 188.1282168 95.14877584 185.96005318 92.6418457 183.45037842 C91.85105621 182.65394928 91.06026672 181.85752014 90.24551392 181.03695679 C89.37687714 180.17236847 88.50824036 179.30778015 87.61328125 178.41699219 C86.69936615 177.49957245 85.78545105 176.58215271 84.84384155 175.63693237 C82.34030956 173.12428947 79.8305007 170.61800576 77.31924057 168.11308956 C74.69331186 165.4922245 72.07226641 162.86648321 69.45043945 160.24151611 C65.04900255 155.83644192 60.64336784 151.43559909 56.23535156 147.03710938 C51.13398441 141.94663982 46.03988056 136.84898692 40.94946384 131.74756885 C36.58112843 127.3701699 32.20892312 122.99666497 27.8334341 118.62641644 C25.21895779 116.01506325 22.6058637 113.40236546 19.99624634 110.7861557 C17.09042697 107.87350865 14.17653738 104.96907071 11.26171875 102.06542969 C10.39308197 101.19274445 9.52444519 100.3200592 8.62948608 99.42092896 C7.83869659 98.63577911 7.0479071 97.85062927 6.2331543 97.04168701 C5.5444072 96.35369396 4.8556601 95.66570091 4.14604187 94.95685959 C1.38000424 92.59828207 0.71701218 93.31205215 -2.28125 95.328125 Z M-161.5625 144.5 C-163.26734466 146.18522729 -163.26734466 146.18522729 -165 148.3125 C-167.10871965 150.81290408 -169.2350703 153.20281258 -171.5625 155.5 C-159.93502678 175.46019792 -159.93502678 175.46019792 -148.125 195.3125 C-147.68373779 196.05741699 -147.24247559 196.80233398 -146.7878418 197.56982422 C-145.76881924 199.24857376 -144.67423532 200.88115734 -143.5625 202.5 C-142.9025 202.5 -142.2425 202.5 -141.5625 202.5 C-140.09202003 200.62817422 -140.09202003 200.62817422 -138.62109375 198.1796875 C-138.04117676 197.25752441 -137.46125977 196.33536133 -136.86376953 195.38525391 C-135.94120361 193.89517822 -135.94120361 193.89517822 -135 192.375 C-133.73593846 190.35921107 -132.47161523 188.34358622 -131.20703125 186.328125 C-130.58779785 185.33619141 -129.96856445 184.34425781 -129.33056641 183.32226562 C-126.97992028 179.57006054 -124.5897393 175.84430677 -122.1875 172.125 C-121.47851562 171.02414063 -120.76953125 169.92328125 -120.0390625 168.7890625 C-119.55179688 168.03367188 -119.06453125 167.27828125 -118.5625 166.5 C-120.65574677 164.22932899 -122.60195477 162.79280514 -125.35961914 161.4152832 C-126.11372574 161.03511551 -126.86783234 160.65494781 -127.64479065 160.26325989 C-128.4542363 159.86314194 -129.26368195 159.46302399 -130.09765625 159.05078125 C-130.93211777 158.63330124 -131.76657928 158.21582123 -132.62632751 157.78569031 C-134.38755122 156.90624712 -136.15024968 156.029752 -137.91430664 155.15600586 C-140.62185265 153.81405993 -143.32388981 152.46148927 -146.02539062 151.10742188 C-147.73666276 150.25457316 -149.448241 149.40233832 -151.16015625 148.55078125 C-151.97162613 148.14459061 -152.78309601 147.73839996 -153.61915588 147.31990051 C-154.37011032 146.9491893 -155.12106476 146.57847809 -155.89477539 146.1965332 C-156.55635147 145.86804886 -157.21792755 145.53956451 -157.89955139 145.2011261 C-159.56886495 144.37050064 -159.56886495 144.37050064 -161.5625 144.5 Z M-103.5625 173.5 C-105.05002145 175.65768901 -106.40911662 177.81478574 -107.75 180.0625 C-112.18611385 187.33490051 -116.77330766 194.49677028 -121.4375 201.625 C-122.07969482 202.60799072 -122.72188965 203.59098145 -123.38354492 204.60375977 C-124.303573 206.01032837 -124.303573 206.01032837 -125.2421875 207.4453125 C-126.10408691 208.77224121 -126.10408691 208.77224121 -126.98339844 210.12597656 C-127.93197714 211.55207108 -128.90687049 212.96186449 -129.93066406 214.33496094 C-132.12630588 217.26463047 -132.12630588 217.26463047 -132.35693359 220.81494141 C-131.42854257 223.95275471 -130.07322484 226.31430336 -128.34375 229.09375 C-127.66763672 230.19138672 -126.99152344 231.28902344 -126.29492188 232.41992188 C-125.93197021 233.00185303 -125.56901855 233.58378418 -125.19506836 234.18334961 C-123.23909659 237.32074688 -121.3083635 240.4736392 -119.375 243.625 C-118.97422241 244.27698364 -118.57344482 244.92896729 -118.16052246 245.60070801 C-114.02617223 252.34150546 -110.03865109 259.16512739 -106.0625 266 C-100.11315442 276.21408047 -94.03990503 286.34356362 -87.87329102 296.42779541 C-81.97986702 306.07272282 -76.3064894 315.82608017 -70.6965332 325.63891602 C-66.22257086 333.43562791 -61.52833683 341.00768478 -56.5625 348.5 C-50.9525 346.85 -45.3425 345.2 -39.5625 343.5 C-39.5625 314.46 -39.5625 285.42 -39.5625 255.5 C-45.5025 253.52 -51.4425 251.54 -57.5625 249.5 C-61.26828014 247.1888683 -64.30141297 245.23108244 -67.5625 242.5 C-68.38105469 241.89027344 -69.19960937 241.28054688 -70.04296875 240.65234375 C-79.34071411 232.70961864 -85.81692969 219.93308519 -86.77587891 207.80029297 C-87.13686256 198.98367581 -87.02266958 190.21314307 -85.5625 181.5 C-88.1851232 180.16180502 -90.81036599 178.8292849 -93.4375 177.5 C-94.18386719 177.1184375 -94.93023437 176.736875 -95.69921875 176.34375 C-96.77236328 175.80234375 -96.77236328 175.80234375 -97.8671875 175.25 C-98.52702637 174.91484375 -99.18686523 174.5796875 -99.86669922 174.234375 C-101.5603855 173.36753587 -101.5603855 173.36753587 -103.5625 173.5 Z M22.4375 215.5 C22.14617187 216.18964844 21.85484375 216.87929687 21.5546875 217.58984375 C18.73866635 224.0454394 15.55566904 229.79256573 11.4375 235.5 C10.57125 236.799375 10.57125 236.799375 9.6875 238.125 C0.52068022 247.80108754 -11.07796411 251.65860434 -23.5625 255.5 C-23.5625 284.54 -23.5625 313.58 -23.5625 343.5 C-15.6425 345.975 -15.6425 345.975 -7.5625 348.5 C-1.25 352.3125 -1.25 352.3125 1.30078125 354.14453125 C3.43798041 355.76783814 3.43798041 355.76783814 6.4375 355.5 C8.46790344 353.71894435 10.32232758 351.94140799 12.1875 350 C12.73043701 349.44610596 13.27337402 348.89221191 13.83276367 348.3215332 C17.1345872 344.92882927 20.26816399 341.43277353 23.33203125 337.82421875 C26.41068022 334.42571015 29.67991459 331.2261605 32.9375 328 C38.6125027 322.41455591 38.6125027 322.41455591 43.9375 316.5 C47.97485225 311.70564421 52.51726083 307.39694244 56.96655273 302.99047852 C60.64742998 299.33153029 64.1591616 295.62259909 67.50390625 291.65234375 C70.94292964 287.82425912 74.65673523 284.2622248 78.31347656 280.64355469 C81.96534275 277.01516059 85.44718471 273.31852012 88.7734375 269.38671875 C92.13517296 265.57517362 95.80848859 262.05494995 99.4375 258.5 C98.88320313 257.35402344 98.32890625 256.20804687 97.7578125 255.02734375 C97.02575566 253.49753266 96.29400084 251.96757702 95.5625 250.4375 C95.01529297 249.30924805 95.01529297 249.30924805 94.45703125 248.15820312 C90.73691565 240.34596035 89.14250203 233.07752471 88.4375 224.5 C81.52981115 222.8615258 74.64551009 221.72951665 67.61328125 220.7734375 C65.95573067 220.54462387 65.95573067 220.54462387 64.26469421 220.31118774 C61.94291176 219.99173765 59.62086944 219.67417114 57.29858398 219.35839844 C53.74966293 218.87495408 50.20196463 218.38317266 46.65429688 217.890625 C44.39069365 217.58022813 42.12702395 217.27031557 39.86328125 216.9609375 C38.80691971 216.81409515 37.75055817 216.66725281 36.66218567 216.51596069 C31.88664564 215.87208237 27.27007383 215.30696544 22.4375 215.5 Z M-143.5625 236.5 C-148.70833464 243.28445237 -153.36133497 250.24642157 -157.82714844 257.48828125 C-161.59527886 263.59212634 -165.53658851 269.56234284 -169.5625 275.5 C-167.9724487 279.11375296 -165.72203705 281.87549781 -163.25 284.9375 C-156.92504974 293.04927409 -152.44339724 303.05035843 -152.4296875 313.45703125 C-152.42775391 314.87918945 -152.42775391 314.87918945 -152.42578125 316.33007812 C-152.42964844 317.31427734 -152.43351562 318.29847656 -152.4375 319.3125 C-152.43169922 320.77139648 -152.43169922 320.77139648 -152.42578125 322.25976562 C-152.42707031 323.21173828 -152.42835938 324.16371094 -152.4296875 325.14453125 C-152.43081543 326.00409424 -152.43194336 326.86365723 -152.43310547 327.74926758 C-152.58794657 331.04095558 -153.08089488 334.24165859 -153.5625 337.5 C-144.5141732 342.1167482 -135.45733269 346.7162901 -126.38914871 351.29392433 C-122.17890936 353.41993969 -117.97185948 355.55181849 -113.77148438 357.69726562 C-109.71954003 359.76662479 -105.66003045 361.82035695 -101.59474945 363.86338425 C-100.04335294 364.64648673 -98.49478925 365.43522694 -96.94913483 366.22960281 C-94.78739464 367.33941205 -92.61654503 368.4289375 -90.44238281 369.51416016 C-89.80221222 369.84862656 -89.16204163 370.18309296 -88.50247192 370.5276947 C-85.01615684 372.26986717 -85.01615684 372.26986717 -81.26629639 371.84262085 C-78.79271177 369.89339364 -77.14444564 367.61704642 -75.3125 365.0625 C-74.60609375 364.09441406 -73.8996875 363.12632812 -73.171875 362.12890625 C-71.30144188 359.58729741 -71.30144188 359.58729741 -71.5625 356.5 C-72.55483586 354.3728749 -72.55483586 354.3728749 -73.95703125 352.08203125 C-74.49030029 351.17453125 -75.02356934 350.26703125 -75.57299805 349.33203125 C-76.16765869 348.33558594 -76.76231934 347.33914063 -77.375 346.3125 C-77.99737549 345.25804687 -78.61975098 344.20359375 -79.26098633 343.1171875 C-80.98920107 340.19280897 -82.72338413 337.27213556 -84.46057129 334.35308838 C-85.94766713 331.85227323 -87.43035737 329.34885893 -88.91307068 326.84544373 C-92.8885647 320.13332711 -96.87384519 313.42707141 -100.86289978 306.7230072 C-103.71518506 301.92813923 -106.56050598 297.12919121 -109.40234375 292.328125 C-117.23354799 279.10172019 -125.09908336 265.89731747 -133.0625 252.75 C-133.42434387 252.15119019 -133.78618774 251.55238037 -134.15899658 250.9354248 C-135.1766156 249.25243276 -136.19760637 247.57148084 -137.21875 245.890625 C-137.79431641 244.94219727 -138.36988281 243.99376953 -138.96289062 243.01660156 C-140.40167228 240.75302382 -141.91864425 238.61761448 -143.5625 236.5 Z " fill="#F59489" transform="translate(287.5625,32.5)"/>
<path d="M0 0 C9.42599879 7.45238095 9.42599879 7.45238095 12 13 C4.58956748 21.0162489 -2.8720285 28.93067361 -10.63671875 36.60546875 C-12.60312246 38.59787449 -14.4438474 40.61462465 -16.25 42.75 C-19.77631591 46.8925653 -23.63761379 50.67491801 -27.5 54.5 C-31.86531992 58.82328 -36.10613973 63.14676846 -40.06640625 67.84765625 C-43.50957087 71.68035061 -47.22814967 75.2464681 -50.88916016 78.86962891 C-53.84893732 81.81048872 -56.74711363 84.74397644 -59.4375 87.9375 C-61.73309187 90.60578157 -64.09560222 93.14214516 -66.609375 95.60546875 C-67.27654541 96.26490479 -67.94371582 96.92434082 -68.63110352 97.60375977 C-69.97319222 98.92290406 -71.31984465 100.23742584 -72.67163086 101.54663086 C-76.33177977 105.13914709 -79.33421228 108.61326071 -82 113 C-81.401875 114.11375 -80.80375 115.2275 -80.1875 116.375 C-76.10286613 124.62266244 -74.43554168 132.50667744 -74.5 141.6875 C-74.50572021 142.64430664 -74.51144043 143.60111328 -74.51733398 144.58691406 C-74.83950978 157.51299759 -78.72932037 167.92448986 -87 178 C-88.16402344 179.48113281 -88.16402344 179.48113281 -89.3515625 180.9921875 C-97.42752739 190.60331603 -110.22775093 197.02350382 -122.61914062 198.26171875 C-133.5870432 198.94960114 -143.89803651 198.74511215 -154 194 C-154.69480469 193.72285156 -155.38960937 193.44570313 -156.10546875 193.16015625 C-168.81613444 187.65473818 -177.80160162 176.81864541 -183.6328125 164.5703125 C-187.95363787 153.28678567 -187.38621035 144.88958271 -188 132 C-211.76 120.12 -235.52 108.24 -260 96 C-261.65 97.65 -263.3 99.3 -265 101 C-277.39327 112.11777217 -290.02394774 118.62088867 -306.875 118.4375 C-307.83809082 118.43137695 -308.80118164 118.42525391 -309.79345703 118.41894531 C-317.11926647 118.25826449 -323.32396092 117.13588088 -330 114 C-331.04220703 113.58427734 -331.04220703 113.58427734 -332.10546875 113.16015625 C-344.86734533 107.63255701 -353.67502518 96.80188085 -359.66796875 84.60546875 C-365.30969155 70.27201613 -365.13182638 53.52692359 -359.55859375 39.20703125 C-357.20736129 34.36903164 -354.40699759 30.15047375 -351 26 C-350.22398437 25.01257813 -349.44796875 24.02515625 -348.6484375 23.0078125 C-340.57247261 13.39668397 -327.77224907 6.97649618 -315.38085938 5.73828125 C-298.73356167 4.69419986 -286.76239701 7.3705829 -273 17 C-272.29101562 17.43828125 -271.58203125 17.8765625 -270.8515625 18.328125 C-261.08360422 24.73714111 -255.08259602 36.00907728 -252 47 C-251.8249292 47.60602051 -251.6498584 48.21204102 -251.46948242 48.83642578 C-250.54619648 53.09131919 -250.81533971 57.47626075 -250.8125 61.8125 C-250.80025391 62.78509766 -250.78800781 63.75769531 -250.77539062 64.75976562 C-250.76424807 70.24561846 -251.17152196 74.81810769 -253 80 C-252.14423874 80.26440384 -251.28847748 80.52880768 -250.40678406 80.80122375 C-246.92734924 82.02556429 -243.77808614 83.50832118 -240.49145508 85.18041992 C-239.87116928 85.49443253 -239.25088348 85.80844513 -238.61180115 86.13197327 C-237.2752528 86.80902569 -235.93960353 87.48785537 -234.60477638 88.16829491 C-232.49290416 89.24403195 -230.37801468 90.3136013 -228.26213074 91.38142395 C-222.25027444 94.41630291 -216.24247517 97.45909365 -210.24047852 100.51342773 C-206.56145497 102.38509164 -202.87766272 104.24705947 -199.19064903 106.10293007 C-197.78731397 106.81173853 -196.38586028 107.52428444 -194.98633766 108.24059105 C-193.0354773 109.23878297 -191.07881902 110.22458234 -189.12036133 111.20776367 C-187.45207024 112.05476082 -187.45207024 112.05476082 -185.75007629 112.91886902 C-182.97671559 114.3485705 -182.97671559 114.3485705 -180 113 C-178.81971304 111.37201798 -177.70425577 109.69664662 -176.625 108 C-171.81208486 101.15872136 -166.00729558 97.31426039 -159 93 C-158.32710937 92.55785156 -157.65421875 92.11570312 -156.9609375 91.66015625 C-149.04715333 86.69059984 -140.35108612 85.45995568 -131.1875 85.5625 C-130.22481201 85.57079834 -129.26212402 85.57909668 -128.27026367 85.58764648 C-116.56403488 85.8642801 -107.81947504 88.8455933 -98.2421875 95.609375 C-96.01482456 97.263534 -96.01482456 97.263534 -93 97 C-91.13310949 95.38282096 -89.45103657 93.77756582 -87.75 92 C-87.2540332 91.49307617 -86.75806641 90.98615234 -86.24707031 90.46386719 C-83.65844661 87.79756789 -81.15661921 85.08279137 -78.75 82.25 C-75.2236839 78.10743449 -71.36238394 74.32508424 -67.5 70.5 C-61.82499611 64.9145569 -61.82499611 64.9145569 -56.5 59 C-52.46264775 54.20564421 -47.92023917 49.89694244 -43.47094727 45.49047852 C-39.79007002 41.83153029 -36.2783384 38.12259909 -32.93359375 34.15234375 C-29.49388014 30.32349082 -25.77927894 26.7607761 -22.12182617 23.14135742 C-18.4923418 19.53517944 -15.0354819 15.86136677 -11.73046875 11.953125 C-8.02780341 7.77404448 -3.98241005 3.91029397 0 0 Z " fill="#91CAD7" transform="translate(387,290)"/>
<path d="M0 0 C3.40827138 1.66584051 6.55704159 3.57238388 9.75 5.625 C11.22726563 6.57246094 11.22726563 6.57246094 12.734375 7.5390625 C13.48203125 8.02117187 14.2296875 8.50328125 15 9 C11.06301867 16.69791879 6.53727293 23.83727184 1.703125 30.984375 C-1.06569042 35.07932842 -3.7587455 39.22073326 -6.4375 43.375 C-6.88673828 44.07117432 -7.33597656 44.76734863 -7.79882812 45.48461914 C-8.71968944 46.91224891 -9.64025897 48.34006693 -10.56054688 49.76806641 C-13.0980885 53.70263316 -15.64329555 57.63223978 -18.1875 61.5625 C-19.11852184 63.00128121 -20.04951453 64.44008128 -20.98046875 65.87890625 C-21.64691406 66.90886719 -22.31335938 67.93882812 -23 69 C-20.92642695 70.22856207 -18.84403246 71.43225346 -16.75 72.625 C-16.16347656 72.975625 -15.57695312 73.32625 -14.97265625 73.6875 C-11.62622816 75.61791179 -11.62622816 75.61791179 -7.890625 75.5859375 C-5.74526818 73.78632 -4.07611242 71.73599693 -2.33496094 69.55126953 C5.34437784 60.62761946 18.09464008 54.96242161 29.57080078 53.72216797 C46.48074196 52.52226284 60.59766079 54.99842764 74 66 C75.48113281 67.16402344 75.48113281 67.16402344 76.9921875 68.3515625 C86.68731785 76.49811179 93.12346865 89.63495451 94.296875 102.171875 C94.30991301 104.47960321 94.19424833 106.70400886 94 109 C95.08667213 109.08054626 95.08667213 109.08054626 96.19529724 109.16271973 C103.5777554 109.73973996 110.88894243 110.57666689 118.22265625 111.59375 C119.33056015 111.74533569 120.43846405 111.89692139 121.5799408 112.05310059 C123.89685019 112.3709267 126.21354515 112.69031962 128.5300293 113.01123047 C132.08385898 113.50295533 135.63854326 113.98811973 139.19335938 114.47265625 C141.45317846 114.78346575 143.71294602 115.09465006 145.97265625 115.40625 C147.03509048 115.55106812 148.09752472 115.69588623 149.19215393 115.84509277 C150.17425339 115.98193481 151.15635284 116.11877686 152.16821289 116.25976562 C153.03136612 116.37888306 153.89451935 116.49800049 154.78382874 116.62072754 C157 117 157 117 160 118 C159.34 123.61 158.68 129.22 158 135 C150.68978089 134.0415465 143.37981524 133.08118898 136.07006836 132.11914062 C133.58836469 131.79278313 131.10659502 131.46692705 128.62475586 131.14160156 C125.03741863 130.67127301 121.45033031 130.19908323 117.86328125 129.7265625 C116.77106766 129.58376862 115.67885406 129.44097473 114.55354309 129.29385376 C107.0188058 128.29885171 99.50748189 127.18285316 92 126 C91.84168701 126.66499512 91.68337402 127.32999023 91.52026367 128.01513672 C89.75815886 135.15066462 86.47295533 140.2461984 82 146 C80.8553125 147.5778125 80.8553125 147.5778125 79.6875 149.1875 C71.41788278 157.84175058 60.56521253 163.2884404 49 166 C48.01 166 47.02 166 46 166 C46 195.04 46 224.08 46 254 C40.72 254 35.44 254 30 254 C30 224.96 30 195.92 30 166 C26.7 165.34 23.4 164.68 20 164 C6.23263971 159.70887472 -4.67993755 150.36785551 -12 138 C-16.42112954 128.44568401 -18.18068599 120.59249407 -18.1875 110.1875 C-18.19974609 109.21490234 -18.21199219 108.24230469 -18.22460938 107.24023438 C-18.23575193 101.75438154 -17.82847804 97.18189231 -16 92 C-17.28777344 91.60167969 -17.28777344 91.60167969 -18.6015625 91.1953125 C-22.02910808 89.98976199 -25.14173798 88.52755614 -28.375 86.875 C-29.43460937 86.33617187 -30.49421875 85.79734375 -31.5859375 85.2421875 C-32.38257813 84.83226562 -33.17921875 84.42234375 -34 84 C-34.22816406 84.66515625 -34.45632812 85.3303125 -34.69140625 86.015625 C-36.38589549 89.88007211 -38.61319621 93.23796045 -40.9375 96.75 C-41.92722541 98.26162573 -42.91680435 99.77334738 -43.90625 101.28515625 C-44.41542969 102.06004395 -44.92460937 102.83493164 -45.44921875 103.63330078 C-47.96465814 107.4721971 -50.44950313 111.33078614 -52.9375 115.1875 C-53.82107686 116.55633683 -54.70516514 117.92484372 -55.58984375 119.29296875 C-55.99315918 119.92380371 -56.39647461 120.55463867 -56.81201172 121.20458984 C-57.93743647 122.90544756 -59.15617937 124.54347098 -60.37890625 126.17578125 C-62.23965915 128.79676736 -62.23965915 128.79676736 -61.80249023 131.3269043 C-60.86412457 134.45260117 -59.50615768 136.82164326 -57.78125 139.59375 C-57.10513672 140.69138672 -56.42902344 141.78902344 -55.73242188 142.91992188 C-55.36947021 143.50185303 -55.00651855 144.08378418 -54.63256836 144.68334961 C-52.67659659 147.82074688 -50.7458635 150.9736392 -48.8125 154.125 C-48.41172241 154.77698364 -48.01094482 155.42896729 -47.59802246 156.10070801 C-43.46367223 162.84150546 -39.47615109 169.66512739 -35.5 176.5 C-29.55087159 186.71370763 -23.47652511 196.84193266 -17.3117981 206.92678833 C-11.403217 216.60075367 -5.68604156 226.37143999 -0.06591797 236.21582031 C3.73468953 242.86247378 7.65635661 249.38785677 11.875 255.77734375 C12.24625 256.51082031 12.6175 257.24429687 13 258 C11.80103946 261.59688162 10.80949622 262.0646268 7.6875 264.0625 C6.51767578 264.82240234 6.51767578 264.82240234 5.32421875 265.59765625 C3.25375463 266.84689427 1.16782558 267.93363641 -1 269 C-5.69017403 262.22567589 -9.89616097 255.19673761 -14.02972412 248.0743103 C-15.91465713 244.82717313 -17.80930827 241.5857113 -19.703125 238.34375 C-20.2648793 237.38144722 -20.2648793 237.38144722 -20.83798218 236.39970398 C-23.81365591 231.30673499 -26.8290129 226.23875741 -29.875 221.1875 C-33.3930867 215.35272953 -36.89113885 209.50673723 -40.36328125 203.64453125 C-40.94711327 202.65886673 -40.94711327 202.65886673 -41.54273987 201.65328979 C-42.34908293 200.29189196 -43.15542343 198.93049261 -43.96176147 197.5690918 C-50.77168024 186.07369799 -57.62565985 174.60681184 -64.5625 163.1875 C-65.11071915 162.28451172 -65.11071915 162.28451172 -65.67001343 161.36328125 C-69.74152229 154.62242341 -69.74152229 154.62242341 -74 148 C-79.3291003 155.94163103 -84.61651518 163.90799172 -89.8125 171.9375 C-90.4772937 172.96411743 -90.4772937 172.96411743 -91.15551758 174.01147461 C-94.14825525 178.64682163 -97.0877421 183.31370662 -100 188 C-103.40827138 186.33415949 -106.55704159 184.42761612 -109.75 182.375 C-110.73484375 181.74335938 -111.7196875 181.11171875 -112.734375 180.4609375 C-113.48203125 179.97882813 -114.2296875 179.49671875 -115 179 C-112.46589801 173.72976055 -109.74854758 168.87487552 -106.4375 164.0625 C-105.5562304 162.76113472 -104.67606585 161.45902057 -103.796875 160.15625 C-103.34119141 159.48207031 -102.88550781 158.80789063 -102.41601562 158.11328125 C-99.96559888 154.45624549 -97.57598037 150.76017307 -95.1875 147.0625 C-94.74398193 146.37744385 -94.30046387 145.6923877 -93.84350586 144.98657227 C-92.98574988 143.65831451 -92.13458675 142.32577279 -91.29052734 140.98876953 C-90.39613134 139.61045892 -89.46075762 138.25821377 -88.49462891 136.92919922 C-85.54766315 132.87167764 -85.54766315 132.87167764 -85.375 128.03125 C-87.47636267 124.11140041 -89.66435135 120.28514754 -92 116.5 C-93.0681396 114.74505408 -94.13581577 112.98982605 -95.203125 111.234375 C-95.79673828 110.26177734 -96.39035156 109.28917969 -97.00195312 108.28710938 C-100.53311697 102.4777753 -104.02138255 96.64267298 -107.51513672 90.81079102 C-109.50337014 87.49274468 -111.49394489 84.17610388 -113.484375 80.859375 C-114.65625 78.90625 -115.828125 76.953125 -117 75 C-114.53246519 72.44465732 -112.05133409 70.65147367 -109 68.8125 C-108.13375 68.28269531 -107.2675 67.75289063 -106.375 67.20703125 C-104 66 -104 66 -101 66 C-99.25756836 68.39233398 -99.25756836 68.39233398 -97.33984375 71.74609375 C-96.82020554 72.64380241 -96.82020554 72.64380241 -96.29006958 73.55964661 C-95.16225777 75.51321096 -94.05010654 77.47524337 -92.9375 79.4375 C-92.1703706 80.77053719 -91.40205839 82.10289439 -90.63256836 83.43457031 C-88.75026777 86.69610741 -86.87878029 89.96368563 -85.01062012 93.2333374 C-82.7130657 97.24968675 -80.39179028 101.25200456 -78.0625 105.25 C-77.66861084 105.93892334 -77.27472168 106.62784668 -76.86889648 107.33764648 C-75.02651761 110.75090364 -75.02651761 110.75090364 -72 113 C-71.73807861 112.28231445 -71.47615723 111.56462891 -71.20629883 110.82519531 C-69.95454628 107.89354575 -68.46500465 105.44834512 -66.69921875 102.796875 C-66.05146484 101.81589844 -65.40371094 100.83492188 -64.73632812 99.82421875 C-64.06021484 98.80972656 -63.38410156 97.79523438 -62.6875 96.75 C-61.35504883 94.74679988 -60.02557294 92.74161724 -58.69921875 90.734375 C-58.10971436 89.84975586 -57.52020996 88.96513672 -56.9128418 88.05371094 C-54.45406263 84.12845123 -52.24938455 80.04889219 -50 76 C-63.86 69.07 -77.72 62.14 -92 55 C-90.57148766 51.42871914 -89.10525515 48.10247728 -87.375 44.6875 C-86.92898437 43.80449219 -86.48296875 42.92148438 -86.0234375 42.01171875 C-85.68570313 41.34785156 -85.34796875 40.68398437 -85 40 C-81.61068679 40.57345861 -78.82610563 41.40206097 -75.76049805 42.94946289 C-74.96004562 43.3498024 -74.1595932 43.75014191 -73.33488464 44.16261292 C-72.06116753 44.81108437 -72.06116753 44.81108437 -70.76171875 45.47265625 C-69.88095169 45.9151622 -69.00018463 46.35766815 -68.09272766 46.81358337 C-65.28811199 48.22426842 -62.48779125 49.64325329 -59.6875 51.0625 C-57.78348059 52.02203515 -55.87918674 52.98102593 -53.97460938 53.93945312 C-49.31320654 56.28666781 -44.65529956 58.64070576 -40 61 C-35.59521994 55.03856214 -31.27351793 49.0941497 -27.4375 42.75 C-22.58056394 34.85075353 -17.52497158 27.0877241 -12.44116211 19.33300781 C-8.24092339 12.92185139 -4.09933667 6.47615076 0 0 Z " fill="#EC6470" transform="translate(218,122)"/>
<path d="M0 0 C0.70898438 0.43828125 1.41796875 0.8765625 2.1484375 1.328125 C11.91639578 7.73714111 17.91740398 19.00907728 21 30 C21.1750708 30.60602051 21.3501416 31.21204102 21.53051758 31.83642578 C22.45380352 36.09131919 22.18466029 40.47626075 22.1875 44.8125 C22.19974609 45.78509766 22.21199219 46.75769531 22.22460938 47.75976562 C22.23575193 53.24561846 21.82847804 57.81810769 20 63 C20.85099274 63.26283783 21.70198547 63.52567566 22.57876587 63.79647827 C26.133221 65.04686448 29.37264273 66.56634559 32.73974609 68.25634766 C33.38435791 68.57850754 34.02896973 68.90066742 34.69311523 69.23258972 C36.80514335 70.28929568 38.91428716 71.35162589 41.0234375 72.4140625 C42.49442307 73.15142203 43.96558667 73.88842652 45.43692017 74.62509155 C49.29542333 76.55814808 53.15149897 78.49599879 57.00708008 80.43487549 C60.94726888 82.41522762 64.88974665 84.39101174 68.83203125 86.3671875 C76.5569284 90.2403377 84.27926568 94.11855831 92 98 C91.25637889 101.90328748 90.21983952 105.54821302 88.9375 109.3125 C88.57527344 110.38113281 88.21304688 111.44976562 87.83984375 112.55078125 C87.56269531 113.35902344 87.28554687 114.16726563 87 115 C82.47040942 113.60485918 78.29568894 111.78606318 74.07666016 109.65185547 C73.4125412 109.31994202 72.74842224 108.98802856 72.06417847 108.64605713 C69.88721992 107.5568857 67.71314427 106.46208834 65.5390625 105.3671875 C64.02323639 104.60740779 62.50723232 103.84798302 60.99105835 103.08889771 C57.0141883 101.09665702 53.03974501 99.09962185 49.0657959 97.1015625 C45.00496021 95.06088848 40.9418368 93.02478031 36.87890625 90.98828125 C28.91703123 86.99664085 20.95771368 82.99992922 13 79 C12.22744873 79.77794922 11.45489746 80.55589844 10.65893555 81.35742188 C-1.02085008 92.965355 -14.26342058 101.25675985 -31.09326172 101.46777344 C-32.01123535 101.4577832 -32.92920898 101.44779297 -33.875 101.4375 C-34.83809082 101.43137695 -35.80118164 101.42525391 -36.79345703 101.41894531 C-44.11926647 101.25826449 -50.32396092 100.13588088 -57 97 C-58.04220703 96.58427734 -58.04220703 96.58427734 -59.10546875 96.16015625 C-71.86734533 90.63255701 -80.67502518 79.80188085 -86.66796875 67.60546875 C-92.30969155 53.27201613 -92.13182638 36.52692359 -86.55859375 22.20703125 C-84.20736129 17.36903164 -81.40699759 13.15047375 -78 9 C-77.22398438 8.01257813 -76.44796875 7.02515625 -75.6484375 6.0078125 C-56.42750354 -16.86683706 -22.72978147 -15.90380995 0 0 Z " fill="#4D9BB8" transform="translate(114,307)"/>
<path d="M0 0 C1.49193704 1.15029083 2.9729331 2.31505741 4.4375 3.5 C5.46875 4.2425 6.5 4.985 7.5625 5.75 C15.00568006 12.86956353 19.47420142 20.71524677 22.4375 30.5 C22.79328125 31.3765625 23.1490625 32.253125 23.515625 33.15625 C26.62505181 44.43450996 25.92012767 59.16179006 20.4375 69.5 C19.90511719 70.58667969 19.37273437 71.67335938 18.82421875 72.79296875 C11.03183776 88.08400462 -0.32131744 96.83260998 -16.62109375 102.578125 C-21.44370511 103.90440695 -26.27709819 103.88349633 -31.25 103.875 C-32.22662598 103.87338867 -33.20325195 103.87177734 -34.20947266 103.87011719 C-41.60908862 103.74455392 -47.81683797 102.66858429 -54.5625 99.5 C-55.60470703 99.08427734 -55.60470703 99.08427734 -56.66796875 98.66015625 C-69.42984533 93.13255701 -78.23752518 82.30188085 -84.23046875 70.10546875 C-89.87219155 55.77201613 -89.69432638 39.02692359 -84.12109375 24.70703125 C-81.76986129 19.86903164 -78.96949759 15.65047375 -75.5625 11.5 C-74.78648438 10.51257813 -74.01046875 9.52515625 -73.2109375 8.5078125 C-55.75628726 -12.2647997 -21.83894221 -14.78577273 0 0 Z " fill="#91CBD7" transform="translate(111.5625,96.5)"/>
<path d="M0 0 C2.46442394 1.66850628 4.7745685 3.39744335 7.07421875 5.28515625 C8.06164062 6.06117188 9.0490625 6.8371875 10.06640625 7.63671875 C19.69680078 15.72887233 26.0131082 28.46662015 27.35205078 40.85595703 C28.55195591 57.76589821 26.07579111 71.88281704 15.07421875 85.28515625 C14.29820312 86.27257812 13.5221875 87.26 12.72265625 88.27734375 C4.63050267 97.90773828 -8.10724515 104.2240457 -20.49658203 105.56298828 C-35.02131663 106.59364258 -49.7103487 105.57837019 -61.2890625 95.7578125 C-61.82917969 95.27183594 -62.36929687 94.78585937 -62.92578125 94.28515625 C-64.00871134 93.4304784 -65.09202271 92.57628335 -66.17578125 91.72265625 C-68.79253096 89.40326446 -70.80009259 87.04855151 -72.92578125 84.28515625 C-73.56 83.70507812 -74.19421875 83.125 -74.84765625 82.52734375 C-77.31700377 79.86304774 -78.56506167 77.28246609 -80.05078125 73.97265625 C-80.54835938 72.88339844 -81.0459375 71.79414063 -81.55859375 70.671875 C-84.32802517 63.81159775 -85.28628194 57.92019595 -85.23828125 50.59765625 C-85.2333667 49.71352051 -85.22845215 48.82938477 -85.22338867 47.91845703 C-84.93511545 31.76037319 -79.44993092 19.55800048 -67.92578125 8.28515625 C-49.95145508 -8.86967176 -21.75583164 -12.75141534 0 0 Z " fill="#FECF86" transform="translate(460.92578125,206.71484375)"/>
<path d="M0 0 C3.40827138 1.66584051 6.55704159 3.57238388 9.75 5.625 C11.22726563 6.57246094 11.22726563 6.57246094 12.734375 7.5390625 C13.48203125 8.02117187 14.2296875 8.50328125 15 9 C11.06301867 16.69791879 6.53727293 23.83727184 1.703125 30.984375 C-1.06569042 35.07932842 -3.7587455 39.22073326 -6.4375 43.375 C-6.88673828 44.07117432 -7.33597656 44.76734863 -7.79882812 45.48461914 C-8.71968944 46.91224891 -9.64025897 48.34006693 -10.56054688 49.76806641 C-13.0980885 53.70263316 -15.64329555 57.63223978 -18.1875 61.5625 C-19.11852184 63.00128121 -20.04951453 64.44008128 -20.98046875 65.87890625 C-21.64691406 66.90886719 -22.31335938 67.93882812 -23 69 C-18.05 71.64 -13.1 74.28 -8 77 C-10.16925333 82.42313332 -12.56875006 87.68963829 -15 93 C-21.27 90.03 -27.54 87.06 -34 84 C-34.66 85.65 -35.32 87.3 -36 89 C-36.70049775 90.22550882 -37.43871809 91.43030845 -38.21484375 92.609375 C-38.8653772 93.60553833 -38.8653772 93.60553833 -39.52905273 94.62182617 C-39.99384033 95.32412354 -40.45862793 96.0264209 -40.9375 96.75 C-41.92722541 98.26162573 -42.91680435 99.77334738 -43.90625 101.28515625 C-44.41542969 102.06004395 -44.92460937 102.83493164 -45.44921875 103.63330078 C-47.96465814 107.4721971 -50.44950313 111.33078614 -52.9375 115.1875 C-53.82107686 116.55633683 -54.70516514 117.92484372 -55.58984375 119.29296875 C-55.99315918 119.92380371 -56.39647461 120.55463867 -56.81201172 121.20458984 C-57.93743647 122.90544756 -59.15617937 124.54347098 -60.37890625 126.17578125 C-62.23965915 128.79676736 -62.23965915 128.79676736 -61.80249023 131.3269043 C-60.86412457 134.45260117 -59.50615768 136.82164326 -57.78125 139.59375 C-57.10513672 140.69138672 -56.42902344 141.78902344 -55.73242188 142.91992188 C-55.36947021 143.50185303 -55.00651855 144.08378418 -54.63256836 144.68334961 C-52.67659659 147.82074688 -50.7458635 150.9736392 -48.8125 154.125 C-48.41172241 154.77698364 -48.01094482 155.42896729 -47.59802246 156.10070801 C-43.46367223 162.84150546 -39.47615109 169.66512739 -35.5 176.5 C-29.55087159 186.71370763 -23.47652511 196.84193266 -17.3117981 206.92678833 C-11.403217 216.60075367 -5.68604156 226.37143999 -0.06591797 236.21582031 C3.73468953 242.86247378 7.65635661 249.38785677 11.875 255.77734375 C12.24625 256.51082031 12.6175 257.24429687 13 258 C11.80103946 261.59688162 10.80949622 262.0646268 7.6875 264.0625 C6.51767578 264.82240234 6.51767578 264.82240234 5.32421875 265.59765625 C3.25375463 266.84689427 1.16782558 267.93363641 -1 269 C-5.69017403 262.22567589 -9.89616097 255.19673761 -14.02972412 248.0743103 C-15.91465713 244.82717313 -17.80930827 241.5857113 -19.703125 238.34375 C-20.2648793 237.38144722 -20.2648793 237.38144722 -20.83798218 236.39970398 C-23.81365591 231.30673499 -26.8290129 226.23875741 -29.875 221.1875 C-33.3930867 215.35272953 -36.89113885 209.50673723 -40.36328125 203.64453125 C-40.94711327 202.65886673 -40.94711327 202.65886673 -41.54273987 201.65328979 C-42.34908293 200.29189196 -43.15542343 198.93049261 -43.96176147 197.5690918 C-50.77168024 186.07369799 -57.62565985 174.60681184 -64.5625 163.1875 C-65.11071915 162.28451172 -65.11071915 162.28451172 -65.67001343 161.36328125 C-69.74152229 154.62242341 -69.74152229 154.62242341 -74 148 C-79.3291003 155.94163103 -84.61651518 163.90799172 -89.8125 171.9375 C-90.4772937 172.96411743 -90.4772937 172.96411743 -91.15551758 174.01147461 C-94.14825525 178.64682163 -97.0877421 183.31370662 -100 188 C-103.40827138 186.33415949 -106.55704159 184.42761612 -109.75 182.375 C-110.73484375 181.74335938 -111.7196875 181.11171875 -112.734375 180.4609375 C-113.48203125 179.97882813 -114.2296875 179.49671875 -115 179 C-112.46589801 173.72976055 -109.74854758 168.87487552 -106.4375 164.0625 C-105.5562304 162.76113472 -104.67606585 161.45902057 -103.796875 160.15625 C-103.34119141 159.48207031 -102.88550781 158.80789063 -102.41601562 158.11328125 C-99.96559888 154.45624549 -97.57598037 150.76017307 -95.1875 147.0625 C-94.74398193 146.37744385 -94.30046387 145.6923877 -93.84350586 144.98657227 C-92.98574988 143.65831451 -92.13458675 142.32577279 -91.29052734 140.98876953 C-90.39613134 139.61045892 -89.46075762 138.25821377 -88.49462891 136.92919922 C-85.54766315 132.87167764 -85.54766315 132.87167764 -85.375 128.03125 C-87.47636267 124.11140041 -89.66435135 120.28514754 -92 116.5 C-93.0681396 114.74505408 -94.13581577 112.98982605 -95.203125 111.234375 C-95.79673828 110.26177734 -96.39035156 109.28917969 -97.00195312 108.28710938 C-100.53311697 102.4777753 -104.02138255 96.64267298 -107.51513672 90.81079102 C-109.50337014 87.49274468 -111.49394489 84.17610388 -113.484375 80.859375 C-114.65625 78.90625 -115.828125 76.953125 -117 75 C-114.53246519 72.44465732 -112.05133409 70.65147367 -109 68.8125 C-108.13375 68.28269531 -107.2675 67.75289063 -106.375 67.20703125 C-104 66 -104 66 -101 66 C-99.25756836 68.39233398 -99.25756836 68.39233398 -97.33984375 71.74609375 C-96.82020554 72.64380241 -96.82020554 72.64380241 -96.29006958 73.55964661 C-95.16225777 75.51321096 -94.05010654 77.47524337 -92.9375 79.4375 C-92.1703706 80.77053719 -91.40205839 82.10289439 -90.63256836 83.43457031 C-88.75026777 86.69610741 -86.87878029 89.96368563 -85.01062012 93.2333374 C-82.7130657 97.24968675 -80.39179028 101.25200456 -78.0625 105.25 C-77.66861084 105.93892334 -77.27472168 106.62784668 -76.86889648 107.33764648 C-75.02651761 110.75090364 -75.02651761 110.75090364 -72 113 C-71.73807861 112.28231445 -71.47615723 111.56462891 -71.20629883 110.82519531 C-69.95454628 107.89354575 -68.46500465 105.44834512 -66.69921875 102.796875 C-66.05146484 101.81589844 -65.40371094 100.83492188 -64.73632812 99.82421875 C-64.06021484 98.80972656 -63.38410156 97.79523438 -62.6875 96.75 C-61.35504883 94.74679988 -60.02557294 92.74161724 -58.69921875 90.734375 C-58.10971436 89.84975586 -57.52020996 88.96513672 -56.9128418 88.05371094 C-54.45406263 84.12845123 -52.24938455 80.04889219 -50 76 C-63.86 69.07 -77.72 62.14 -92 55 C-90.57148766 51.42871914 -89.10525515 48.10247728 -87.375 44.6875 C-86.92898437 43.80449219 -86.48296875 42.92148438 -86.0234375 42.01171875 C-85.68570313 41.34785156 -85.34796875 40.68398437 -85 40 C-81.61068679 40.57345861 -78.82610563 41.40206097 -75.76049805 42.94946289 C-74.96004562 43.3498024 -74.1595932 43.75014191 -73.33488464 44.16261292 C-72.06116753 44.81108437 -72.06116753 44.81108437 -70.76171875 45.47265625 C-69.88095169 45.9151622 -69.00018463 46.35766815 -68.09272766 46.81358337 C-65.28811199 48.22426842 -62.48779125 49.64325329 -59.6875 51.0625 C-57.78348059 52.02203515 -55.87918674 52.98102593 -53.97460938 53.93945312 C-49.31320654 56.28666781 -44.65529956 58.64070576 -40 61 C-35.59521994 55.03856214 -31.27351793 49.0941497 -27.4375 42.75 C-22.58056394 34.85075353 -17.52497158 27.0877241 -12.44116211 19.33300781 C-8.24092339 12.92185139 -4.09933667 6.47615076 0 0 Z " fill="#67607B" transform="translate(218,122)"/>
<path d="M0 0 C5.68801042 4.73055855 10.93014909 9.7939046 16.14819336 15.03466797 C17.03679047 15.92311905 17.92538757 16.81157013 18.84091187 17.72694397 C21.25752678 20.14413289 23.67191301 22.56350688 26.08530498 24.98391104 C28.6152501 27.52014124 31.14805995 30.0535074 33.68055725 32.58718872 C38.46703323 37.37676289 43.2509561 42.16887864 48.03394943 46.96193039 C53.48304685 52.42223607 58.93501111 57.8796755 64.38720882 63.33688521 C75.59464808 74.5547546 86.79851168 85.77618817 98 97 C95.24776261 100.54862949 92.5209514 103.22030153 89 106 C88.34 106.99 87.68 107.98 87 109 C83.25965503 108.42738167 81.55160701 106.92284355 78.91241455 104.2731781 C78.10757126 103.4724588 77.30272797 102.6717395 76.47349548 101.84675598 C75.59955643 100.9620311 74.72561737 100.07730621 73.82519531 99.16577148 C72.898022 98.23903625 71.97084869 97.31230103 71.01557922 96.35748291 C68.47401182 93.8167767 65.94180407 91.26692297 63.41116047 88.71534228 C60.7646412 86.05007701 58.10963133 83.39329753 55.45550537 80.73561096 C50.43116108 75.70194012 45.41451344 70.66067038 40.40057731 65.61663443 C34.69188372 59.87441588 28.97467547 54.14070735 23.25673151 48.40770233 C11.49497868 36.61458664 -0.25602021 24.81081534 -12 13 C-9.18323661 9.42372716 -6.26214901 6.17850417 -3 3 C-1.99881727 2.00118413 -0.99855178 1.00144613 0 0 Z " fill="#68607C" transform="translate(301,113)"/>
<path d="M0 0 C9.42599879 7.45238095 9.42599879 7.45238095 12 13 C4.58956748 21.0162489 -2.8720285 28.93067361 -10.63671875 36.60546875 C-12.60312246 38.59787449 -14.4438474 40.61462465 -16.25 42.75 C-19.77631591 46.8925653 -23.63761379 50.67491801 -27.5 54.5 C-31.86531992 58.82328 -36.10613973 63.14676846 -40.06640625 67.84765625 C-43.50957087 71.68035061 -47.22814967 75.2464681 -50.88916016 78.86962891 C-53.84893732 81.81048872 -56.74711363 84.74397644 -59.4375 87.9375 C-61.73837839 90.60886169 -64.10460542 93.1598245 -66.609375 95.640625 C-67.27654541 96.30457275 -67.94371582 96.96852051 -68.63110352 97.65258789 C-69.97521894 98.98266056 -71.32195641 100.31009011 -72.67163086 101.63452148 C-76.02107407 104.93926534 -79.15635351 108.23486807 -82 112 C-85.70865471 110.76378176 -86.7572654 109.21090661 -89.1875 106.1875 C-89.90292969 105.31480469 -90.61835938 104.44210937 -91.35546875 103.54296875 C-93 101 -93 101 -93 97 C-90.83984375 94.484375 -90.83984375 94.484375 -87.9375 91.75 C-84.74375919 88.68554408 -81.5913655 85.65068941 -78.75 82.25 C-75.2236839 78.10743449 -71.36238394 74.32508424 -67.5 70.5 C-61.82499611 64.9145569 -61.82499611 64.9145569 -56.5 59 C-52.46264775 54.20564421 -47.92023917 49.89694244 -43.47094727 45.49047852 C-39.79007002 41.83153029 -36.2783384 38.12259909 -32.93359375 34.15234375 C-29.49388014 30.32349082 -25.77927894 26.7607761 -22.12182617 23.14135742 C-18.4923418 19.53517944 -15.0354819 15.86136677 -11.73046875 11.953125 C-8.02780341 7.77404448 -3.98241005 3.91029397 0 0 Z " fill="#675F7B" transform="translate(387,290)"/>
<path d="M0 0 C4.35133901 0.6247566 7.93263434 2.26218836 11.80981445 4.23461914 C12.47378738 4.56638657 13.13776031 4.89815399 13.82185364 5.23997498 C16.00522412 6.33270118 18.1842257 7.43385414 20.36328125 8.53515625 C21.88044913 9.29653921 23.39788366 10.05739103 24.91557312 10.81773376 C28.90157413 12.8164504 32.88391806 14.82234925 36.86553955 16.82977295 C40.93226117 18.8785015 45.00240537 20.92040629 49.07226562 22.96289062 C57.05153872 26.96859499 65.0269644 30.98189642 73 35 C72.25637889 38.90328748 71.21983952 42.54821302 69.9375 46.3125 C69.57527344 47.38113281 69.21304688 48.44976562 68.83984375 49.55078125 C68.42412109 50.76314453 68.42412109 50.76314453 68 52 C63.47040942 50.60485918 59.29568894 48.78606318 55.07666016 46.65185547 C54.4125412 46.31994202 53.74842224 45.98802856 53.06417847 45.64605713 C50.88721992 44.5568857 48.71314427 43.46208834 46.5390625 42.3671875 C45.02323639 41.60740779 43.50723232 40.84798302 41.99105835 40.08889771 C38.0141883 38.09665702 34.03974501 36.09962185 30.0657959 34.1015625 C26.00496021 32.06088848 21.9418368 30.02478031 17.87890625 27.98828125 C9.91703123 23.99664085 1.95771368 19.99992922 -6 16 C-6 11.54348712 -5.03477741 9.64999003 -3 5.75 C-2.443125 4.67234375 -1.88625 3.5946875 -1.3125 2.484375 C-0.879375 1.66453125 -0.44625 0.8446875 0 0 Z " fill="#67607C" transform="translate(133,370)"/>
<path d="M0 0 C5.28 0 10.56 0 16 0 C16 29.04 16 58.08 16 88 C10.72 88 5.44 88 0 88 C0 58.96 0 29.92 0 0 Z " fill="#68607C" transform="translate(248,288)"/>
<path d="M0 0 C0.76336795 1.93002463 1.43829517 3.8955824 2.0625 5.875 C2.40410156 6.94492188 2.74570313 8.01484375 3.09765625 9.1171875 C3.54431641 10.54417969 3.54431641 10.54417969 4 12 C4.495 13.485 4.495 13.485 5 15 C-3.49760817 18.62627102 -12.0749024 21.95186209 -20.75390625 25.1171875 C-21.37904554 25.3455341 -22.00418484 25.57388069 -22.64826775 25.80914688 C-25.93796835 27.010647 -29.22882722 28.20890459 -32.52075195 29.40429688 C-35.91310883 30.63688164 -39.30122378 31.8807329 -42.68856907 33.12701225 C-45.30882779 34.08879849 -47.93200957 35.0424001 -50.55607414 35.99374771 C-52.41448929 36.66989431 -54.26972181 37.35476788 -56.12489319 38.0397644 C-57.80826027 38.6463237 -57.80826027 38.6463237 -59.52563477 39.26513672 C-60.51314224 39.62533905 -61.50064972 39.98554138 -62.51808167 40.35665894 C-65 41 -65 41 -68 40 C-68.9140625 37.890625 -68.9140625 37.890625 -69.625 35.25 C-69.86476562 34.38890625 -70.10453125 33.5278125 -70.3515625 32.640625 C-70.97447901 30.10392885 -71.49575838 27.5624691 -72 25 C-63.49244619 21.36738819 -54.90347585 18.04478959 -46.2109375 14.8828125 C-44.93249622 14.41676275 -43.65406419 13.95068762 -42.37564087 13.48458862 C-39.72596855 12.51949633 -37.07540643 11.55689361 -34.42431641 10.59570312 C-31.02330778 9.36203013 -27.6259514 8.11859708 -24.22929955 6.87298775 C-21.60441395 5.9122471 -18.97709967 4.95829578 -16.34904861 4.00625229 C-14.48489609 3.32901652 -12.62333163 2.64467061 -10.7618103 1.9602356 C-9.63949005 1.55586273 -8.5171698 1.15148987 -7.36083984 0.73486328 C-6.37111176 0.37466095 -5.38138367 0.01445862 -4.36166382 -0.35665894 C-2 -1 -2 -1 0 0 Z " fill="#68607C" transform="translate(202,92)"/>
<path d="M0 0 C8.12084548 0.62098133 16.15648283 1.47508503 24.22265625 2.59375 C25.8845121 2.82112854 25.8845121 2.82112854 27.5799408 3.05310059 C29.89685019 3.3709267 32.21354515 3.69031962 34.5300293 4.01123047 C38.08385898 4.50295533 41.63854326 4.98811973 45.19335938 5.47265625 C47.45317846 5.78346575 49.71294602 6.09465006 51.97265625 6.40625 C53.5663076 6.62347717 53.5663076 6.62347717 55.19215393 6.84509277 C56.66530312 7.05035583 56.66530312 7.05035583 58.16821289 7.25976562 C59.03136612 7.37888306 59.89451935 7.49800049 60.78382874 7.62072754 C63 8 63 8 66 9 C65.34 14.61 64.68 20.22 64 26 C56.68978089 25.0415465 49.37981524 24.08118898 42.07006836 23.11914062 C39.58836469 22.79278313 37.10659502 22.46692705 34.62475586 22.14160156 C31.03741863 21.67127301 27.45033031 21.19908323 23.86328125 20.7265625 C22.77106766 20.58376862 21.67885406 20.44097473 20.55354309 20.29385376 C13.01823273 19.29877603 5.50924208 18.17606492 -2 17 C-1.34 11.39 -0.68 5.78 0 0 Z " fill="#685F7B" transform="translate(312,231)"/>
</svg>
