<?xml version="1.0" encoding="UTF-8"?>
<svg version="1.1" xmlns="http://www.w3.org/2000/svg" width="512" height="512">
<path d="M0 0 C1.32396412 -0.00935994 1.32396412 -0.00935994 2.67467499 -0.01890898 C5.63820449 -0.03488939 8.60091723 -0.02221496 11.56445312 -0.00964355 C13.68660971 -0.01506242 15.80876253 -0.02218375 17.9309082 -0.03088379 C23.69944448 -0.04914793 29.46769519 -0.04203675 35.23623657 -0.02936745 C41.26687401 -0.01925584 47.29748663 -0.02862801 53.328125 -0.03491211 C63.45642497 -0.04219387 73.58460835 -0.03258689 83.71289062 -0.0135498 C95.43046156 0.00821986 107.14775411 0.00116887 118.8653183 -0.02085543 C128.9172072 -0.03899431 138.96901219 -0.04157513 149.02091217 -0.03110075 C155.02822942 -0.02485753 161.03541572 -0.024053 167.04272461 -0.0372467 C172.68986066 -0.04878253 178.33663703 -0.04082075 183.98373413 -0.01766968 C186.05902509 -0.01237048 188.1343462 -0.01391694 190.20962524 -0.02272034 C193.03729732 -0.0336115 195.86380863 -0.01999008 198.69140625 0 C199.51747124 -0.00892289 200.34353622 -0.01784577 201.19463348 -0.02703905 C204.78157328 0.02232735 206.91794382 0.19552547 209.85485077 2.34046173 C211.9878291 5.44148818 211.85381342 7.76490606 211.86328125 11.50793457 C211.87029053 12.20435059 211.8772998 12.9007666 211.88452148 13.61828613 C211.90209508 15.91524389 211.89048232 18.21096478 211.87695312 20.50793457 C211.87964826 22.1068953 211.88353085 23.70585444 211.8885498 25.30480957 C211.89444394 28.65392683 211.88588505 32.002617 211.8671875 35.35168457 C211.84439748 39.64272048 211.85752108 43.93275568 211.88147736 48.22375488 C211.89593792 51.52493823 211.89132828 54.82588468 211.88096619 58.1270752 C211.87829959 59.70910765 211.88156635 61.29116168 211.8908844 62.87316895 C211.90105491 65.0853362 211.88554503 67.29588757 211.86328125 69.50793457 C211.86009888 70.76605957 211.8569165 72.02418457 211.8536377 73.32043457 C211.25515249 77.07617734 210.37733235 78.27664997 207.34570312 80.50793457 C203.27974825 81.03461266 199.4642843 80.68700332 195.34570312 80.50793457 C195.34570312 85.78793457 195.34570312 91.06793457 195.34570312 96.50793457 C197.24320313 96.42543457 199.14070312 96.34293457 201.09570312 96.25793457 C206.67636064 96.01529729 206.67636064 96.01529729 209.50183105 98.09484863 C211.99002947 101.35116815 211.85297165 103.43211897 211.86328125 107.50793457 C211.87029053 108.20435059 211.8772998 108.9007666 211.88452148 109.61828613 C211.90209508 111.91524389 211.89048232 114.21096478 211.87695312 116.50793457 C211.87964826 118.1068953 211.88353085 119.70585444 211.8885498 121.30480957 C211.89444394 124.65392683 211.88588505 128.002617 211.8671875 131.35168457 C211.84439748 135.64272048 211.85752108 139.93275568 211.88147736 144.22375488 C211.89593792 147.52493823 211.89132828 150.82588468 211.88096619 154.1270752 C211.87829959 155.70910765 211.88156635 157.29116168 211.8908844 158.87316895 C211.90105491 161.0853362 211.88554503 163.29588757 211.86328125 165.50793457 C211.86009888 166.76605957 211.8569165 168.02418457 211.8536377 169.32043457 C211.25515249 173.07617734 210.37733235 174.27664997 207.34570312 176.50793457 C203.27974825 177.03461266 199.4642843 176.68700332 195.34570312 176.50793457 C195.34570312 181.78793457 195.34570312 187.06793457 195.34570312 192.50793457 C197.24320313 192.42543457 199.14070312 192.34293457 201.09570312 192.25793457 C206.67636064 192.01529729 206.67636064 192.01529729 209.50183105 194.09484863 C211.99002947 197.35116815 211.85297165 199.43211897 211.86328125 203.50793457 C211.87029053 204.20435059 211.8772998 204.9007666 211.88452148 205.61828613 C211.90209508 207.91524389 211.89048232 210.21096478 211.87695312 212.50793457 C211.87964826 214.1068953 211.88353085 215.70585444 211.8885498 217.30480957 C211.89444394 220.65392683 211.88588505 224.002617 211.8671875 227.35168457 C211.84439748 231.64272048 211.85752108 235.93275568 211.88147736 240.22375488 C211.89593792 243.52493823 211.89132828 246.82588468 211.88096619 250.1270752 C211.87829959 251.70910765 211.88156635 253.29116168 211.8908844 254.87316895 C211.90105491 257.0853362 211.88554503 259.29588757 211.86328125 261.50793457 C211.86009888 262.76605957 211.8569165 264.02418457 211.8536377 265.32043457 C211.22630491 269.25720785 210.54696339 270.1699309 207.34570312 272.50793457 C204.33853774 272.90065775 201.69819313 273.04834748 198.69140625 273.01586914 C197.36744213 273.02522908 197.36744213 273.02522908 196.01673126 273.03477812 C193.05320176 273.05075853 190.09048902 273.0380841 187.12695312 273.0255127 C185.00479654 273.03093156 182.88264372 273.03805289 180.76049805 273.04675293 C174.99196177 273.06501707 169.22371106 273.05790589 163.45516968 273.04523659 C157.42453224 273.03512498 151.39391962 273.04449715 145.36328125 273.05078125 C135.23498128 273.05806301 125.1067979 273.04845603 114.97851562 273.02941895 C103.26094469 273.00764928 91.54365214 273.01470027 79.82608795 273.03672457 C69.77419905 273.05486346 59.72239406 273.05744427 49.67049408 273.04696989 C43.66317683 273.04072667 37.65599053 273.03992214 31.64868164 273.05311584 C26.00154559 273.06465167 20.35476922 273.05668989 14.70767212 273.03353882 C12.63238116 273.02823962 10.55706005 273.02978609 8.48178101 273.03858948 C5.65410893 273.04948065 2.82759762 273.03585923 0 273.01586914 C-1.23909748 273.02925347 -1.23909748 273.02925347 -2.50322723 273.04290819 C-6.09016703 272.99354179 -8.22653757 272.82034367 -11.16344452 270.67540741 C-13.29642285 267.57438096 -13.16240717 265.25096308 -13.171875 261.50793457 C-13.17888428 260.81151855 -13.18589355 260.11510254 -13.19311523 259.39758301 C-13.21068883 257.10062525 -13.19907607 254.80490436 -13.18554688 252.50793457 C-13.18824201 250.90897384 -13.1921246 249.3100147 -13.19714355 247.71105957 C-13.20303769 244.36194231 -13.1944788 241.01325214 -13.17578125 237.66418457 C-13.15299123 233.37314866 -13.16611483 229.08311346 -13.19007111 224.79211426 C-13.20453167 221.49093091 -13.19992203 218.18998446 -13.18955994 214.88879395 C-13.18689334 213.30676149 -13.1901601 211.72470746 -13.19947815 210.1427002 C-13.20964866 207.93053294 -13.19413878 205.71998157 -13.171875 203.50793457 C-13.16869263 202.24980957 -13.16551025 200.99168457 -13.16223145 199.69543457 C-12.56374624 195.9396918 -11.6859261 194.73921917 -8.65429688 192.50793457 C-4.588342 191.98125648 -0.77287805 192.32886582 3.34570312 192.50793457 C3.34570312 187.22793457 3.34570312 181.94793457 3.34570312 176.50793457 C1.44820313 176.59043457 -0.44929688 176.67293457 -2.40429688 176.75793457 C-7.98495439 177.00057185 -7.98495439 177.00057185 -10.8104248 174.92102051 C-13.29862322 171.66470099 -13.1615654 169.58375017 -13.171875 165.50793457 C-13.17888428 164.81151855 -13.18589355 164.11510254 -13.19311523 163.39758301 C-13.21068883 161.10062525 -13.19907607 158.80490436 -13.18554688 156.50793457 C-13.18824201 154.90897384 -13.1921246 153.3100147 -13.19714355 151.71105957 C-13.20303769 148.36194231 -13.1944788 145.01325214 -13.17578125 141.66418457 C-13.15299123 137.37314866 -13.16611483 133.08311346 -13.19007111 128.79211426 C-13.20453167 125.49093091 -13.19992203 122.18998446 -13.18955994 118.88879395 C-13.18689334 117.30676149 -13.1901601 115.72470746 -13.19947815 114.1427002 C-13.20964866 111.93053294 -13.19413878 109.71998157 -13.171875 107.50793457 C-13.16869263 106.24980957 -13.16551025 104.99168457 -13.16223145 103.69543457 C-12.56374624 99.9396918 -11.6859261 98.73921917 -8.65429688 96.50793457 C-4.588342 95.98125648 -0.77287805 96.32886582 3.34570312 96.50793457 C3.34570312 91.22793457 3.34570312 85.94793457 3.34570312 80.50793457 C1.44820313 80.59043457 -0.44929688 80.67293457 -2.40429688 80.75793457 C-7.98495439 81.00057185 -7.98495439 81.00057185 -10.8104248 78.92102051 C-13.29862322 75.66470099 -13.1615654 73.58375017 -13.171875 69.50793457 C-13.17888428 68.81151855 -13.18589355 68.11510254 -13.19311523 67.39758301 C-13.21068883 65.10062525 -13.19907607 62.80490436 -13.18554688 60.50793457 C-13.18824201 58.90897384 -13.1921246 57.3100147 -13.19714355 55.71105957 C-13.20303769 52.36194231 -13.1944788 49.01325214 -13.17578125 45.66418457 C-13.15299123 41.37314866 -13.16611483 37.08311346 -13.19007111 32.79211426 C-13.20453167 29.49093091 -13.19992203 26.18998446 -13.18955994 22.88879395 C-13.18689334 21.30676149 -13.1901601 19.72470746 -13.19947815 18.1427002 C-13.20964866 15.93053294 -13.19413878 13.71998157 -13.171875 11.50793457 C-13.16869263 10.24980957 -13.16551025 8.99168457 -13.16223145 7.69543457 C-11.9499909 0.08812259 -6.67481719 -0.07209922 0 0 Z M3.34570312 16.50793457 C3.34570312 32.34793457 3.34570312 48.18793457 3.34570312 64.50793457 C66.70570313 64.50793457 130.06570313 64.50793457 195.34570312 64.50793457 C195.34570312 48.66793457 195.34570312 32.82793457 195.34570312 16.50793457 C131.98570312 16.50793457 68.62570312 16.50793457 3.34570312 16.50793457 Z M19.34570312 80.50793457 C19.34570312 85.78793457 19.34570312 91.06793457 19.34570312 96.50793457 C72.14570313 96.50793457 124.94570313 96.50793457 179.34570312 96.50793457 C179.34570312 91.22793457 179.34570312 85.94793457 179.34570312 80.50793457 C126.54570312 80.50793457 73.74570312 80.50793457 19.34570312 80.50793457 Z M3.34570312 112.50793457 C3.34570312 128.34793457 3.34570312 144.18793457 3.34570312 160.50793457 C66.70570313 160.50793457 130.06570313 160.50793457 195.34570312 160.50793457 C195.34570312 144.66793457 195.34570312 128.82793457 195.34570312 112.50793457 C131.98570312 112.50793457 68.62570312 112.50793457 3.34570312 112.50793457 Z M19.34570312 176.50793457 C19.34570312 181.78793457 19.34570312 187.06793457 19.34570312 192.50793457 C72.14570313 192.50793457 124.94570313 192.50793457 179.34570312 192.50793457 C179.34570312 187.22793457 179.34570312 181.94793457 179.34570312 176.50793457 C126.54570312 176.50793457 73.74570312 176.50793457 19.34570312 176.50793457 Z M3.34570312 208.50793457 C3.34570312 224.34793457 3.34570312 240.18793457 3.34570312 256.50793457 C66.70570313 256.50793457 130.06570313 256.50793457 195.34570312 256.50793457 C195.34570312 240.66793457 195.34570312 224.82793457 195.34570312 208.50793457 C131.98570312 208.50793457 68.62570312 208.50793457 3.34570312 208.50793457 Z " fill="#F7F7F7" transform="translate(276.654296875,119.4920654296875)"/>
<path d="M0 0 C10.25043521 7.74112867 18.70526266 17.59173526 20.6875 30.6875 C21.97572536 44.90925159 21.11213817 57.91166451 12.1875 69.6875 C11.03678146 71.03462127 9.87105938 72.36913887 8.6875 73.6875 C7.70483965 74.87211059 6.72523744 76.059271 5.75 77.25 C5.069375 78.054375 4.38875 78.85875 3.6875 79.6875 C4.56792969 79.94402344 5.44835937 80.20054687 6.35546875 80.46484375 C21.73987454 86.11000086 32.57737633 100.93516086 39.4375 115.125 C45.19516058 128.67355444 47.81626633 145.60082834 43.125 159.9375 C38.50979266 170.13613999 30.46286648 178.55496504 20.0546875 182.85351562 C11.91591326 185.68150954 3.57254048 185.26413675 -4.9375 185.21875 C-6.73388885 185.22145077 -8.53027626 185.22533802 -10.32666016 185.23034668 C-14.07533813 185.23621427 -17.82363256 185.22776786 -21.57226562 185.20898438 C-26.35001161 185.18619639 -31.12685845 185.19933428 -35.90457153 185.22327423 C-39.60919836 185.23780676 -43.31361599 185.23309227 -47.01824951 185.22276306 C-48.77870798 185.22011632 -50.53918616 185.22329231 -52.29962158 185.23268127 C-66.40842295 185.29143554 -77.64747267 183.86866976 -88.3125 173.6875 C-97.68951341 163.86484634 -99.93138331 153.90476065 -99.78100586 140.66455078 C-99.10209366 120.694251 -90.61842833 104.25724008 -76.3125 90.6875 C-63.94194984 79.6875 -63.94194984 79.6875 -58.3125 79.6875 C-58.74820313 79.21441406 -59.18390625 78.74132812 -59.6328125 78.25390625 C-71.44998866 65.13223662 -76.32046387 53.19921248 -75.69140625 35.4765625 C-74.88441644 22.54954698 -68.54814608 12.08128111 -59.25 3.28125 C-42.59283172 -10.42061423 -18.05009418 -11.9794347 0 0 Z M-52.3125 20.6875 C-58.27293793 29.46506033 -59.1109482 37.14798372 -58.3125 47.6875 C-56.46916828 55.8159266 -51.90405791 62.56958399 -45 67.2578125 C-36.38755225 72.21563604 -27.21506129 73.31765955 -17.41796875 71.00390625 C-7.53444214 67.34502774 -1.9168373 61.05068257 2.6875 51.6875 C5.44060059 43.61173827 4.59287175 33.56751361 1.0078125 25.93359375 C-3.5144908 18.2403263 -9.61404341 12.88741416 -18.16796875 10.078125 C-31.41011336 7.6660768 -43.3234631 10.45997357 -52.3125 20.6875 Z M-61.3125 100.6875 C-62.02019531 101.18765625 -62.72789063 101.6878125 -63.45703125 102.203125 C-73.29574134 109.88779797 -80.21855616 122.49825075 -82.3125 134.6875 C-83.20869253 143.0308687 -83.70306336 151.74162655 -78.3125 158.6875 C-73.22180716 164.90945792 -67.12166441 167.5892935 -59.3125 168.6875 C-57.17617339 168.77992519 -55.037482 168.82533008 -52.89916992 168.83276367 C-51.64734421 168.83914352 -50.39551849 168.84552338 -49.10575867 168.85209656 C-47.75149576 168.85362571 -46.39723233 168.85473941 -45.04296875 168.85546875 C-43.63820869 168.85868691 -42.23344895 168.8620514 -40.82868958 168.86555481 C-37.8892845 168.87152721 -34.94990875 168.87339669 -32.01049805 168.87280273 C-28.26508721 168.87270128 -24.51986668 168.88634413 -20.77450085 168.90357494 C-17.87379614 168.91475669 -14.97313653 168.91672005 -12.07241249 168.91619301 C-10.69267433 168.9173642 -9.31293467 168.92173695 -7.933218 168.92952538 C6.82152627 169.14877694 6.82152627 169.14877694 19.6875 162.6875 C25.70858489 156.62309796 27.97673456 151.90126834 28.0625 143.1875 C27.99517261 130.68036217 24.07315084 120.74019142 16.6875 110.6875 C16.18734375 109.97980469 15.6871875 109.27210938 15.171875 108.54296875 C7.54224631 98.77473202 -5.16534202 91.6346559 -17.3125 89.6875 C-33.96416268 88.1407205 -47.62815374 90.63369458 -61.3125 100.6875 Z " fill="#F7F7F7" transform="translate(123.3125,167.3125)"/>
<path d="M0 0 C3.00050119 1.94522783 5.73738033 4.17113592 8.5 6.4375 C10.08049931 7.70373743 11.66255774 8.96803103 13.24609375 10.23046875 C14.03612793 10.86259277 14.82616211 11.4947168 15.64013672 12.14599609 C19.82788713 15.43606196 24.15331497 18.53607699 28.4921875 21.62280273 C32.89600767 24.79201534 32.89600767 24.79201534 34 27 C34.56872038 34.0521327 34.56872038 34.0521327 32.5 37.5 C28.96860244 39.61883854 25.95149667 39.83416793 22 39 C18.37256589 37.03331886 15.22302608 34.56455838 12 32 C11.12988281 31.33226562 10.25976562 30.66453125 9.36328125 29.9765625 C7.22835957 28.33431505 5.10867064 26.67573102 3 25 C2.95007091 29.10762763 2.91403354 33.21513448 2.89013672 37.32299805 C2.8801607 38.71658409 2.86657499 40.11014966 2.84912109 41.50366211 C2.64248588 56.63641303 2.64248588 56.63641303 9 70 C9 70.66 9 71.32 9 72 C18.34042712 76.8570221 26.01424073 78.15021924 36.37971497 78.13371277 C37.42388083 78.13597833 38.46804669 78.13824388 39.54385394 78.14057809 C43.0420239 78.14690724 46.54015502 78.14608942 50.03833008 78.14526367 C52.54674835 78.14825584 55.05516617 78.1516585 57.56358337 78.15544128 C63.66988399 78.16336156 69.77617038 78.16649569 75.88247565 78.16705366 C80.84745533 78.16752929 85.81243183 78.16958636 90.77741051 78.17275429 C104.86277953 78.18155825 118.94814095 78.18617407 133.03351275 78.18542381 C134.17188365 78.18536388 134.17188365 78.18536388 135.33325195 78.18530273 C136.47301732 78.18524141 136.47301732 78.18524141 137.63580825 78.18517885 C149.94809276 78.18477247 162.26034668 78.19434085 174.57262234 78.2084411 C187.22334675 78.22281431 199.87405625 78.22971076 212.52478904 78.22884732 C219.62376077 78.22851568 226.72270044 78.23124852 233.82166481 78.24202538 C240.49880764 78.25209713 247.17587156 78.25178537 253.85302162 78.24450874 C256.30194701 78.24346293 258.75087662 78.24582558 261.19979477 78.2518692 C264.54638744 78.25959244 267.89274642 78.25494192 271.23933411 78.24723816 C272.68799581 78.2549535 272.68799581 78.2549535 274.16592342 78.26282471 C283.3329632 78.21629181 291.64681355 77.39779634 298.40625 70.58203125 C304.70373278 63.46074985 305.12449325 55.84219341 305.17578125 46.6796875 C305.1989588 45.07680948 305.22307526 43.47394482 305.24804688 41.87109375 C305.28325759 39.3649774 305.31258326 36.859362 305.32592773 34.35302734 C305.34138908 31.919649 305.3815514 29.48769065 305.42578125 27.0546875 C305.42387283 26.30669891 305.42196442 25.55871033 305.41999817 24.78805542 C305.50270932 21.27175802 305.72990266 19.34915612 307.91088867 16.52978516 C310.17807002 14.86960538 311.22384656 14.4566226 314 14.5 C314.66 14.4896875 315.32 14.479375 316 14.46875 C319.09141397 15.28990684 320.08598533 16.40986014 322 19 C322.61006344 22.27800513 322.56023696 25.52124082 322.53125 28.84765625 C322.5350769 29.81473007 322.53890381 30.78180389 322.54284668 31.77818298 C322.54556796 33.82666055 322.53819167 35.87517274 322.52148438 37.92358398 C322.50024064 41.02734128 322.52119413 44.12874047 322.546875 47.23242188 C322.56818383 61.73663292 321.42889462 73.07547474 311 84 C301.82820763 92.7556808 291.81814886 95.61631408 279.34912109 95.50793457 C278.2285903 95.51417453 277.1080595 95.5204145 275.95357323 95.52684355 C272.22664253 95.54270379 268.50037219 95.53019601 264.7734375 95.51757812 C262.09017042 95.52300234 259.40694771 95.52998284 256.72369385 95.53881836 C250.2089408 95.55654658 243.69437274 95.55278918 237.17961264 95.5411678 C231.88199446 95.5321112 226.5844279 95.53091907 221.2868042 95.53526306 C220.53102156 95.53587599 219.77523892 95.53648893 218.99655378 95.53712043 C217.46089568 95.53839941 215.9252376 95.53969627 214.38957953 95.5410108 C200.01083389 95.5523999 185.63219047 95.53932917 171.2534616 95.51780933 C158.93259511 95.49993985 146.6118794 95.50304443 134.29101562 95.52148438 C119.96152835 95.54292067 105.63213054 95.55130142 91.30262947 95.53903532 C89.77281826 95.53776121 88.24300704 95.53650372 86.7131958 95.53526306 C85.58433553 95.53433741 85.58433553 95.53433741 84.43267 95.53339306 C79.14525657 95.52994842 73.85790019 95.53574932 68.57049561 95.54518127 C62.1213739 95.55643337 55.67244678 95.55329414 49.22334719 95.5320583 C45.93679866 95.52159067 42.65063847 95.51952797 39.36408234 95.53065491 C35.79269443 95.54162916 32.2222097 95.52782244 28.65087891 95.50793457 C27.11101602 95.5213189 27.11101602 95.5213189 25.54004478 95.53497362 C14.31214612 95.41417955 5.13626273 91.76713172 -3 84 C-14.29583465 72.1673336 -14.62932703 59.30213831 -14.75 43.8125 C-14.77820777 41.98369629 -14.80814177 40.15491835 -14.83984375 38.32617188 C-14.91313501 33.88416145 -14.9630565 29.44245532 -15 25 C-15.53367187 25.42410156 -16.06734375 25.84820312 -16.6171875 26.28515625 C-19.06289563 28.21041092 -21.53073549 30.10506812 -24 32 C-24.83917969 32.66773438 -25.67835937 33.33546875 -26.54296875 34.0234375 C-33.67240733 39.43960014 -33.67240733 39.43960014 -38.46875 39.53125 C-42 39 -42 39 -44.5 37.5 C-46.18959029 34.68401619 -46.5184812 32.36493864 -46.62890625 29.09765625 C-44.68321144 22.60797853 -35.92588989 17.98076264 -30.8125 14.125 C-29.91724609 13.44308594 -29.02199219 12.76117188 -28.09960938 12.05859375 C-7.69297036 -3.41214341 -7.69297036 -3.41214341 0 0 Z " fill="#F7F7F7" transform="translate(102,393)"/>
<path d="M0 0 C1.1205308 -0.00623996 2.24106159 -0.01247993 3.39554787 -0.01890898 C7.12247856 -0.03476922 10.8487489 -0.02226144 14.57568359 -0.00964355 C17.25895067 -0.01506776 19.94217339 -0.02204827 22.62542725 -0.03088379 C29.14018029 -0.04861201 35.65474835 -0.04485461 42.16950846 -0.03323323 C47.46712663 -0.02417663 52.76469319 -0.0229845 58.06231689 -0.02732849 C58.81809953 -0.02794142 59.57388217 -0.02855436 60.35256732 -0.02918586 C61.88822541 -0.03046484 63.42388349 -0.0317617 64.95954156 -0.03307623 C79.33828721 -0.04446533 93.71693062 -0.0313946 108.09565949 -0.00987476 C120.41652599 0.00799472 132.7372417 0.00489014 145.05810547 -0.0135498 C159.38759274 -0.0349861 173.71699055 -0.04336685 188.04649162 -0.03110075 C189.57630283 -0.02982664 191.10611406 -0.02856915 192.63592529 -0.02732849 C193.76478557 -0.02640284 193.76478557 -0.02640284 194.9164511 -0.02545848 C200.20386452 -0.02201385 205.4912209 -0.02781475 210.77862549 -0.0372467 C217.22774719 -0.0484988 223.67667431 -0.04535957 230.12577391 -0.02412373 C233.41232244 -0.0136561 236.69848263 -0.0115934 239.98503876 -0.02272034 C243.55642666 -0.03369459 247.1269114 -0.01988787 250.69824219 0 C251.72481745 -0.00892289 252.75139271 -0.01784577 253.80907631 -0.02703905 C265.03697498 0.09375502 274.21285836 3.74080285 282.34912109 11.50793457 C294.30644128 24.03352344 294.10885805 38.07684208 294.34912109 54.50793457 C294.88279297 54.08383301 295.41646484 53.65973145 295.96630859 53.22277832 C298.41201672 51.29752365 300.87985658 49.40286645 303.34912109 47.50793457 C304.60789062 46.50633301 304.60789062 46.50633301 305.89208984 45.48449707 C313.02152842 40.06833443 313.02152842 40.06833443 317.81787109 39.97668457 C321.34912109 40.50793457 321.34912109 40.50793457 323.84912109 42.00793457 C325.53871138 44.82391838 325.86760229 47.14299593 325.97802734 50.41027832 C324.03233253 56.89995604 315.27501098 61.52717193 310.16162109 65.38293457 C309.26636719 66.06484863 308.37111328 66.7467627 307.44873047 67.44934082 C305.65019407 68.81285217 303.84435404 70.16678461 302.03125 71.51086426 C300.24433518 72.84137247 298.47542861 74.19641661 296.72558594 75.57531738 C288.69481521 81.68097701 288.69481521 81.68097701 283.33740234 81.13879395 C279.07876375 79.78757561 275.79698181 77.01479101 272.34912109 74.25793457 C271.53330566 73.62983887 270.71749023 73.00174316 269.87695312 72.35461426 C268.19203945 71.05722093 266.51251749 69.75279623 264.83837891 68.44152832 C262.44719389 66.58411508 260.02916472 64.77224958 257.59130859 62.97668457 C256.85396484 62.43302246 256.11662109 61.88936035 255.35693359 61.32922363 C253.95895546 60.29930293 252.56053365 59.26998414 251.16162109 58.24133301 C246.46199022 54.73367283 246.46199022 54.73367283 245.34912109 52.50793457 C244.78040071 45.45580187 244.78040071 45.45580187 246.84912109 42.00793457 C250.38051866 39.88909603 253.39762443 39.67376665 257.34912109 40.50793457 C260.9765552 42.47461571 264.12609502 44.94337619 267.34912109 47.50793457 C268.21923828 48.17566895 269.08935547 48.84340332 269.98583984 49.53137207 C272.12076152 51.17361952 274.24045045 52.83220355 276.34912109 54.50793457 C276.80195001 39.0404816 276.80195001 39.0404816 270.34912109 25.50793457 C270.34912109 24.84793457 270.34912109 24.18793457 270.34912109 23.50793457 C269.81287109 23.23980957 269.27662109 22.97168457 268.72412109 22.69543457 C266.97362513 21.82018659 265.24744652 20.89589314 263.53662109 19.94543457 C256.97405161 16.98584441 249.91578378 17.36293475 242.84915161 17.3742218 C241.28162118 17.37082347 241.28162118 17.37082347 239.68242347 17.36735648 C236.18735956 17.36103592 232.69233462 17.36184459 229.19726562 17.3626709 C226.68869985 17.35967822 224.18013453 17.35627544 221.67156982 17.35249329 C215.56874843 17.34457786 209.46594126 17.34143915 203.36311521 17.34088091 C198.40101986 17.34040508 193.43892769 17.33834701 188.47683334 17.33518028 C174.39737247 17.32637833 160.3179192 17.32176026 146.23845555 17.32251076 C145.10093275 17.32257069 145.10093275 17.32257069 143.94042969 17.32263184 C142.80151257 17.32269316 142.80151257 17.32269316 141.63958703 17.32275572 C129.33383262 17.32316219 117.02810881 17.31359113 104.72236325 17.29949347 C92.07612723 17.28512043 79.42990612 17.27822378 66.78366172 17.27908725 C59.68805834 17.27941887 52.59248704 17.27668705 45.49689102 17.26590919 C38.82383881 17.25583778 32.15086554 17.25614901 25.47780609 17.26342583 C23.03049241 17.26447163 20.58317451 17.26210904 18.13586807 17.25606537 C14.79151839 17.24834213 11.44740255 17.25299264 8.10305786 17.26069641 C7.13796551 17.25555285 6.17287316 17.25040928 5.17853558 17.24510986 C-3.60265787 17.28971452 -10.5024031 18.27734252 -17.65087891 23.50793457 C-18.31087891 23.50793457 -18.97087891 23.50793457 -19.65087891 23.50793457 C-24.77433954 33.36074349 -25.7850521 41.39815734 -25.82666016 52.32824707 C-25.84984145 54.66028752 -25.87395807 56.99231882 -25.89892578 59.32434082 C-25.93414191 62.98928112 -25.96345521 66.65388015 -25.97680664 70.31896973 C-25.99223695 73.8641426 -26.03239318 77.40833261 -26.07666016 80.95324707 C-26.07475174 82.05121613 -26.07284332 83.14918518 -26.07087708 84.28042603 C-26.08736801 85.30183685 -26.10385895 86.32324768 -26.12084961 87.37561035 C-26.12671585 88.27240509 -26.13258209 89.16919983 -26.1386261 90.09317017 C-26.81201258 93.26752019 -28.1746589 94.4808707 -30.65087891 96.50793457 C-32.65087891 97.03918457 -32.65087891 97.03918457 -34.65087891 97.00793457 C-35.31087891 97.01824707 -35.97087891 97.02855957 -36.65087891 97.03918457 C-39.58207653 96.2605852 -40.74572387 94.83949378 -42.65087891 92.50793457 C-43.15881348 89.78514099 -43.15881348 89.78514099 -43.16845703 86.62878418 C-43.18106567 85.44332504 -43.19367432 84.25786591 -43.20666504 83.03648376 C-43.19856812 81.75733597 -43.19047119 80.47818817 -43.18212891 79.16027832 C-43.1848268 77.82470925 -43.1887117 76.4891421 -43.19372559 75.15357971 C-43.19962109 72.35166763 -43.19106661 69.55026575 -43.17236328 66.74841309 C-43.14972706 63.18664414 -43.16259639 59.62609122 -43.18665314 56.06436825 C-43.20124335 53.30246659 -43.1964429 50.54084354 -43.18614197 47.77893257 C-43.18223225 45.8366173 -43.19423282 43.89429052 -43.20666504 41.95201111 C-43.08017312 29.83793451 -40.1036523 20.36242393 -31.65087891 11.50793457 C-22.47908654 2.75225377 -12.46902777 -0.10837951 0 0 Z " fill="#F7F7F7" transform="translate(130.65087890625,23.4920654296875)"/>
<path d="M0 0 C0.69641602 -0.00700928 1.39283203 -0.01401855 2.11035156 -0.02124023 C4.40730932 -0.03881383 6.70303021 -0.02720107 9 -0.01367188 C10.59896073 -0.01636701 12.19791987 -0.0202496 13.796875 -0.02526855 C17.14599226 -0.03116269 20.49468243 -0.0226038 23.84375 -0.00390625 C28.13478591 0.01888377 32.42482111 0.00576017 36.71582031 -0.01819611 C40.01700366 -0.03265667 43.31795011 -0.02804703 46.61914062 -0.01768494 C48.20117308 -0.01501834 49.78322711 -0.0182851 51.36523438 -0.02760315 C53.57740163 -0.03777366 55.787953 -0.02226378 58 0 C59.8871875 0.00477356 59.8871875 0.00477356 61.8125 0.00964355 C65.55520109 0.60605054 66.73159929 1.54273163 69 4.51757812 C69.53125 6.51757812 69.53125 6.51757812 69.5 8.51757812 C69.51546875 9.50757813 69.51546875 9.50757813 69.53125 10.51757812 C68.74176632 13.48975197 67.39936627 14.61414098 65 16.51757812 C61.8125 17.0255127 61.8125 17.0255127 58 17.03515625 C57.30358398 17.04216553 56.60716797 17.0491748 55.88964844 17.05639648 C53.59269068 17.07397008 51.29696979 17.06235732 49 17.04882812 C47.40103927 17.05152326 45.80208013 17.05540585 44.203125 17.0604248 C40.85400774 17.06631894 37.50531757 17.05776005 34.15625 17.0390625 C29.86521409 17.01627248 25.57517889 17.02939608 21.28417969 17.05335236 C17.98299634 17.06781292 14.68204989 17.06320328 11.38085938 17.05284119 C9.79882692 17.05017459 8.21677289 17.05344135 6.63476562 17.0627594 C4.42259837 17.07292991 2.212047 17.05742003 0 17.03515625 C-1.258125 17.03197388 -2.51625 17.0287915 -3.8125 17.0255127 C-7.55520109 16.42910571 -8.73159929 15.49242462 -11 12.51757812 C-11.53125 10.51757812 -11.53125 10.51757812 -11.5 8.51757812 C-11.51546875 7.52757812 -11.51546875 7.52757812 -11.53125 6.51757812 C-9.93997703 0.52690342 -5.4948528 0.01389899 0 0 Z " fill="#F7F7F7" transform="translate(307,343.482421875)"/>
<path d="M0 0 C0.69641602 -0.00700928 1.39283203 -0.01401855 2.11035156 -0.02124023 C4.40730932 -0.03881383 6.70303021 -0.02720107 9 -0.01367188 C10.59896073 -0.01636701 12.19791987 -0.0202496 13.796875 -0.02526855 C17.14599226 -0.03116269 20.49468243 -0.0226038 23.84375 -0.00390625 C28.13478591 0.01888377 32.42482111 0.00576017 36.71582031 -0.01819611 C40.01700366 -0.03265667 43.31795011 -0.02804703 46.61914062 -0.01768494 C48.20117308 -0.01501834 49.78322711 -0.0182851 51.36523438 -0.02760315 C53.57740163 -0.03777366 55.787953 -0.02226378 58 0 C59.8871875 0.00477356 59.8871875 0.00477356 61.8125 0.00964355 C65.55520109 0.60605054 66.73159929 1.54273163 69 4.51757812 C69.53125 6.51757812 69.53125 6.51757812 69.5 8.51757812 C69.51546875 9.50757813 69.51546875 9.50757813 69.53125 10.51757812 C68.74176632 13.48975197 67.39936627 14.61414098 65 16.51757812 C61.8125 17.0255127 61.8125 17.0255127 58 17.03515625 C57.30358398 17.04216553 56.60716797 17.0491748 55.88964844 17.05639648 C53.59269068 17.07397008 51.29696979 17.06235732 49 17.04882812 C47.40103927 17.05152326 45.80208013 17.05540585 44.203125 17.0604248 C40.85400774 17.06631894 37.50531757 17.05776005 34.15625 17.0390625 C29.86521409 17.01627248 25.57517889 17.02939608 21.28417969 17.05335236 C17.98299634 17.06781292 14.68204989 17.06320328 11.38085938 17.05284119 C9.79882692 17.05017459 8.21677289 17.05344135 6.63476562 17.0627594 C4.42259837 17.07292991 2.212047 17.05742003 0 17.03515625 C-1.258125 17.03197388 -2.51625 17.0287915 -3.8125 17.0255127 C-7.55520109 16.42910571 -8.73159929 15.49242462 -11 12.51757812 C-11.53125 10.51757812 -11.53125 10.51757812 -11.5 8.51757812 C-11.51546875 7.52757812 -11.51546875 7.52757812 -11.53125 6.51757812 C-9.93997703 0.52690342 -5.4948528 0.01389899 0 0 Z " fill="#F7F7F7" transform="translate(307,247.482421875)"/>
<path d="M0 0 C0.69641602 -0.00700928 1.39283203 -0.01401855 2.11035156 -0.02124023 C4.40730932 -0.03881383 6.70303021 -0.02720107 9 -0.01367188 C10.59896073 -0.01636701 12.19791987 -0.0202496 13.796875 -0.02526855 C17.14599226 -0.03116269 20.49468243 -0.0226038 23.84375 -0.00390625 C28.13478591 0.01888377 32.42482111 0.00576017 36.71582031 -0.01819611 C40.01700366 -0.03265667 43.31795011 -0.02804703 46.61914062 -0.01768494 C48.20117308 -0.01501834 49.78322711 -0.0182851 51.36523438 -0.02760315 C53.57740163 -0.03777366 55.787953 -0.02226378 58 0 C59.8871875 0.00477356 59.8871875 0.00477356 61.8125 0.00964355 C65.55520109 0.60605054 66.73159929 1.54273163 69 4.51757812 C69.53125 6.51757812 69.53125 6.51757812 69.5 8.51757812 C69.51546875 9.50757813 69.51546875 9.50757813 69.53125 10.51757812 C68.74176632 13.48975197 67.39936627 14.61414098 65 16.51757812 C61.8125 17.0255127 61.8125 17.0255127 58 17.03515625 C57.30358398 17.04216553 56.60716797 17.0491748 55.88964844 17.05639648 C53.59269068 17.07397008 51.29696979 17.06235732 49 17.04882812 C47.40103927 17.05152326 45.80208013 17.05540585 44.203125 17.0604248 C40.85400774 17.06631894 37.50531757 17.05776005 34.15625 17.0390625 C29.86521409 17.01627248 25.57517889 17.02939608 21.28417969 17.05335236 C17.98299634 17.06781292 14.68204989 17.06320328 11.38085938 17.05284119 C9.79882692 17.05017459 8.21677289 17.05344135 6.63476562 17.0627594 C4.42259837 17.07292991 2.212047 17.05742003 0 17.03515625 C-1.258125 17.03197388 -2.51625 17.0287915 -3.8125 17.0255127 C-7.55520109 16.42910571 -8.73159929 15.49242462 -11 12.51757812 C-11.53125 10.51757812 -11.53125 10.51757812 -11.5 8.51757812 C-11.51546875 7.52757812 -11.51546875 7.52757812 -11.53125 6.51757812 C-9.93997703 0.52690342 -5.4948528 0.01389899 0 0 Z " fill="#F7F7F7" transform="translate(307,151.482421875)"/>
<path d="M0 0 C2.5 1.5 2.5 1.5 4 4 C4.791013 8.02098277 4.62153384 10.96411027 2.5 14.5 C-1.03588973 16.62153384 -3.97901723 16.791013 -8 16 C-10.5 14.5 -10.5 14.5 -12 12 C-12.791013 7.97901723 -12.62153384 5.03588973 -10.5 1.5 C-6.96411027 -0.62153384 -4.02098277 -0.791013 0 0 Z " fill="#F7F7F7" transform="translate(452,344)"/>
<path d="M0 0 C2.5 1.5 2.5 1.5 4 4 C4.791013 8.02098277 4.62153384 10.96411027 2.5 14.5 C-1.03588973 16.62153384 -3.97901723 16.791013 -8 16 C-10.5 14.5 -10.5 14.5 -12 12 C-12.791013 7.97901723 -12.62153384 5.03588973 -10.5 1.5 C-6.96411027 -0.62153384 -4.02098277 -0.791013 0 0 Z " fill="#F7F7F7" transform="translate(452,248)"/>
<path d="M0 0 C2.5 1.5 2.5 1.5 4 4 C4.791013 8.02098277 4.62153384 10.96411027 2.5 14.5 C-1.03588973 16.62153384 -3.97901723 16.791013 -8 16 C-10.5 14.5 -10.5 14.5 -12 12 C-12.791013 7.97901723 -12.62153384 5.03588973 -10.5 1.5 C-6.96411027 -0.62153384 -4.02098277 -0.791013 0 0 Z " fill="#F7F7F7" transform="translate(452,152)"/>
</svg>
